<svg width="638" height="642" viewBox="0 0 638 642" fill="none" xmlns="http://www.w3.org/2000/svg">
    <rect width="638" height="642" fill="white" />
    <ellipse cx="319" cy="321" rx="146" ry="142" fill="#b90e0a" />
    <path d="M319.5 233.047C305.412 233.046 291.726 237.742 280.607 246.394C269.489 255.046 261.573 267.158 258.112 280.814C254.652 294.471 255.844 308.891 261.501 321.794C267.157 334.696 276.955 345.344 289.344 352.052V371.766H349.656V351.993C362.044 345.291 371.843 334.648 377.5 321.749C383.156 308.85 384.349 294.432 380.887 280.779C377.426 267.126 369.509 255.018 358.39 246.373C347.27 237.727 333.585 233.037 319.5 233.047Z" fill="#b90e0a" />
    <path d="M289.344 371.766H349.656V389.859H289.344V371.766Z" fill="#b90e0a" />
    <path d="M295.375 389.859H343.625L337.594 407.953H301.406L295.375 389.859Z" fill="#b90e0a" />
    <path d="M295.375 389.859L298.391 398.906H331.722L328.707 407.953H337.594L343.625 389.859H295.375Z" fill="#b90e0a" />
    <path d="M382.828 296.375C382.82 281.34 377.459 266.8 367.706 255.357C357.954 243.915 344.446 236.318 329.603 233.927C341.544 238.139 352.027 245.688 359.807 255.678C367.588 265.668 372.339 277.68 373.498 290.289C374.656 302.899 372.174 315.576 366.344 326.816C360.515 338.057 351.583 347.39 340.609 353.707V371.766H349.656V351.993C359.679 346.566 368.051 338.534 373.889 328.745C379.727 318.956 382.816 307.773 382.828 296.375Z" fill="#b90e0a" />
    <path d="M340.609 389.847L340.606 389.859H349.656V371.766H340.609V389.847Z" fill="#b90e0a" />
    <path d="M319.5 230.031C304.896 230.03 290.7 234.848 279.113 243.738C267.526 252.628 259.197 265.093 255.417 279.199C251.637 293.305 252.617 308.265 258.206 321.757C263.795 335.25 273.68 346.521 286.328 353.822V389.859C286.328 390.255 286.406 390.648 286.557 391.014C286.709 391.379 286.931 391.712 287.211 391.992C287.491 392.272 287.824 392.494 288.19 392.646C288.556 392.797 288.948 392.875 289.344 392.875H293.201L298.545 408.907C298.745 409.508 299.13 410.03 299.643 410.4C300.157 410.77 300.773 410.969 301.406 410.969H337.594C338.227 410.969 338.843 410.77 339.357 410.4C339.87 410.03 340.255 409.508 340.455 408.907L345.799 392.875H349.656C350.052 392.875 350.444 392.797 350.81 392.646C351.176 392.494 351.509 392.272 351.789 391.992C352.069 391.712 352.291 391.379 352.443 391.014C352.594 390.648 352.672 390.255 352.672 389.859V353.763C365.319 346.467 375.205 335.201 380.794 321.712C386.383 308.223 387.363 293.267 383.582 279.164C379.801 265.061 371.471 252.6 359.884 243.716C348.297 234.832 334.101 230.022 319.5 230.031ZM335.42 404.938H303.58L299.559 392.875H339.441L335.42 404.938ZM292.359 386.844V374.781H346.641V386.844H292.359ZM348.221 349.343C347.743 349.601 347.343 349.984 347.065 350.45C346.787 350.917 346.64 351.45 346.641 351.993V368.75H328.547V302.406C328.547 300.617 329.077 298.868 330.072 297.38C331.066 295.892 332.479 294.733 334.132 294.048C335.785 293.363 337.604 293.184 339.359 293.533C341.114 293.882 342.726 294.744 343.991 296.009C345.256 297.274 346.118 298.886 346.467 300.641C346.816 302.396 346.637 304.215 345.952 305.868C345.267 307.521 344.108 308.934 342.62 309.928C341.132 310.923 339.383 311.453 337.594 311.453C336.794 311.453 336.027 311.771 335.461 312.336C334.896 312.902 334.578 313.669 334.578 314.469C334.578 315.269 334.896 316.036 335.461 316.601C336.027 317.167 336.794 317.484 337.594 317.484C340.576 317.484 343.491 316.6 345.971 314.943C348.45 313.286 350.383 310.932 351.524 308.176C352.665 305.421 352.964 302.39 352.382 299.465C351.8 296.54 350.364 293.853 348.256 291.744C346.147 289.636 343.46 288.2 340.535 287.618C337.61 287.036 334.579 287.335 331.824 288.476C329.068 289.617 326.714 291.55 325.057 294.029C323.4 296.509 322.516 299.424 322.516 302.406V368.75H316.484V302.406C316.484 299.424 315.6 296.509 313.943 294.029C312.286 291.55 309.932 289.617 307.176 288.476C304.421 287.335 301.39 287.036 298.465 287.618C295.54 288.2 292.853 289.636 290.744 291.744C288.636 293.853 287.2 296.54 286.618 299.465C286.036 302.39 286.335 305.421 287.476 308.176C288.617 310.932 290.55 313.286 293.029 314.943C295.509 316.6 298.424 317.484 301.406 317.484C302.206 317.484 302.973 317.167 303.539 316.601C304.104 316.036 304.422 315.269 304.422 314.469C304.422 313.669 304.104 312.902 303.539 312.336C302.973 311.771 302.206 311.453 301.406 311.453C299.617 311.453 297.868 310.923 296.38 309.928C294.892 308.934 293.733 307.521 293.048 305.868C292.363 304.215 292.184 302.396 292.533 300.641C292.882 298.886 293.744 297.274 295.009 296.009C296.274 294.744 297.886 293.882 299.641 293.533C301.396 293.184 303.215 293.363 304.868 294.048C306.521 294.733 307.934 295.892 308.928 297.38C309.923 298.868 310.453 300.617 310.453 302.406V368.75H292.359V352.052C292.359 351.509 292.212 350.976 291.934 350.509C291.656 350.043 291.257 349.66 290.779 349.402C278.958 343.023 269.602 332.884 264.192 320.59C258.781 308.295 257.626 294.547 260.909 281.522C264.192 268.497 271.725 256.939 282.316 248.677C292.907 240.415 305.951 235.922 319.384 235.908C332.816 235.894 345.869 240.361 356.477 248.601C367.085 256.841 374.642 268.384 377.952 281.402C381.261 294.42 380.134 308.17 374.749 320.476C369.364 332.782 360.029 342.94 348.221 349.343Z" fill="white" />
</svg>