<svg width="638" height="642" viewBox="0 0 638 642" fill="none" xmlns="http://www.w3.org/2000/svg">
    <rect width="638" height="642" fill="white" />
    <ellipse cx="319" cy="321" rx="146" ry="142" fill="#B90E0A" />
    <g filter="url(#filter0_d_1_5)">
        <path fill-rule="evenodd" clip-rule="evenodd" d="M226.094 285.344C226.094 284.791 226.541 284.344 227.094 284.344H409.906C410.459 284.344 410.906 284.791 410.906 285.344C410.906 285.896 410.459 286.344 409.906 286.344H227.094C226.541 286.344 226.094 285.896 226.094 285.344Z" fill="white" stroke="white" stroke-width="7" stroke-miterlimit="10" stroke-linecap="round" stroke-linejoin="round" />
        <mask id="path-3-inside-1_1_5" fill="white">
            <path d="M276.312 271.281C274.203 271.281 272.797 270.578 271.391 269.172C269.984 267.766 269.281 266.359 269.281 264.25C269.281 263.547 269.281 262.141 269.984 261.437C270.688 260.734 270.688 260.031 271.391 259.328C272.094 258.625 272.797 257.922 273.5 257.922C276.313 256.516 279.125 257.219 281.234 259.328C281.937 260.031 282.641 260.734 282.641 261.437C283.344 262.141 283.344 263.547 283.344 264.25C283.344 266.359 282.641 267.766 281.234 269.172C279.828 270.578 278.422 271.281 276.312 271.281Z" />
        </mask>
        <path d="M276.312 271.281C274.203 271.281 272.797 270.578 271.391 269.172C269.984 267.766 269.281 266.359 269.281 264.25C269.281 263.547 269.281 262.141 269.984 261.437C270.688 260.734 270.688 260.031 271.391 259.328C272.094 258.625 272.797 257.922 273.5 257.922C276.313 256.516 279.125 257.219 281.234 259.328C281.937 260.031 282.641 260.734 282.641 261.437C283.344 262.141 283.344 263.547 283.344 264.25C283.344 266.359 282.641 267.766 281.234 269.172C279.828 270.578 278.422 271.281 276.312 271.281Z" fill="white" />
        <path d="M273.5 257.922V264.922H275.152L276.63 264.183L273.5 257.922ZM282.641 261.437H275.641V264.337L277.691 266.387L282.641 261.437ZM276.312 264.281C276.175 264.281 276.145 264.27 276.192 264.279C276.215 264.283 276.25 264.292 276.294 264.306C276.339 264.32 276.386 264.337 276.431 264.357C276.476 264.377 276.513 264.397 276.54 264.412C276.566 264.428 276.578 264.436 276.574 264.434C276.569 264.43 276.548 264.414 276.509 264.38C276.469 264.346 276.413 264.295 276.34 264.222L266.441 274.122C267.557 275.238 268.952 276.354 270.745 277.151C272.568 277.961 274.441 278.281 276.312 278.281V264.281ZM276.34 264.222C276.267 264.149 276.216 264.093 276.182 264.054C276.148 264.015 276.132 263.993 276.129 263.989C276.126 263.985 276.135 263.997 276.15 264.023C276.166 264.05 276.185 264.086 276.205 264.132C276.225 264.177 276.243 264.223 276.257 264.268C276.271 264.313 276.279 264.348 276.284 264.371C276.293 264.417 276.281 264.387 276.281 264.25H262.281C262.281 266.121 262.601 267.994 263.412 269.818C264.209 271.611 265.325 273.005 266.441 274.122L276.34 264.222ZM276.281 264.25C276.281 263.858 276.294 263.875 276.274 263.995C276.26 264.078 276.21 264.349 276.057 264.725C275.903 265.1 275.579 265.742 274.934 266.387L265.035 256.488C263.131 258.391 262.633 260.68 262.464 261.693C262.269 262.867 262.281 263.939 262.281 264.25H276.281ZM274.934 266.387C276.169 265.153 276.771 263.867 276.948 263.513C277.123 263.164 276.872 263.746 276.34 264.278L266.441 254.378C265.206 255.613 264.604 256.898 264.427 257.252C264.252 257.601 264.503 257.019 265.035 256.488L274.934 266.387ZM276.34 264.278C276.531 264.087 276.626 263.993 276.706 263.919C276.782 263.847 276.752 263.881 276.645 263.961C276.547 264.035 276.25 264.25 275.778 264.456C275.291 264.669 274.506 264.922 273.5 264.922V250.922C270.864 250.922 268.999 252.196 268.245 252.761C267.418 253.382 266.701 254.118 266.441 254.378L276.34 264.278ZM276.63 264.183C276.702 264.147 276.685 264.167 276.588 264.181C276.489 264.195 276.372 264.193 276.258 264.171C276.149 264.149 276.093 264.118 276.094 264.119C276.099 264.121 276.168 264.162 276.285 264.278L286.184 254.378C282.249 250.443 276.243 248.724 270.37 251.661L276.63 264.183ZM276.285 264.278C276.476 264.469 276.57 264.564 276.644 264.643C276.716 264.719 276.681 264.689 276.601 264.583C276.527 264.484 276.313 264.187 276.107 263.716C275.894 263.229 275.641 262.443 275.641 261.437H289.641C289.641 258.802 288.366 256.937 287.801 256.183C287.181 255.355 286.444 254.638 286.184 254.378L276.285 264.278ZM277.691 266.387C277.046 265.742 276.722 265.1 276.568 264.725C276.415 264.349 276.365 264.078 276.351 263.995C276.331 263.875 276.344 263.858 276.344 264.25H290.344C290.344 263.939 290.356 262.867 290.161 261.693C289.992 260.68 289.494 258.391 287.59 256.488L277.691 266.387ZM276.344 264.25C276.344 264.387 276.332 264.417 276.341 264.371C276.346 264.348 276.354 264.313 276.368 264.268C276.382 264.223 276.4 264.177 276.42 264.132C276.44 264.086 276.459 264.05 276.475 264.023C276.49 263.997 276.499 263.985 276.496 263.989C276.493 263.993 276.477 264.015 276.443 264.054C276.409 264.093 276.358 264.149 276.285 264.222L286.184 274.122C287.3 273.005 288.416 271.611 289.213 269.818C290.024 267.994 290.344 266.121 290.344 264.25H276.344ZM276.285 264.222C276.212 264.295 276.156 264.346 276.116 264.38C276.077 264.414 276.056 264.43 276.051 264.434C276.047 264.436 276.059 264.428 276.085 264.412C276.112 264.397 276.149 264.377 276.194 264.357C276.239 264.337 276.286 264.32 276.331 264.306C276.375 264.292 276.41 264.283 276.433 264.279C276.48 264.27 276.45 264.281 276.312 264.281V278.281C278.184 278.281 280.057 277.961 281.88 277.151C283.673 276.354 285.068 275.238 286.184 274.122L276.285 264.222Z" fill="white" mask="url(#path-3-inside-1_1_5)" />
        <path d="M294.903 266.641C294.775 266.512 294.671 266.408 294.578 266.311V265.613L293.896 264.931C293.891 264.872 293.886 264.805 293.882 264.728C293.875 264.576 293.875 264.429 293.875 264.25C293.875 264.071 293.875 263.924 293.882 263.772C293.887 263.681 293.892 263.603 293.9 263.536C294.435 262.906 294.732 262.31 294.888 261.996C294.896 261.98 294.904 261.963 294.912 261.948C294.962 261.847 294.995 261.784 295.014 261.749C296.455 260.358 298.426 260.376 299.853 261.803C300.008 261.958 300.129 262.079 300.234 262.189V262.887L300.916 263.569C300.922 263.628 300.927 263.695 300.93 263.772C300.937 263.924 300.938 264.071 300.938 264.25C300.938 264.429 300.937 264.576 300.93 264.728C300.926 264.819 300.92 264.897 300.913 264.964C300.378 265.594 300.081 266.19 299.925 266.504C299.916 266.52 299.908 266.537 299.901 266.552C299.85 266.654 299.817 266.717 299.798 266.752C299.33 267.211 298.988 267.432 298.709 267.556C298.435 267.678 298.053 267.781 297.406 267.781C297.227 267.781 297.081 267.781 296.928 267.774C296.837 267.77 296.759 267.764 296.693 267.757C296.063 267.221 295.466 266.925 295.153 266.769C295.136 266.76 295.12 266.752 295.104 266.744C295.001 266.693 294.938 266.66 294.903 266.641ZM300.503 262.494C300.503 262.494 300.502 262.492 300.5 262.489C300.502 262.492 300.503 262.494 300.503 262.494ZM294.313 266.011C294.31 266.008 294.309 266.006 294.309 266.006C294.309 266.006 294.311 266.008 294.313 266.011Z" fill="white" stroke="white" stroke-width="7" />
        <path fill-rule="evenodd" clip-rule="evenodd" d="M226.094 257.219C226.094 248.932 232.87 242.156 241.156 242.156H395.844C404.13 242.156 410.906 248.932 410.906 257.219V383.781C410.906 392.068 404.13 398.844 395.844 398.844H241.156C232.87 398.844 226.094 392.068 226.094 383.781V257.219ZM241.156 244.156C233.974 244.156 228.094 250.037 228.094 257.219V383.781C228.094 390.963 233.974 396.844 241.156 396.844H395.844C403.026 396.844 408.906 390.963 408.906 383.781V257.219C408.906 250.037 403.026 244.156 395.844 244.156H241.156Z" fill="white" />
        <path fill-rule="evenodd" clip-rule="evenodd" d="M222.594 257.219C222.594 246.999 230.937 238.656 241.156 238.656H395.844C406.063 238.656 414.406 246.999 414.406 257.219V383.781C414.406 394.001 406.063 402.344 395.844 402.344H241.156C230.937 402.344 222.594 394.001 222.594 383.781V257.219ZM241.156 247.656C235.907 247.656 231.594 251.97 231.594 257.219V383.781C231.594 389.03 235.907 393.344 241.156 393.344H395.844C401.093 393.344 405.406 389.03 405.406 383.781V257.219C405.406 251.97 401.093 247.656 395.844 247.656H241.156Z" fill="white" />
        <path fill-rule="evenodd" clip-rule="evenodd" d="M284.051 319.793C284.441 320.183 284.441 320.817 284.051 321.207L263.664 341.594L284.051 361.98C284.441 362.371 284.441 363.004 284.051 363.395C283.66 363.785 283.027 363.785 282.637 363.395L261.543 342.301C261.152 341.91 261.152 341.277 261.543 340.887L282.637 319.793C283.027 319.402 283.66 319.402 284.051 319.793Z" fill="white" stroke="white" stroke-width="7" stroke-miterlimit="10" stroke-linecap="round" stroke-linejoin="round" />
        <path fill-rule="evenodd" clip-rule="evenodd" d="M352.949 319.793C353.34 319.402 353.973 319.402 354.363 319.793L375.457 340.887C375.848 341.277 375.848 341.91 375.457 342.301L354.363 363.395C353.973 363.785 353.34 363.785 352.949 363.395C352.559 363.004 352.559 362.371 352.949 361.98L373.336 341.594L352.949 321.207C352.559 320.817 352.559 320.183 352.949 319.793Z" fill="white" stroke="white" stroke-width="7" stroke-miterlimit="10" stroke-linecap="round" stroke-linejoin="round" />
        <path fill-rule="evenodd" clip-rule="evenodd" d="M333.01 312.574C333.504 312.821 333.704 313.422 333.457 313.916L305.332 370.166C305.085 370.66 304.484 370.86 303.99 370.613C303.496 370.366 303.296 369.766 303.543 369.272L331.668 313.022C331.915 312.528 332.516 312.327 333.01 312.574Z" fill="white" stroke="white" stroke-width="7" stroke-miterlimit="10" stroke-linecap="round" stroke-linejoin="round" />
        <mask id="path-11-inside-2_1_5" fill="white">
            <path d="M254.031 271.091C251.922 271.091 250.516 270.388 249.109 268.982C247.703 267.575 247 266.169 247 264.06C247 263.357 247 261.95 247.703 261.247C248.406 260.544 248.406 259.841 249.109 259.138C249.813 258.435 250.516 257.732 251.219 257.732C254.031 256.325 256.844 257.028 258.953 259.138C259.656 259.841 260.359 260.544 260.359 261.247C261.062 261.95 261.062 263.357 261.062 264.06C261.062 266.169 260.359 267.575 258.953 268.982C257.547 270.388 256.141 271.091 254.031 271.091Z" />
        </mask>
        <path d="M254.031 271.091C251.922 271.091 250.516 270.388 249.109 268.982C247.703 267.575 247 266.169 247 264.06C247 263.357 247 261.95 247.703 261.247C248.406 260.544 248.406 259.841 249.109 259.138C249.813 258.435 250.516 257.732 251.219 257.732C254.031 256.325 256.844 257.028 258.953 259.138C259.656 259.841 260.359 260.544 260.359 261.247C261.062 261.95 261.062 263.357 261.062 264.06C261.062 266.169 260.359 267.575 258.953 268.982C257.547 270.388 256.141 271.091 254.031 271.091Z" fill="white" />
        <path d="M251.219 257.732V264.732H252.871L254.349 263.993L251.219 257.732ZM260.359 261.247H253.359V264.147L255.41 266.197L260.359 261.247ZM254.031 264.091C253.894 264.091 253.864 264.08 253.911 264.089C253.933 264.093 253.969 264.101 254.013 264.115C254.058 264.129 254.104 264.147 254.15 264.167C254.195 264.187 254.232 264.207 254.258 264.222C254.285 264.238 254.296 264.246 254.292 264.243C254.288 264.24 254.266 264.224 254.227 264.19C254.188 264.156 254.132 264.105 254.059 264.032L244.16 273.931C245.276 275.048 246.67 276.163 248.464 276.96C250.287 277.771 252.16 278.091 254.031 278.091V264.091ZM254.059 264.032C253.986 263.959 253.935 263.903 253.901 263.864C253.867 263.825 253.851 263.803 253.848 263.799C253.845 263.795 253.853 263.806 253.869 263.833C253.884 263.859 253.904 263.896 253.924 263.941C253.944 263.987 253.962 264.033 253.976 264.078C253.99 264.122 253.998 264.158 254.002 264.18C254.011 264.227 254 264.197 254 264.06H240C240 265.931 240.32 267.804 241.131 269.627C241.928 271.42 243.043 272.815 244.16 273.931L254.059 264.032ZM254 264.06C254 263.668 254.012 263.685 253.993 263.804C253.979 263.888 253.929 264.159 253.775 264.535C253.622 264.91 253.298 265.552 252.653 266.197L242.753 256.297C240.85 258.201 240.352 260.49 240.183 261.503C239.988 262.676 240 263.749 240 264.06H254ZM252.653 266.197C253.887 264.962 254.49 263.677 254.667 263.323C254.842 262.974 254.591 263.556 254.059 264.088L244.16 254.188C242.925 255.423 242.322 256.708 242.145 257.062C241.971 257.411 242.222 256.829 242.753 256.297L252.653 266.197ZM254.059 264.088C254.25 263.897 254.345 263.802 254.424 263.728C254.501 263.657 254.471 263.691 254.364 263.771C254.265 263.845 253.968 264.059 253.497 264.266C253.01 264.479 252.225 264.732 251.219 264.732V250.732C248.583 250.732 246.718 252.006 245.964 252.571C245.137 253.192 244.42 253.928 244.16 254.188L254.059 264.088ZM254.349 263.993C254.421 263.957 254.404 263.977 254.307 263.991C254.208 264.005 254.09 264.003 253.977 263.98C253.867 263.959 253.812 263.928 253.813 263.929C253.818 263.931 253.887 263.971 254.003 264.088L263.903 254.188C259.968 250.253 253.962 248.534 248.088 251.471L254.349 263.993ZM254.003 264.088C254.194 264.279 254.289 264.374 254.363 264.453C254.434 264.529 254.4 264.499 254.32 264.393C254.246 264.294 254.032 263.997 253.825 263.526C253.612 263.038 253.359 262.253 253.359 261.247H267.359C267.359 258.612 266.085 256.746 265.52 255.993C264.899 255.165 264.163 254.448 263.903 254.188L254.003 264.088ZM255.41 266.197C254.765 265.552 254.441 264.91 254.287 264.535C254.133 264.159 254.084 263.888 254.07 263.804C254.05 263.685 254.062 263.668 254.062 264.06H268.062C268.062 263.749 268.075 262.676 267.879 261.503C267.711 260.49 267.212 258.201 265.309 256.297L255.41 266.197ZM254.062 264.06C254.062 264.197 254.051 264.227 254.06 264.18C254.065 264.158 254.073 264.122 254.087 264.078C254.101 264.033 254.118 263.987 254.138 263.941C254.159 263.896 254.178 263.859 254.194 263.833C254.209 263.806 254.218 263.795 254.215 263.799C254.212 263.803 254.196 263.825 254.162 263.864C254.128 263.903 254.076 263.959 254.003 264.032L263.903 273.931C265.019 272.815 266.135 271.42 266.932 269.627C267.742 267.804 268.062 265.931 268.062 264.06H254.062ZM254.003 264.032C253.93 264.105 253.875 264.156 253.835 264.19C253.796 264.224 253.775 264.24 253.77 264.243C253.766 264.246 253.778 264.238 253.804 264.222C253.831 264.207 253.868 264.187 253.913 264.167C253.958 264.147 254.005 264.129 254.049 264.115C254.094 264.101 254.129 264.093 254.152 264.089C254.198 264.08 254.169 264.091 254.031 264.091V278.091C255.903 278.091 257.775 277.771 259.599 276.96C261.392 276.163 262.787 275.048 263.903 273.931L254.003 264.032Z" fill="white" mask="url(#path-11-inside-2_1_5)" />
    </g>
    <defs>
        <filter id="filter0_d_1_5" x="202" y="208" width="233" height="233" filterUnits="userSpaceOnUse" color-interpolation-filters="sRGB">
            <feFlood flood-opacity="0" result="BackgroundImageFix" />
            <feColorMatrix in="SourceAlpha" type="matrix" values="0 0 0 0 0 0 0 0 0 0 0 0 0 0 0 0 0 0 127 0" result="hardAlpha" />
            <feOffset dy="4" />
            <feGaussianBlur stdDeviation="2" />
            <feComposite in2="hardAlpha" operator="out" />
            <feColorMatrix type="matrix" values="0 0 0 0 0 0 0 0 0 0 0 0 0 0 0 0 0 0 0.25 0" />
            <feBlend mode="normal" in2="BackgroundImageFix" result="effect1_dropShadow_1_5" />
            <feBlend mode="normal" in="SourceGraphic" in2="effect1_dropShadow_1_5" result="shape" />
        </filter>
    </defs>
</svg>