<svg width="638" height="642" viewBox="0 0 638 642" fill="none" xmlns="http://www.w3.org/2000/svg">
<rect width="638" height="642" fill="white"/>
<ellipse cx="319" cy="321" rx="146" ry="142" fill="#B90E0A"/>
<path fill-rule="evenodd" clip-rule="evenodd" d="M249.656 294.406C249.656 293.854 250.104 293.406 250.656 293.406H386.344C386.896 293.406 387.344 293.854 387.344 294.406C387.344 294.959 386.896 295.406 386.344 295.406H250.656C250.104 295.406 249.656 294.959 249.656 294.406Z" fill="white" stroke="white" stroke-width="3" stroke-miterlimit="10" stroke-linecap="round" stroke-linejoin="round"/>
<path d="M268.939 276.158L268.939 276.158L269.159 275.937C269.272 275.893 269.38 275.841 269.482 275.78C269.604 275.707 269.71 275.625 269.793 275.553H270.065L270.504 275.114C270.535 275.083 270.562 275.056 270.587 275.031H270.588H270.591H270.595H270.598H270.602H270.605H270.608H270.612H270.615H270.619H270.622H270.626H270.629H270.633H270.636H270.64H270.644H270.647H270.651H270.654H270.658H270.662H270.665H270.669H270.672H270.676H270.68H270.683H270.687H270.691H270.694H270.698H270.702H270.706H270.709H270.713H270.717H270.721H270.724H270.728H270.732H270.736H270.74H270.743H270.747H270.751H270.755H270.759H270.763H270.766H270.77H270.774H270.778H270.782H270.786H270.79H270.794H270.798H270.801H270.805H270.809H270.813H270.817H270.821H270.825H270.829H270.833H270.837H270.841H270.845H270.849H270.853H270.857H270.861H270.865H270.869H270.874H270.878H270.882H270.886H270.89H270.894H270.898H270.902H270.906H270.91H270.915H270.919H270.923H270.927H270.931H270.935H270.94H270.944H270.948H270.952H270.956H270.96H270.965H270.969H270.973H270.977H270.982H270.986H270.99H270.994H270.999H271.003H271.007H271.011H271.016H271.02H271.024H271.028H271.033H271.037H271.041H271.046H271.05H271.054H271.059H271.063H271.067H271.072H271.076H271.08H271.085H271.089H271.093H271.098H271.102H271.107H271.111H271.115H271.12H271.124H271.129H271.133H271.137H271.142H271.146H271.151H271.155H271.159H271.164H271.168H271.173H271.177H271.182H271.186H271.191H271.195H271.199H271.204H271.208H271.213H271.217H271.222H271.226H271.231H271.235H271.24H271.244H271.249H271.253H271.258H271.262H271.267H271.271H271.276H271.28H271.285H271.289H271.294H271.298H271.303H271.307H271.312H271.316H271.321H271.326H271.33H271.335H271.339H271.344H271.348H271.353H271.357H271.362H271.366H271.371H271.376H271.38H271.385H271.389H271.394H271.398H271.403H271.408H271.412H271.417H271.421H271.426H271.43H271.435H271.44H271.444H271.449H271.453H271.458H271.462H271.467H271.472H271.476H271.481H271.485H271.49H271.495H271.499H271.504H271.508H271.513H271.517H271.522H271.527H271.531H271.536H271.54H271.545H271.55H271.554H271.559H271.563H271.568H271.573H271.577H271.582H271.586H271.591H271.595H271.6H271.605H271.609H271.614H271.618H271.623H271.628H271.632H271.637H271.641H271.646H271.65H271.655H271.66H271.664H271.669H271.673H271.678H271.682H271.687H271.691H271.696H271.701H271.705H271.71H271.714H271.719H271.723H271.728H271.732H271.737H271.741H271.746H271.751H271.755H271.76H271.764H271.769H271.773H271.778H271.782H271.787H271.791H271.796H271.8H271.805H271.809H271.814H271.818H271.823H271.827H271.832H271.836H271.841H271.845H271.85H271.854H271.859H271.863H271.868H271.872H271.876H271.881H271.885H271.89H271.894H271.899H271.903H271.908H271.912H271.916H271.921H271.925H271.93H271.934H271.938H271.943H271.947H271.952H271.956H271.96H271.965H271.969H271.973H271.978H271.982H271.987H271.991H271.995H272H272.004H272.008H272.013H272.017H272.021H272.025H272.03H272.034H272.038H272.043H272.047H272.051H272.055H272.06H272.064H272.068H272.072H272.077H272.081H272.085H272.089H272.094H272.098H272.102H272.106H272.11H272.115H272.119H272.123H272.127H272.131H272.135H272.14H272.144H272.148H272.152H272.156H272.16H272.164H272.169H272.173H272.177H272.181H272.185H272.189H272.193H272.197H272.201H272.205H272.209H272.213H272.217H272.221H272.225H272.229H272.233H272.237H272.241H272.245H272.249H272.253H272.257H272.261H272.265H272.269H272.273H272.277H272.281H272.284H272.288H272.292H272.296H272.3H272.304H272.308H272.312H272.315H272.319H272.323H272.327H272.331H272.334H272.338H272.342H272.346H272.349H272.353H272.357H272.361H272.364H272.368H272.372H272.375H272.379H272.383H272.386H272.39H272.394H272.397H272.401H272.405H272.408H272.412H272.415H272.419H272.422H272.426H272.43H272.433H272.437H272.44H272.444H272.447H272.451H272.454H272.458H272.461H272.464H272.468H272.471H272.475H272.475C272.5 275.056 272.528 275.083 272.558 275.114L272.997 275.553H273.269C273.353 275.625 273.459 275.707 273.581 275.78C273.683 275.841 273.79 275.893 273.903 275.937L274.124 276.158L274.246 276.035C274.246 276.035 274.246 276.035 274.246 276.035L274.124 276.158C274.404 276.438 274.583 276.621 274.702 276.78C274.712 276.793 274.721 276.805 274.728 276.816V277.284L275.137 277.693C275.138 277.696 275.14 277.699 275.142 277.703C275.161 277.75 275.185 277.831 275.205 277.953C275.247 278.206 275.25 278.48 275.25 278.75C275.25 279.02 275.247 279.294 275.205 279.547C275.185 279.669 275.161 279.75 275.142 279.797C275.14 279.801 275.138 279.804 275.137 279.807L274.728 280.216V280.684C274.721 280.695 274.712 280.707 274.702 280.72C274.583 280.879 274.404 281.062 274.124 281.342C273.69 281.776 273.317 282.041 272.944 282.207C272.578 282.369 272.139 282.469 271.531 282.469C270.923 282.469 270.484 282.369 270.118 282.207C269.746 282.041 269.372 281.776 268.939 281.342C268.505 280.909 268.24 280.535 268.075 280.163C267.912 279.797 267.812 279.358 267.812 278.75C267.812 278.142 267.912 277.703 268.075 277.337C268.24 276.965 268.505 276.591 268.939 276.158ZM275.129 279.823C275.129 279.823 275.129 279.823 275.13 279.822L275.129 279.823Z" fill="white" stroke="white" stroke-width="3"/>
<mask id="path-4-inside-1_1_5" fill="white">
<path d="M287.188 283.969C285.622 283.969 284.578 283.447 283.534 282.403C282.491 281.359 281.969 280.316 281.969 278.75C281.969 278.228 281.969 277.184 282.491 276.662C283.013 276.141 283.013 275.619 283.534 275.097C284.056 274.575 284.578 274.053 285.1 274.053C287.188 273.009 289.275 273.531 290.841 275.097C291.362 275.619 291.884 276.141 291.884 276.662C292.406 277.184 292.406 278.228 292.406 278.75C292.406 280.316 291.884 281.359 290.841 282.403C289.797 283.447 288.753 283.969 287.188 283.969Z"/>
</mask>
<path d="M287.188 283.969C285.622 283.969 284.578 283.447 283.534 282.403C282.491 281.359 281.969 280.316 281.969 278.75C281.969 278.228 281.969 277.184 282.491 276.662C283.013 276.141 283.013 275.619 283.534 275.097C284.056 274.575 284.578 274.053 285.1 274.053C287.188 273.009 289.275 273.531 290.841 275.097C291.362 275.619 291.884 276.141 291.884 276.662C292.406 277.184 292.406 278.228 292.406 278.75C292.406 280.316 291.884 281.359 290.841 282.403C289.797 283.447 288.753 283.969 287.188 283.969Z" fill="white"/>
<path d="M285.1 274.053V277.053H285.808L286.442 276.736L285.1 274.053ZM291.884 276.662H288.884V277.905L289.763 278.784L291.884 276.662ZM287.188 280.969C286.755 280.969 286.528 280.9 286.384 280.836C286.226 280.766 286 280.627 285.656 280.282L281.413 284.524C282.112 285.223 282.93 285.867 283.947 286.319C284.976 286.776 286.055 286.969 287.188 286.969V280.969ZM285.656 280.282C285.311 279.937 285.172 279.711 285.102 279.554C285.037 279.409 284.969 279.183 284.969 278.75H278.969C278.969 279.883 279.161 280.961 279.619 281.991C280.071 283.007 280.714 283.825 281.413 284.524L285.656 280.282ZM284.969 278.75C284.969 278.617 284.969 278.516 284.974 278.413C284.978 278.311 284.986 278.241 284.993 278.199C285.001 278.152 285 278.186 284.966 278.271C284.931 278.356 284.833 278.563 284.612 278.784L280.369 274.541C279.443 275.467 279.175 276.614 279.075 277.213C278.963 277.881 278.969 278.506 278.969 278.75H284.969ZM284.612 278.784C285.251 278.144 285.565 277.483 285.696 277.221C285.826 276.962 285.773 277.101 285.656 277.218L281.413 272.976C280.774 273.615 280.46 274.276 280.329 274.538C280.199 274.798 280.252 274.659 280.369 274.541L284.612 278.784ZM285.656 277.218C285.793 277.081 285.889 276.986 285.978 276.902C286.065 276.82 286.108 276.786 286.117 276.779C286.13 276.77 286.058 276.827 285.911 276.891C285.757 276.959 285.476 277.053 285.1 277.053V271.053C283.86 271.053 282.95 271.654 282.517 271.979C282.052 272.328 281.635 272.754 281.413 272.976L285.656 277.218ZM286.442 276.736C287.217 276.349 287.936 276.435 288.719 277.218L292.962 272.976C290.614 270.627 287.158 269.67 283.758 271.37L286.442 276.736ZM288.719 277.218C288.856 277.355 288.952 277.451 289.035 277.54C289.118 277.628 289.151 277.67 289.158 277.68C289.168 277.693 289.11 277.62 289.046 277.474C288.979 277.32 288.884 277.038 288.884 276.662H294.884C294.884 275.423 294.283 274.513 293.958 274.08C293.61 273.615 293.184 273.197 292.962 272.976L288.719 277.218ZM289.763 278.784C289.542 278.563 289.444 278.356 289.409 278.271C289.375 278.186 289.374 278.152 289.382 278.199C289.389 278.241 289.397 278.311 289.401 278.413C289.406 278.516 289.406 278.617 289.406 278.75H295.406C295.406 278.506 295.412 277.881 295.3 277.213C295.2 276.614 294.932 275.467 294.006 274.541L289.763 278.784ZM289.406 278.75C289.406 279.183 289.338 279.409 289.273 279.554C289.203 279.711 289.064 279.937 288.719 280.282L292.962 284.524C293.661 283.825 294.304 283.007 294.756 281.991C295.214 280.961 295.406 279.883 295.406 278.75H289.406ZM288.719 280.282C288.375 280.627 288.149 280.766 287.991 280.836C287.847 280.9 287.62 280.969 287.188 280.969V286.969C288.32 286.969 289.399 286.776 290.428 286.319C291.445 285.867 292.263 285.223 292.962 284.524L288.719 280.282Z" fill="white" mask="url(#path-4-inside-1_1_5)"/>
<path d="M299.673 280.72C299.663 280.707 299.654 280.695 299.647 280.684V280.216L299.238 279.807C299.237 279.804 299.235 279.801 299.233 279.797C299.214 279.75 299.19 279.669 299.17 279.547C299.128 279.294 299.125 279.02 299.125 278.75C299.125 278.48 299.128 278.206 299.17 277.953C299.19 277.831 299.214 277.75 299.233 277.703C299.235 277.699 299.237 277.695 299.238 277.692C299.653 277.267 299.867 276.837 299.997 276.578C300.001 276.569 300.006 276.56 300.01 276.551C300.141 276.29 300.18 276.229 300.251 276.158C301.753 274.656 303.935 274.656 305.436 276.158C305.717 276.438 305.895 276.621 306.014 276.78C306.025 276.793 306.033 276.805 306.041 276.816V277.284L306.449 277.693C306.451 277.696 306.452 277.699 306.454 277.703C306.473 277.75 306.497 277.831 306.518 277.953C306.56 278.206 306.562 278.48 306.562 278.75C306.562 279.02 306.56 279.294 306.518 279.547C306.497 279.669 306.473 279.75 306.454 279.797C306.452 279.801 306.451 279.805 306.449 279.808C306.035 280.233 305.82 280.663 305.691 280.922C305.686 280.931 305.682 280.94 305.677 280.949C305.547 281.21 305.508 281.271 305.436 281.342C305.003 281.776 304.629 282.041 304.257 282.207C303.891 282.369 303.452 282.469 302.844 282.469C302.574 282.469 302.299 282.466 302.047 282.424C301.925 282.404 301.844 282.38 301.797 282.36C301.793 282.358 301.789 282.357 301.786 282.355C301.361 281.941 300.931 281.726 300.672 281.597C300.662 281.592 300.653 281.588 300.644 281.583C300.384 281.453 300.323 281.414 300.251 281.342C299.971 281.062 299.792 280.879 299.673 280.72ZM299.246 277.677C299.246 277.677 299.246 277.677 299.245 277.678L299.246 277.677ZM306.442 279.823C306.442 279.823 306.442 279.823 306.442 279.822L306.442 279.823ZM301.771 282.348C301.771 282.348 301.771 282.348 301.772 282.349L301.771 282.348Z" fill="white" stroke="white" stroke-width="3"/>
<path fill-rule="evenodd" clip-rule="evenodd" d="M261.094 264.094C255.905 264.094 251.656 268.343 251.656 273.531V367.469C251.656 372.657 255.905 376.906 261.094 376.906H308.062C308.615 376.906 309.062 377.354 309.062 377.906C309.062 378.459 308.615 378.906 308.062 378.906H261.094C254.801 378.906 249.656 373.762 249.656 367.469V273.531C249.656 267.238 254.801 262.094 261.094 262.094H375.906C382.199 262.094 387.344 267.238 387.344 273.531V367.469C387.344 373.762 382.199 378.906 375.906 378.906H328.938C328.385 378.906 327.938 378.459 327.938 377.906C327.938 377.354 328.385 376.906 328.938 376.906H375.906C381.095 376.906 385.344 372.657 385.344 367.469V273.531C385.344 268.343 381.095 264.094 375.906 264.094H261.094Z" fill="white" stroke="white" stroke-width="3" stroke-miterlimit="10" stroke-linecap="round" stroke-linejoin="round"/>
<path fill-rule="evenodd" clip-rule="evenodd" d="M281.236 325.038C288.43 317.291 300.566 317.33 308.248 325.012L318.5 335.264L328.739 325.025C335.935 317.291 348.061 317.335 355.738 325.012C355.747 325.02 355.756 325.029 355.764 325.038C362.905 332.728 362.905 344.803 355.764 352.493C355.756 352.502 355.747 352.511 355.738 352.52L344.786 363.472L344.779 363.479L319.214 389.566C319.026 389.757 318.769 389.866 318.5 389.866C318.231 389.866 317.974 389.757 317.786 389.566L292.221 363.479L292.214 363.472L281.262 352.52C273.533 344.791 274.127 332.694 281.236 325.038ZM306.834 326.426C299.903 319.495 289.076 319.534 282.702 326.399C276.242 333.356 275.792 344.221 282.676 351.105L293.642 362.072L318.5 387.437L343.358 362.072L343.365 362.065L354.311 351.119C360.722 344.2 360.722 333.331 354.311 326.413C347.38 319.495 336.563 319.538 330.192 326.399C330.188 326.404 330.183 326.409 330.178 326.414C330.174 326.418 330.17 326.422 330.166 326.426L319.207 337.385C318.817 337.776 318.183 337.776 317.793 337.385L306.834 326.426Z" fill="white" stroke="white" stroke-width="3" stroke-miterlimit="10" stroke-linecap="round" stroke-linejoin="round"/>
</svg>
