<svg viewBox="93.72580645161293 144.14999999999998 468.62903225806446 504.5249999999999" fill="none" xmlns="http://www.w3.org/2000/svg" xmlns:xlink="http://www.w3.org/1999/xlink" overflow="visible" width="468.62903225806446px" height="504.5249999999999px"><g id="Master/Character/Bust"><g id="Frame" transform="translate(71.5 134.5) scale(1 1)"><g id="Frame/Circle"><circle id="Filll" cx="254" cy="253" r="228" fill="white"/><path id="Stroke" fill-rule="evenodd" clip-rule="evenodd" d="M254 483.5C126.698 483.5 23.5 380.302 23.5 253C23.5 125.698 126.698 22.5 254 22.5C381.302 22.5 484.5 125.698 484.5 253C484.5 380.302 381.302 483.5 254 483.5ZM254 478.5C378.54 478.5 479.5 377.54 479.5 253C479.5 128.46 378.54 27.5 254 27.5C129.46 27.5 28.5 128.46 28.5 253C28.5 377.54 129.46 478.5 254 478.5Z" fill="black"/></g></g><g id="Head" transform="translate(195 205) scale(1 1)"><g id="Head/Straight Long"><path id="Shape" fill-rule="evenodd" clip-rule="evenodd" d="M145.705 64.5129C161.186 68.8775 172.55 77.5626 179.799 90.5684L167.19 94.0616C174.366 102.78 178.479 112.377 179.529 122.853L181.502 129.868L179.799 133.514L189.772 147.132L175.561 148.413C174.536 150.306 173.308 152.096 171.878 153.781L186.321 195.349L175.323 201.797L152.021 202.536L137.211 201.797L133.214 184.981L134.65 200.491L133.898 200.491C133.11 208.111 127.86 214 121.5 214C115.193 214 109.978 208.209 109.123 200.681L109.251 200.491C99.2098 215.542 87.0677 223.068 72.825 223.068C58.5823 223.068 47.7462 221.608 40.3166 218.687C38.9706 179.021 42.7555 147.365 51.6712 123.72L52.2509 122.19C60.9193 99.432 68.3862 85.0776 74.6515 79.127L87.9059 68.5459C110.959 61.4927 130.225 60.1484 145.705 64.5129ZM104.442 151L108.217 189.85L108.052 185.35C107.388 168.347 106.456 157.139 105.255 151.725L104.442 151Z" fill="white"/><path id="Stroke" fill-rule="evenodd" clip-rule="evenodd" d="M63.0836 176.323C63.1617 175.924 63.2408 175.521 63.2983 175.117C63.7033 172.265 59.3513 171.612 58.8813 174.455C58.8381 174.717 58.8006 174.982 58.7633 175.246C58.754 175.312 58.7447 175.378 58.7353 175.443C58.0964 179.88 57.3341 184.301 56.5719 188.722C54.7723 199.158 52.9726 209.595 52.7963 220.247C52.7937 220.416 52.7666 220.613 52.7363 220.835C52.6847 221.212 52.6236 221.659 52.6583 222.145C52.2326 222.036 51.7773 221.92 51.306 221.8C49.6017 221.366 47.6888 220.878 46.2153 220.447C42.8193 219.453 41.0503 217.253 41.2993 213.602C41.3393 213.019 41.3239 212.432 41.3085 211.844C41.3 211.521 41.2916 211.198 41.2923 210.875C41.3523 184.254 44.2193 166.904 49.3423 140.812C52.6563 123.934 58.3693 107.885 67.6323 93.2654C70.8513 88.1844 74.2983 83.2654 80.1453 80.7384C81.1073 80.3224 81.9933 79.5354 82.6863 78.7244C87.9363 72.5824 94.9953 69.4514 102.601 68.4044C111.011 67.2474 119.615 66.9174 128.113 67.1164C141.817 67.4364 154.571 71.4434 166.133 78.9614C169.917 81.4224 173.655 85.9548 176.727 89.9818C177.756 91.7693 174.365 92.9124 173.704 93.0184C171.957 93.2995 170.209 93.5805 168.461 93.8614C168.566 93.7803 167.981 92.9751 167.615 92.535C167.211 92.0505 167.071 92.0086 168.407 93.8627C168.348 93.845 168.247 93.782 168.092 93.66C167.213 92.97 162.735 92.652 162.253 93.66C162.17 93.8328 162.099 93.9726 162.041 94.0873C161.892 94.3828 161.827 94.5117 161.858 94.6086C161.883 94.6836 161.966 94.7395 162.112 94.8386C162.129 94.8494 162.145 94.8608 162.163 94.8728C152.561 96.4136 142.959 97.9493 133.355 99.4764C129.889 100.028 126.42 100.565 122.952 101.102C116.01 102.176 109.069 103.251 102.147 104.438C97.0363 105.314 97.0273 105.517 97.0213 110.833C97.0179 113.728 97.0277 115.33 97.0646 117.108C96.9363 117.069 96.8002 117.045 96.6576 117.04C96.4696 117.033 96.2966 117.057 96.1506 117.112C95.7978 117.245 95.4444 117.377 95.0909 117.509C89.1885 119.717 83.2586 121.935 79.5016 127.621C74.7956 134.744 76.9336 143.818 84.1996 148.301C85.2641 148.958 86.3617 149.501 87.4881 149.941C87.321 150.102 87.1648 150.275 87.0228 150.451C84.1848 153.98 81.3448 157.528 78.8138 161.277C77.6178 163.047 78.2348 165.037 80.5998 165.393C84.4534 165.973 88.3201 166.481 92.1938 166.922C92.1639 167.297 92.1611 167.676 92.1763 168.042C92.2537 169.89 92.3031 171.741 92.3524 173.592C92.4776 178.288 92.6027 182.985 93.1873 187.623C93.9274 193.502 95.0196 199.337 96.1278 205.257C96.6067 207.815 97.0885 210.39 97.5463 212.99C92.0503 217.129 86.1263 220.351 79.0293 221.439C78.5031 219.393 78.5133 217.331 78.5233 215.296C78.5265 214.659 78.5296 214.024 78.5163 213.393C78.4573 210.573 74.2123 210.529 74.1453 213.349C74.1169 214.534 74.1955 215.726 74.2732 216.905C74.3956 218.764 74.5161 220.592 74.2133 222.31C73.3172 222.387 72.4011 222.481 71.4692 222.576C66.9091 223.042 61.9697 223.546 57.1323 222.348C57.2473 220.693 57.3327 219.057 57.4174 217.436C57.6022 213.899 57.783 210.437 58.2583 207.016C59.0395 201.398 59.9516 195.798 60.8637 190.198C61.5581 185.934 62.2526 181.67 62.8893 177.398C62.9418 177.047 63.0123 176.687 63.0836 176.323ZM96.2145 167.356C96.2934 168.227 96.3155 169.111 96.3373 169.984L96.3413 170.142C96.6243 181.436 97.8433 192.619 100.323 203.649C100.529 204.568 100.798 205.471 101.134 206.606C101.314 207.212 101.514 207.885 101.734 208.66C102.241 208.121 102.708 207.627 103.147 207.163C104.054 206.204 104.842 205.371 105.615 204.525C105.834 204.287 106.048 204.014 106.264 203.739C106.702 203.181 107.151 202.61 107.673 202.274C107.308 202.063 107.004 201.726 106.841 201.262C106.398 200.002 106.021 198.837 105.919 197.648C105.046 187.428 104.264 177.2 103.483 166.973L103.483 166.971L103.482 166.953C103.214 163.445 102.946 159.938 102.675 156.432C102.604 155.523 102.524 154.616 102.43 153.542L102.429 153.54L102.429 153.539C102.376 152.931 102.317 152.27 102.254 151.526C101.579 151.526 100.921 151.527 100.275 151.529C99.8146 151.53 99.36 151.531 98.9093 151.531C99.6553 155.71 100.358 159.898 101.012 164.092C101.351 166.266 100.052 167.732 97.8538 167.519C97.3073 167.466 96.7608 167.412 96.2145 167.356ZM109.639 202.278C109.732 202.332 109.826 202.392 109.923 202.461C111.78 203.783 110.693 205.202 109.715 206.48C109.553 206.691 109.395 206.898 109.253 207.099C103.673 215.041 96.2513 220.746 87.1433 223.86C73.5593 228.506 59.6873 228.847 45.8343 224.968C38.8993 223.026 37.0243 220.462 37.0023 213.205C36.9023 181.273 40.1003 158.695 47.9763 127.706C51.4873 113.892 57.1123 100.882 65.1103 89.0104C68.3473 84.2054 71.7603 79.4824 77.4783 77.2204C78.1473 76.9554 78.7453 76.5444 79.2103 75.9954C86.5703 67.3144 96.6443 64.1794 107.3 63.0424C119.801 61.7094 132.371 61.8784 144.693 64.9674C157.239 68.1124 168.641 73.4444 177.756 82.9404C177.895 83.0851 178.035 83.2288 178.176 83.3725C178.671 83.8799 179.167 84.388 179.606 84.9404C182.887 89.0644 181.896 96.1504 176.727 97.0454C174.956 97.3523 173.184 97.6552 171.411 97.9548C174.708 102.542 175.675 104.58 177.525 108.485L177.526 108.486C178.002 109.49 178.536 110.617 179.183 111.941C182.666 119.072 183.719 127.156 181.95 135.076C182.554 135.092 183.461 135.394 183.754 135.778C186.498 139.367 189.226 142.986 191.657 146.788C193.032 148.938 192.228 150.846 189.75 151.266C185.31 152.021 180.802 152.461 176.304 152.733C176.085 152.747 175.86 152.675 175.633 152.548C175.069 152.236 174.725 151.703 174.608 151.125C174.149 151.884 173.687 152.625 173.214 153.347C173.99 153.602 174.418 154.35 174.598 155.395C176.398 165.837 180.143 175.642 183.889 185.448L183.889 185.448C185.059 188.51 186.229 191.572 187.339 194.654C188.82 198.763 188.203 200.041 184.18 201.947C177.73 205.002 170.94 207.244 163.81 207.358C157.98 207.453 152.14 207.077 146.304 206.701H146.304H146.303H146.303H146.303H146.303H146.303L146.3 206.701C144.54 206.588 142.78 206.474 141.021 206.374C139.666 206.297 138.312 205.843 137.002 205.403L136.805 205.337C135.24 204.814 133.349 204.074 134.22 202.051C134.328 201.801 134.649 201.603 135.075 201.453C134.137 200.684 133.791 198.746 133.465 196.922L133.416 196.646C133.017 194.429 132.855 193.208 132.726 192.232L132.726 192.232C132.543 190.859 132.426 189.973 131.802 187.476L131.677 186.975L131.509 186.3L131.506 186.286L131.505 186.285C130.158 180.862 130.129 180.744 127.47 179.075C127.042 178.887 126.061 178.197 125.046 177.484C124.5 177.101 123.945 176.711 123.461 176.388C122.816 175.959 122.228 175.455 121.739 174.854C121.33 174.351 121.208 174.027 121.259 173.13C121.379 171.006 123.263 170.858 124.984 170.722C125.338 170.695 125.685 170.667 126.008 170.623C127.187 170.464 128.376 170.373 129.565 170.283L129.565 170.283L129.565 170.283L129.565 170.283L129.565 170.283L129.566 170.283L129.566 170.283C130.732 170.194 131.898 170.105 133.056 169.951C150.001 167.693 161.261 160.475 171.493 146.526C179.332 135.84 179.799 123.468 174.744 113.148C174.397 112.439 174.076 111.773 173.77 111.14L173.768 111.135C171.621 106.683 170.241 103.821 165.984 98.8614C157.919 100.194 149.843 101.469 141.767 102.734C135.252 103.755 128.731 104.739 122.209 105.723C116.878 106.527 111.547 107.332 106.218 108.156C105.141 108.323 104.084 108.619 103.083 108.899C102.632 109.025 102.193 109.148 101.769 109.254C101.769 111.118 101.777 112.536 101.783 113.776C101.797 116.458 101.806 118.305 101.728 122.021C101.721 122.37 101.744 122.756 101.768 123.154C101.869 124.863 101.985 126.801 99.8003 126.964C97.0614 127.168 97.129 125.025 97.1882 123.145C97.1997 122.781 97.2108 122.427 97.2013 122.101L97.1941 121.859C97.1839 121.518 97.1743 121.195 97.1653 120.887C96.4545 121.346 95.6571 121.684 94.8572 122.023L94.8572 122.023C94.2829 122.267 93.7073 122.511 93.1616 122.801C92.465 123.17 91.7505 123.52 91.0353 123.87L91.0353 123.87L91.0352 123.87C89.1304 124.803 87.2199 125.739 85.6256 127.052C78.4146 132.989 79.8736 142.203 88.5276 145.634C90.1257 146.267 91.8646 146.589 93.6123 146.833C93.5186 145.53 93.5412 144.227 93.7538 142.924C95.9068 142.005 97.2448 142.562 97.5688 144.268C97.7556 145.249 97.9402 146.23 98.1224 147.211C98.6932 147.192 99.2662 147.151 99.8378 147.111L99.8382 147.111L99.8386 147.111L99.839 147.111L99.8395 147.111C100.171 147.087 100.501 147.064 100.831 147.045C106.199 146.732 106.592 147.113 106.837 152.653C106.871 153.428 106.904 154.204 106.937 154.98C107.114 159.098 107.29 163.217 107.621 167.323C108.451 177.626 109.387 187.921 110.341 198.213C110.363 198.45 110.393 198.688 110.424 198.926L110.424 198.926C110.521 199.666 110.617 200.411 110.449 201.151C110.329 201.675 110.025 202.051 109.639 202.278ZM168.412 93.8692C168.411 93.867 168.409 93.8649 168.407 93.8627C168.414 93.8647 168.42 93.8661 168.426 93.867C168.421 93.8677 168.417 93.8685 168.412 93.8692ZM119.667 73.3997C128.223 74.2507 136.618 77.5257 144.853 81.2417C145.012 81.3137 145.15 81.4337 145.274 81.5867C146.331 82.9047 145.312 84.9177 143.625 85.0127C143.464 85.0227 143.305 85.0147 143.151 84.9867C141.891 84.7564 140.682 84.2427 139.474 83.7294L139.474 83.7294L139.474 83.7294C139.009 83.5317 138.544 83.334 138.076 83.1527C131.677 80.6707 125.277 78.2007 118.315 77.7877C118.22 77.782 118.12 77.7785 118.018 77.775C117.549 77.7587 117.043 77.741 116.745 77.4977L116.745 77.4974C116.678 77.4415 116.611 77.3856 116.546 77.3277C115.332 76.2457 115.497 74.2007 116.948 73.4667C116.957 73.4627 116.965 73.4587 116.973 73.4547C117.352 73.2667 117.842 73.3014 118.494 73.3477C118.837 73.3721 119.226 73.3997 119.667 73.3997ZM180.817 139.05C180.092 141.13 179.163 143.186 178.024 145.195C177.85 145.502 177.678 145.806 177.508 146.107L177.507 146.108L177.507 146.109L177.507 146.109C177.015 146.979 176.535 147.827 176.059 148.655C176.076 148.651 176.093 148.647 176.11 148.644C178.357 148.2 180.642 147.945 183.234 147.656L183.234 147.655L183.234 147.655C184.288 147.538 185.393 147.414 186.568 147.27C185.946 146.411 185.388 145.649 184.878 144.952L184.878 144.952L184.876 144.95C183.811 143.495 182.951 142.32 182.136 141.115C182.043 140.978 181.948 140.841 181.853 140.702C181.484 140.167 181.106 139.618 180.817 139.05ZM170.424 157.194C168.318 159.777 165.852 162.087 162.605 164.152C156.776 167.859 150.551 170.62 144.001 172.562C144.305 172.935 144.562 173.369 144.706 173.746C144.925 174.318 144.918 174.968 144.911 175.625V175.625V175.625V175.625V175.625V175.626V175.626C144.906 176.081 144.901 176.54 144.971 176.978C146.033 183.579 147.118 190.177 148.221 196.888L148.223 196.899L148.224 196.904L148.225 196.912C148.55 198.891 148.878 200.88 149.206 202.882H161.665C161.48 202.242 161.297 201.622 161.118 201.015L161.118 201.014L161.118 201.013L161.117 201.012C160.73 199.697 160.36 198.442 160.023 197.178C159.847 196.518 159.666 195.859 159.486 195.2C158.853 192.887 158.22 190.574 157.759 188.227C157.686 187.855 157.571 187.449 157.452 187.031C156.941 185.235 156.363 183.202 158.775 182.617C161.201 182.03 161.462 183.889 161.705 185.625C161.781 186.167 161.856 186.698 161.994 187.138C162.752 189.549 163.442 191.982 164.133 194.415L164.133 194.416L164.133 194.416L164.133 194.417L164.133 194.417L164.133 194.417L164.133 194.417C164.629 196.163 165.124 197.91 165.645 199.648C165.812 200.208 166.102 200.731 166.425 201.316C166.586 201.606 166.755 201.912 166.922 202.245C172.75 202.092 177.841 199.951 183.372 197.259C183.171 196.664 182.975 196.081 182.783 195.508L182.774 195.484L182.772 195.478L182.764 195.454C182.327 194.154 181.906 192.902 181.479 191.651C180.538 188.896 179.587 186.144 178.636 183.392C176.215 176.381 173.793 169.37 171.521 162.311C170.993 160.667 170.45 158.931 170.424 157.194ZM140.729 173.459C139.65 173.73 138.563 173.981 137.468 174.211C136.79 174.354 136.117 174.52 135.318 174.718L135.318 174.718C134.898 174.821 134.443 174.933 133.935 175.055C134.21 176.604 134.482 178.134 134.752 179.652C135.415 183.38 136.064 187.031 136.71 190.682C137.089 192.826 137.468 194.971 137.822 197.12C137.853 197.311 137.89 197.509 137.927 197.71C138.153 198.938 138.407 200.311 137.697 201.118C137.75 201.12 137.801 201.123 137.851 201.127C139.284 201.233 140.702 201.555 142.349 201.929L142.351 201.93L142.354 201.93C143.108 202.102 143.91 202.284 144.784 202.461C144.476 200.929 144.172 199.469 143.879 198.058C143.234 194.958 142.638 192.092 142.148 189.207C141.481 185.275 141.009 181.309 140.548 177.346C140.403 176.098 140.311 174.729 140.686 173.575C140.699 173.537 140.713 173.498 140.729 173.459ZM84.1078 161.212C86.7153 161.557 88.885 161.844 90.9793 162.12L95.6068 162.732C95.9862 159.424 95.3021 156.183 94.6247 152.975L94.6245 152.974C94.5164 152.462 94.4086 151.951 94.3052 151.44C93.1482 151.353 92.0099 151.195 90.8938 150.957C90.9011 151.732 90.6498 152.668 90.2808 153.218C89.0944 154.989 87.754 156.656 86.1962 158.593C85.5402 159.409 84.8457 160.273 84.1078 161.212ZM109.062 82.702C110.399 83.397 110.401 85.351 109.045 86.007C108.577 86.234 108.16 86.375 107.746 86.369C105.261 86.329 102.736 86.05 100.328 85.459C99.9882 85.376 99.6872 85.132 99.4042 84.816C98.4782 83.78 98.6572 82.067 99.9162 81.478C100.067 81.408 100.217 81.37 100.363 81.38C101.005 81.422 101.656 81.4334 102.316 81.445C104.513 81.4835 106.794 81.5235 109.062 82.702Z" fill="black"/></g></g><g id="Body" transform="translate(28 319) scale(1 1)"><g id="Body/Bomber"><path id="Fill" fill-rule="evenodd" clip-rule="evenodd" d="M347.422 97.1375C357.676 98.3652 367.911 99.7771 378.123 101.315C387.003 102.653 393.47 107.571 397.572 115.541C405.144 130.254 412.766 144.944 420.149 159.752C428.018 175.536 436.05 191.259 443.238 207.356C449.544 221.478 454.389 236.149 455.649 251.819C456.828 266.488 455.213 280.597 448.127 293.639C441.32 306.168 431.607 315.36 417.013 317.841C408.287 319.325 399.562 318.465 391.264 315.456C382.067 312.121 372.767 308.829 364.061 304.426C344.466 294.517 325.194 283.968 305.83 273.604C300.428 270.714 300.527 270.632 296.218 274.822C282.375 288.278 268.003 301.098 251.294 310.948C241.745 316.576 232.004 321.869 220.987 324.157C212.512 325.917 204.42 324.977 196.734 320.817C188.865 316.559 182.789 310.458 178.011 302.953C170.254 290.767 166.044 277.296 163.749 263.158C159.558 237.329 159.435 211.305 160.713 185.278C161.391 171.469 163.131 157.727 166.871 144.335C166.968 143.984 167.047 143.628 167.128 143.273C170.998 126.285 180.955 115.574 198.118 111.063C213.767 106.951 229.556 103.846 245.529 101.522C247.177 101.283 252.091 100.755 252.039 100.326C251.817 98.4623 251.472 98.5585 251.743 96.5237C251.922 95.1729 254.409 93.7109 255.951 93.1271C261.534 91.0162 273.888 87.4925 272.953 87.4925C278.116 90.6778 284.335 90.8115 289.537 90.0159C295.383 89.1218 300.496 89.1218 306.62 83.2016C312.676 82.4837 318.551 83.7894 324.323 85.4387C326.415 86.0365 327.434 87.7899 327.599 90.0159C327.73 91.7833 328.137 93.4145 327.589 95.6135C334.24 96.1412 341.171 96.3895 347.422 97.1375Z" fill="white"/><path id="Stroke" fill-rule="evenodd" clip-rule="evenodd" d="M364.666 207.597C364.77 208.059 365.297 208.474 367.16 208.488C373.467 208.451 379.666 207.561 385.654 205.399C385.894 205.313 386.161 205.232 386.44 205.147C388.254 204.595 390.549 203.897 388.716 200.729C384.927 201.834 380.659 203.041 376.436 204.236L376.435 204.237L376.43 204.238C372.302 205.406 368.217 206.562 364.666 207.597ZM311.206 133C311.59 133.164 313.082 131.284 313.627 129.999C314.47 128.744 315.455 127.231 316.11 125.884C319.852 118.186 322.538 110.131 323.769 101.638C324.209 98.6005 324.527 95.5304 324.647 92.4652C324.742 90.0219 323.584 88.3206 320.149 88.2305C318.85 94.9467 317.27 102.747 315.688 110.561L315.687 110.568L315.686 110.571C314.102 118.391 312.516 126.225 311.206 133ZM312.636 87.126C311.783 87.126 311.045 87.7338 310.879 88.5729C310.605 89.96 310.342 91.3377 310.081 92.7067L310.08 92.7095L310.08 92.7098C309.292 96.8347 308.518 100.881 307.522 104.871C305.943 111.197 306.091 117.487 307.051 123.819C307.102 124.151 307.224 124.788 307.376 125.577L307.376 125.578C307.706 127.292 308.174 129.727 308.346 131.324C309.08 128.736 310.161 123.635 310.474 122.069C310.797 120.446 311.127 118.813 311.457 117.175L311.458 117.174L311.458 117.172C312.286 113.071 313.12 108.937 313.887 104.829C314.444 101.856 314.969 98.8759 315.44 95.8879C315.671 94.4259 315.889 92.9609 316.092 91.4949C316.165 90.9667 316.283 90.4172 316.399 89.8744L316.399 89.8742C316.562 89.1124 316.722 88.364 316.752 87.7068L312.636 87.126ZM279.919 134.904C281.729 135.69 282.212 135.725 282.439 135.439C280.831 132.974 278.871 130.324 276.87 127.618C273.831 123.507 270.698 119.269 268.555 115.359C266.128 110.931 264.136 106.263 262.141 101.588C261.264 99.5321 260.386 97.4748 259.47 95.4362C254.485 97.395 254.645 97.901 255.75 101.399C255.847 101.706 255.952 102.037 256.061 102.394C259.786 114.588 267.128 124.32 276.512 132.654C277.2 133.265 278.005 133.744 278.81 134.223L278.81 134.223C279.184 134.446 279.557 134.668 279.919 134.904ZM286.01 133.454C281.222 118.607 277.237 107.184 271.587 91.4548C270.232 91.8623 268.751 92.288 267.333 92.6953L267.332 92.6955C266.026 93.0708 264.774 93.4305 263.726 93.7459C267.276 106.587 279.049 125.361 286.01 133.454ZM374.595 211.581C373.304 211.581 372.135 211.599 371.029 211.616H371.029C366.186 211.69 362.564 211.746 355.317 210.192C354.469 210.194 353.409 210.735 352.338 211.282C352.039 211.435 351.74 211.587 351.445 211.729C349.054 213.283 348.087 214.022 347.098 214.777L347.098 214.777L347.098 214.777C346.204 215.46 345.291 216.157 343.29 217.484C348.858 219.021 354.385 220.617 360.002 222.24C365.806 223.917 371.706 225.622 377.849 227.317C376.841 222.446 376.001 218.383 375.136 214.198L374.595 211.581ZM305.89 142.498L299.403 143.775L292.957 145.044C292.957 146.379 292.991 147.722 293.024 149.068V149.068C293.098 152.027 293.173 155 292.891 157.938C292.1 166.218 291.164 174.483 290.228 182.749L290.228 182.752L290.227 182.76C289.774 186.762 289.321 190.764 288.884 194.768C288.678 196.661 288.526 198.559 288.364 200.577L288.363 200.584C288.286 201.545 288.206 202.534 288.118 203.563L288.418 203.523C295.264 202.62 301.196 201.837 304.81 195.772C306.049 193.694 307.988 192.593 310.751 192.774C312.211 192.869 314.854 193.768 314.854 193.768C315.699 192.019 318.8 187.879 319.534 187.051C319.534 187.051 318.4 184.666 317.776 183.112L317.548 182.543C313.013 171.256 309.14 161.616 307.322 149.551C307.238 148.995 307.142 148.433 307.023 147.883C306.812 146.906 306.652 146.087 306.508 145.354C306.301 144.294 306.129 143.415 305.89 142.498ZM328.334 205.584L328.342 205.591C332.19 208.707 336.043 211.827 339.72 214.79C347.652 208.672 355.992 205.715 365.435 203.697C371.149 202.477 376.748 200.687 382.335 198.9C383.487 198.531 384.639 198.163 385.791 197.8C387.098 197.388 388.305 196.665 389.555 195.916L389.648 195.86C390.887 195.119 391.184 193.436 390.257 192.328C388.522 190.25 385.26 190.517 382.141 191.662C378.464 193.012 374.792 194.375 371.121 195.738C368.673 196.646 366.225 197.555 363.776 198.46C363.603 198.524 363.429 198.593 363.256 198.662C361.945 199.184 360.608 199.716 359.297 198.059C359.721 196.323 361.075 195.898 362.415 195.478C362.752 195.372 363.088 195.266 363.408 195.141C365.398 194.359 367.389 193.582 369.381 192.805L369.389 192.802L369.389 192.802C374.489 190.813 379.588 188.823 384.656 186.756C384.814 186.692 384.975 186.629 385.137 186.565L385.137 186.565C386.055 186.204 387.026 185.822 387.76 185.12C388.753 184.17 388.332 182.528 387.014 182.147C384.901 181.537 382.806 181.892 380.805 182.312C375.504 183.426 370.215 184.602 364.927 185.779L364.925 185.779L364.923 185.78C360.135 186.845 355.347 187.911 350.549 188.929C346.837 189.718 343.066 190.316 339.291 190.674C338.307 190.767 336.871 189.859 336.289 188.98C335.932 188.441 336.531 186.827 337.173 186.139C338.429 184.793 339.761 183.517 341.093 182.241L341.093 182.241C342.253 181.13 343.413 180.019 344.524 178.86C345.562 177.777 346.497 176.594 347.528 175.29C347.73 175.035 347.935 174.776 348.145 174.512C348.535 174.022 348.198 173.276 347.572 173.279C337.706 173.33 323.516 184.233 317.141 196.534C320.753 199.445 324.541 202.512 328.334 205.584ZM336.291 105.667C335.742 106.434 335.27 107.091 334.849 107.677L334.844 107.684C334.045 108.797 333.431 109.652 332.822 110.512C331.362 112.572 329.907 114.637 328.452 116.701C324.988 121.617 321.523 126.533 317.986 131.394C317.134 132.564 316.167 133.653 315.202 134.742C313.993 136.103 312.786 137.463 311.809 138.976C311.389 139.625 310.995 140.072 310.705 140.4C310.316 140.841 310.115 141.068 310.295 141.285C311.861 150.874 314.277 162.372 317.733 172.253C318.94 175.704 320.582 178.975 322.514 182.076C322.626 182.255 322.741 182.445 322.859 182.648C324.756 180.922 326.179 179.962 327.874 178.817C328.242 178.569 328.623 178.312 329.024 178.037C332.995 174.106 337.711 171.478 343.032 169.968C344.744 169.483 346.605 169.189 348.369 169.298C351.465 169.492 353.108 171.803 351.816 174.58C350.863 176.627 349.321 178.422 347.807 180.184C347.551 180.482 347.296 180.779 347.045 181.076L346.882 181.269C345.538 182.858 343.595 185.157 341.642 187.068C342.901 187.336 343.854 186.991 344.491 186.76C344.672 186.695 344.828 186.638 344.958 186.608C352.723 184.796 360.473 182.923 368.222 181.042C368.549 180.963 368.87 180.92 369.168 180.88C369.871 180.786 370.447 180.709 370.686 180.201C370.686 180.201 370.688 177.778 370.681 176.783C370.656 173.203 370.641 169.623 370.626 166.043C370.589 157.426 370.552 148.809 370.385 140.194C370.349 138.365 369.615 136.115 368.399 134.819C361.821 127.796 355.164 120.824 348.167 114.228C345.874 112.067 343.207 110.304 340.375 108.433L340.375 108.433C339.043 107.553 337.675 106.648 336.291 105.667ZM270.125 208.883L270.126 208.883C273.425 208.025 276.77 207.156 280.725 206.098C280.866 206.061 281.02 206.021 281.183 205.978L281.183 205.978C282.394 205.662 284.088 205.219 284.214 204.883C284.214 204.883 284.532 202.524 284.711 201.029C285.564 193.898 286.246 186.983 286.928 180.055L286.928 180.054C287.541 173.834 288.155 167.604 288.895 161.2C289.374 157.063 289.518 152.124 289.537 147.943C289.494 146.196 289.501 144.455 289.501 144.455C289.187 144.312 288.834 144.064 288.366 143.735C287.809 143.345 287.089 142.84 286.079 142.262C282.442 140.801 278.88 138.786 275.811 136.346C267.763 129.948 261.516 121.944 256.52 112.951C255.853 111.749 255.121 110.583 254.276 109.235L254.276 109.235C253.85 108.555 253.394 107.829 252.903 107.029C252.276 107.794 251.711 108.469 251.194 109.088L251.193 109.088C250.196 110.281 249.371 111.266 248.6 112.292C239.423 124.508 233.262 139.692 228.363 154.049C228.563 154.813 229.57 156.956 230.744 159.454L230.744 159.454L230.744 159.454C232.246 162.65 234.02 166.425 234.727 168.637C236.4 172.27 237.951 175.624 239.437 178.841L239.438 178.844L239.439 178.846C243.892 188.481 247.772 196.877 252.674 207.813C253.165 208.908 253.711 209.98 254.297 211.128L254.298 211.129C254.579 211.681 254.869 212.25 255.167 212.849C261.066 211.237 265.552 210.072 270.125 208.883ZM308.676 269.477L308.677 269.478L308.678 269.478C309.579 270.173 310.319 270.744 311.123 271.2L312.414 271.932C332.983 283.604 353.564 295.282 375.352 304.552C383.497 308.018 391.912 311.12 400.485 313.235C413.911 316.545 425.764 312.433 436.262 302.64C441.804 297.47 444.225 291.945 447.156 284.976C452.555 272.14 451.842 259.197 449.728 245.774C446.851 227.512 440.799 212.135 432.842 195.535C428.729 186.955 424.42 178.469 420.111 169.984L420.11 169.983C418.904 167.608 417.698 165.233 416.496 162.856C413.505 156.939 410.495 151.031 407.485 145.124L407.485 145.124C403.029 136.377 398.573 127.631 394.176 118.854C390.244 111.005 382.652 105.675 373.96 104.6C368.48 103.921 363.334 103.083 358.183 102.243L358.182 102.243C353.195 101.43 348.203 100.617 342.9 99.9474C341.836 99.8122 340.701 99.8272 339.655 100.047L338.078 102.883C338.796 103.527 340.078 104.247 341.127 104.837C341.436 105.011 341.726 105.174 341.975 105.32C347.807 108.74 352.924 112.96 357.579 117.927C361.51 122.119 366.31 126.689 370.585 130.457C370.63 130.357 370.647 130.027 370.666 129.67V129.669C370.688 129.247 370.713 128.786 370.787 128.623C371.573 126.888 374.15 127.417 374.199 129.322C374.21 129.743 374.248 130.224 374.292 130.781L374.292 130.781C374.42 132.425 374.601 134.738 374.309 138.164C374.01 141.679 374.048 145.227 374.087 148.77C374.097 149.779 374.108 150.787 374.111 151.795C374.125 156.344 374.194 160.894 374.354 165.439C374.463 168.53 374.642 171.618 374.824 174.78C374.907 176.202 374.99 177.64 375.068 179.1C376.429 179.1 377.398 178.935 378.294 178.782L378.294 178.782C379.017 178.659 379.692 178.544 380.488 178.53C381.368 178.514 382.104 178.428 382.822 178.345L382.822 178.345C383.731 178.239 384.611 178.136 385.721 178.183C391.247 178.955 394.414 181.617 391.047 187.406C390.896 187.664 390.638 188.22 390.638 188.22C394.216 190.492 395.72 194.329 393.206 198.398C393.101 198.568 392.971 198.821 392.854 199.05L392.854 199.05C392.694 199.363 392.556 199.631 392.534 199.586L392.531 199.565C392.531 199.574 392.532 199.581 392.534 199.586C393.444 205.704 389.763 207.771 385.24 209.177C383.72 209.649 382.198 210.118 380.499 210.641L380.484 210.646L379.345 210.996C378.955 211.116 378.556 211.24 378.144 211.367C378.446 212.888 378.729 214.38 379.007 215.849L379.007 215.851L379.007 215.852C379.748 219.762 380.456 223.504 381.419 227.177C381.746 228.422 383.496 229.578 384.855 230.203C386.428 230.928 388.062 231.518 389.697 232.108C391.134 232.628 392.572 233.147 393.969 233.758C394.736 234.093 395.374 234.723 396.012 235.354L396.013 235.354C396.302 235.64 396.592 235.927 396.894 236.185C396.512 236.927 395.682 237.322 394.866 237.154L394.849 237.15C393.845 236.943 392.843 236.736 391.883 236.404C389.968 235.744 388.066 235.044 386.164 234.345L386.163 234.344L386.163 234.344C383.299 233.291 380.435 232.237 377.529 231.317C369.238 228.691 360.906 226.187 352.534 223.841C352.109 223.722 351.594 223.526 351.052 223.32C349.561 222.754 347.869 222.11 347.298 222.773C342.979 227.802 339.289 232.822 335.677 237.735C328.893 246.963 322.386 255.814 312.51 263.644C311.902 264.126 311.065 264.861 310.148 265.665L310.148 265.665C309.161 266.533 308.081 267.481 307.095 268.281C307.688 268.715 308.204 269.113 308.676 269.477ZM249.485 104.467C248.026 104.467 246.726 104.695 245.865 104.846C245.774 104.862 245.688 104.877 245.607 104.891C235.429 106.634 222.253 109.263 212.181 111.499C205.409 113.004 202.76 113.888 197.47 115.654L197.47 115.654C196.422 116.004 195.271 116.388 193.964 116.818C185.739 119.528 178.465 125.023 175.266 133.059C173.589 137.272 172.072 141.583 170.93 145.967C167.249 160.106 164.649 174.342 163.815 188.912C162.355 214.448 163.324 239.833 167.622 265.04C169.939 278.624 174.423 291.517 182.57 302.769C193.054 317.244 209.671 325.42 230.82 316.475C241.91 311.785 250.608 306.314 260.376 299.292C289.84 278.11 313.763 252.569 333.567 222.377C336.354 218.126 336.152 216.233 332.235 213.036C326.652 208.479 320.94 204.082 315.23 199.686L315.229 199.685L315.209 199.67C314.595 199.196 313.98 198.723 313.365 198.25C312.908 197.898 312.41 197.599 311.883 197.313C310.375 196.497 308.478 196.75 307.294 197.994C307.059 198.241 306.853 198.499 306.691 198.782C304.262 203.006 300.268 204.653 295.763 205.68C291.878 206.566 288.005 207.506 284.184 208.64C282.927 209.013 281.67 209.385 280.413 209.757L280.364 209.772C269.05 213.124 257.733 216.476 246.515 220.13C243.982 220.956 241.58 222.18 239.175 223.405L239.175 223.406C237.686 224.164 236.197 224.923 234.674 225.589L234.648 225.601C233.101 226.263 231.865 224.188 233.175 223.129C235.387 221.344 237.877 220.057 240.308 218.8L240.309 218.799C241.653 218.104 242.98 217.419 244.232 216.663C244.112 216.06 243.571 214.694 243.144 213.617L243.144 213.616C242.94 213.101 242.762 212.652 242.668 212.383C237.23 196.764 232.271 182.816 226.641 167.267C224.831 162.267 222.76 157.361 220.69 152.455C219.719 150.155 218.748 147.856 217.804 145.546C217.763 145.446 217.719 145.345 217.676 145.243C217.643 145.167 217.611 145.091 217.579 145.015C216.818 143.229 218.945 142.34 220.309 143.718C222.232 145.659 225.345 149.415 225.854 150.129C227.063 147.262 228.08 144.724 229.034 142.345L229.034 142.345C231.025 137.377 232.736 133.106 235.329 127.994C239.237 120.29 242.908 113.796 249.485 104.467ZM327.588 95.6135C329.941 95.8001 332.329 95.9519 334.709 96.1031C339.058 96.3794 343.382 96.6541 347.422 97.1375C357.675 98.3652 367.91 99.7771 378.123 101.315C387.002 102.653 393.47 107.571 397.572 115.541C398.893 118.108 400.215 120.674 401.538 123.241C407.796 135.384 414.053 147.528 420.149 159.752C421.389 162.24 422.634 164.727 423.878 167.214L423.89 167.237C430.537 180.518 437.186 193.805 443.238 207.356C449.544 221.478 454.388 236.149 455.648 251.819C456.828 266.488 455.213 280.597 448.127 293.639C441.32 306.168 431.607 315.36 417.014 317.841C408.286 319.325 399.562 318.465 391.265 315.456C390.746 315.268 390.227 315.08 389.707 314.892L389.707 314.891C381.019 311.746 372.275 308.58 364.061 304.426C348.853 296.735 333.838 288.659 318.824 280.582L318.822 280.582L318.821 280.581C314.492 278.252 310.163 275.923 305.829 273.604C305.719 273.545 305.612 273.488 305.507 273.432C302.991 272.084 301.724 271.405 300.572 271.563C299.403 271.724 298.353 272.745 296.238 274.802L296.217 274.822C282.375 288.278 268.003 301.098 251.293 310.947C241.744 316.576 232.003 321.869 220.986 324.157C212.511 325.917 204.419 324.977 196.733 320.817C188.864 316.559 182.788 310.458 178.01 302.953C170.254 290.767 166.043 277.296 163.749 263.158C159.557 237.329 159.435 211.305 160.713 185.278C161.391 171.469 163.13 157.727 166.871 144.335C166.955 144.033 167.024 143.727 167.094 143.421L167.127 143.273C170.997 126.285 180.955 115.574 198.117 111.063C213.768 106.951 229.556 103.846 245.528 101.522C245.853 101.475 246.305 101.417 246.822 101.35L246.822 101.35C248.922 101.079 252.081 100.671 252.039 100.326C251.964 99.6967 251.875 99.291 251.8 98.9511L251.8 98.951C251.654 98.2843 251.563 97.8715 251.742 96.5237C251.922 95.1729 254.408 93.7109 255.951 93.1271C261.533 91.0162 267.204 89.0896 272.952 87.4925C276.127 86.6103 277.132 87.4073 278.116 90.6778C278.669 92.5154 279.103 94.3883 279.538 96.2618L279.538 96.2619C279.884 97.7573 280.231 99.253 280.638 100.731C282.332 106.885 284.048 113.033 285.763 119.181L285.764 119.183C287.322 124.769 288.881 130.356 290.424 135.946C291.093 138.372 292.291 140.774 293.009 140.702C296.552 140.346 305.362 139.352 305.143 138.398C305.502 138.037 305.146 133.987 304.956 132.066C304.711 129.582 304.375 127.105 304.039 124.629C303.592 121.333 303.145 118.038 302.912 114.726C302.316 106.204 302.035 97.6552 301.8 89.1127C301.689 85.0782 302.893 83.6442 306.62 83.2016C312.676 82.4837 318.55 83.7894 324.323 85.4387C326.415 86.0365 327.433 87.7899 327.599 90.0159C327.628 90.4089 327.671 90.7952 327.714 91.1825L327.714 91.1829C327.864 92.5371 328.015 93.9037 327.588 95.6135ZM275.325 194.53C275.22 194.546 275.115 194.593 275.022 194.643C274.23 195.057 273.993 195.207 273.911 196.48C273.854 197.366 275.493 197.889 275.907 197.916C276.02 197.924 276.17 197.9 276.338 197.847C277.624 197.446 277.801 195.706 276.694 194.938C276.247 194.629 275.75 194.466 275.325 194.53ZM275.714 201.376C272.936 201.43 270.847 199.447 270.773 196.684C270.701 193.968 272.872 191.268 275.121 191.276C277.67 191.285 280.659 193.874 280.837 196.227C281.047 199.023 278.767 201.316 275.714 201.376ZM280.253 165.649C280.075 165.688 279.882 165.709 279.707 165.655C277.738 165.046 277.7 163.808 278.067 162.849C278.134 162.676 278.549 162.099 279.344 161.972C280.95 161.714 281.994 163.352 282.109 163.936C282.257 164.698 281.425 165.397 280.253 165.649ZM279.709 168.753C282.491 168.95 284.76 167.024 284.829 164.411C284.903 161.619 282.215 159.256 279.015 159.298C276.525 159.331 274.79 161.247 274.862 163.884C274.932 166.448 277.04 168.565 279.709 168.753Z" fill="black"/></g></g><g id="Face" transform="translate(324 316) scale(1 1)"><g id="Face/Smile"><path id="Stroke" fill-rule="evenodd" clip-rule="evenodd" d="M25.6686 21.4477L25.6688 21.4486L25.6692 21.4502C25.984 22.751 26.303 24.0693 26.6206 25.4139C25.894 25.485 25.2102 25.539 24.5587 25.5905C23.0012 25.7135 21.6285 25.822 20.2966 26.1139C19.6546 26.2549 18.8206 27.3179 18.8026 27.9779C18.7866 28.5999 19.6336 29.6529 20.2706 29.8059C22.1916 30.2639 24.1896 30.5049 26.1686 30.5989C30.7836 30.8189 32.1346 29.2889 31.1706 24.7919C30.2622 20.5543 29.1977 16.3483 28.1339 12.1447L27.8686 11.0959C27.8015 10.8299 27.7419 10.5442 27.6809 10.2519C27.3184 8.51421 26.9072 6.54278 24.5806 7.0949C22.2847 7.63837 22.8112 9.50808 23.2705 11.1391L23.2705 11.1392C23.3682 11.4859 23.4628 11.8218 23.5266 12.1319C24.1609 15.2176 24.9022 18.2808 25.6686 21.4477ZM7.2359 37.1764C8.5249 41.4164 15.3039 46.0914 21.1729 46.1834C25.1049 46.0714 28.7939 43.2414 31.9609 39.5854C32.4229 39.0534 32.5909 37.4604 32.2559 37.2074C31.5269 36.6604 30.1969 36.2194 29.4549 36.5374C28.6045 36.9007 27.8772 37.5426 27.1466 38.1873C26.7732 38.5169 26.3989 38.8471 26.0069 39.1414C21.1819 42.7674 17.7939 42.5384 13.5399 38.2294C13.1074 37.791 12.7355 37.285 12.365 36.781L12.365 36.7809C11.8668 36.1032 11.371 35.4288 10.7339 34.9264C10.0299 34.3724 8.5379 34.0234 7.9039 34.4104C7.3129 34.7714 6.9839 36.3474 7.2359 37.1764ZM2.60347 23.8536C1.54966 20.4107 3.2853 16.0369 6.0716 15.1131C8.20716 14.405 10.2644 15.8583 11.151 18.7C12.2685 22.2848 10.4538 26.3141 7.36968 27.0955C5.20677 27.6429 3.38323 26.4024 2.60347 23.8536ZM41.1563 26.5989C43.6763 26.8499 45.8883 24.4019 46.0493 21.1819C46.2013 18.1629 44.0483 15.3779 41.5473 15.3579C39.2333 15.3389 37.5773 17.5539 37.4453 20.8429C37.3143 24.1149 38.7613 26.3589 41.1563 26.5989Z" fill="black"/></g></g></g></svg>