<svg width="1328" height="1010" viewBox="0 0 1328 1010" fill="none" xmlns="http://www.w3.org/2000/svg">
<g id="Yuppies - Emails 1">
<g id="Master/Spot Illustrations/Emails" filter="url(#filter0_d_2_3)">
<g id="mail">
<g id="Mail 1">
<path id="Combined Shape_2" fill-rule="evenodd" clip-rule="evenodd" d="M1089.48 524.855C1086.91 525.044 1085.23 527.36 1085.2 529.94C1085.12 539.265 1084.58 541.469 1084.1 543.384C1084.02 543.747 1083.93 544.1 1083.85 544.489C1083.7 545.498 1083.54 546.506 1083.39 547.515C1079.3 574.7 1075.2 601.879 1072.71 629.273C1072.05 636.506 1071.46 643.749 1071.03 650.999C1070.75 655.743 1072.32 657.133 1077.43 657.49C1078.51 657.566 1079.6 657.562 1080.68 657.52C1086.3 657.302 1091.91 657.061 1097.52 656.821C1106.67 656.43 1115.81 656.039 1124.96 655.742C1129.53 655.594 1134.11 655.552 1138.69 655.509C1144.28 655.457 1149.88 655.406 1155.46 655.161C1175.6 654.278 1195.74 653.298 1215.88 652.317C1225.12 651.866 1234.37 651.416 1243.62 650.975C1248.77 650.73 1250.33 649.496 1251.11 644.264C1251.73 640.14 1252.18 635.975 1252.41 631.813C1252.65 627.357 1252.84 622.897 1253.02 618.438C1253.26 612.552 1253.5 606.667 1253.89 600.791C1254.73 587.976 1255.64 575.164 1256.55 562.353C1257.28 552.158 1258 541.964 1258.69 531.767C1258.97 527.668 1259.04 523.53 1258.84 519.429C1258.71 516.827 1256.58 515.532 1254.17 516.523C1252.52 517.201 1250.73 517.854 1248.97 517.931C1241.75 518.248 1234.53 518.462 1227.31 518.676C1225.27 518.737 1223.23 518.797 1221.2 518.86C1213.35 519.1 1205.51 519.319 1197.67 519.537C1179.55 520.042 1161.43 520.546 1143.32 521.323C1130.36 521.878 1117.42 522.828 1104.47 523.777C1099.49 524.143 1094.51 524.508 1089.53 524.851C1089.51 524.853 1089.49 524.854 1089.48 524.855Z" fill="white"/>
<path id="Fill 3" fill-rule="evenodd" clip-rule="evenodd" d="M1093.31 529.508C1117.37 553.354 1143.45 574.415 1169.17 595.915C1195.23 571.424 1220.91 547.287 1247.39 522.398C1195.42 524.226 1144.42 524.162 1093.31 529.508ZM1254.68 523.181C1253.08 524.275 1252.45 524.599 1251.95 525.066C1228.04 547.403 1204.14 569.744 1180.26 592.114C1178.29 593.968 1176.63 596.176 1174.59 597.954C1169.93 602.019 1169.62 601.981 1165 598.203C1159.22 593.488 1153.39 588.846 1147.75 583.974C1129.6 568.285 1111.53 552.506 1093.43 536.76C1092.38 535.855 1091.35 534.944 1089.93 533.703C1084.1 573.519 1077.5 612.662 1075.48 652.989C1077.93 652.989 1079.7 653.046 1081.47 652.98C1094.36 652.491 1107.24 651.963 1120.13 651.476C1149.36 650.369 1178.6 649.319 1207.83 648.165C1219.26 647.714 1230.7 647.053 1242.13 646.477C1246.2 646.272 1246.36 646.178 1246.92 642.195C1247.4 638.779 1247.84 635.347 1248.07 631.906C1249.7 606.889 1251.31 581.869 1252.86 556.845C1253.53 546 1254.04 535.145 1254.68 523.181ZM1085.2 529.94C1085.23 527.36 1086.91 525.044 1089.48 524.855C1089.49 524.854 1089.51 524.853 1089.53 524.851C1107.45 523.617 1125.37 522.092 1143.32 521.323C1169.27 520.21 1195.24 519.656 1221.2 518.86C1230.46 518.575 1239.72 518.338 1248.97 517.931C1250.73 517.854 1252.52 517.201 1254.17 516.523C1256.58 515.532 1258.71 516.827 1258.84 519.429C1259.04 523.53 1258.97 527.668 1258.69 531.767C1257.14 554.778 1255.4 577.778 1253.89 600.791C1253.21 611.119 1252.98 621.476 1252.41 631.813C1252.18 635.975 1251.73 640.14 1251.11 644.264C1250.33 649.496 1248.77 650.73 1243.62 650.975C1214.24 652.376 1184.85 653.873 1155.46 655.161C1145.31 655.606 1135.12 655.413 1124.96 655.742C1110.2 656.221 1095.44 656.946 1080.68 657.52C1079.6 657.562 1078.51 657.566 1077.43 657.49C1072.32 657.133 1070.75 655.743 1071.03 650.999C1071.46 643.749 1072.05 636.506 1072.71 629.273C1075.29 600.863 1079.6 572.683 1083.85 544.489C1084.35 542.05 1085.1 541.035 1085.2 529.94Z" fill="black"/>
<path id="Fill 13" fill-rule="evenodd" clip-rule="evenodd" d="M718.346 450.666C756.51 451.012 792.635 459.127 826.471 476.869C846.093 487.157 863.256 500.802 879.642 515.582C894.209 528.721 908.709 541.988 923.976 554.282C945.582 571.68 969.919 584.067 997.062 590.583C1004.41 592.347 1011.88 593.594 1019.39 594.423C1023.2 594.844 1027.02 595.158 1030.84 595.38C1034.26 595.582 1038.28 595.117 1041.52 596.393C1042.73 596.866 1042.99 598.023 1042.19 599.05C1041.48 599.97 1040.08 600.073 1039.01 600.043C1034.65 599.926 1030.29 599.822 1025.94 599.522C983.604 596.596 947.08 579.612 914.805 552.868C902.081 542.325 889.931 531.076 877.739 519.909C860.516 504.134 842.3 489.79 821.343 479.225C796.406 466.653 769.998 459.249 742.191 456.768C694.077 452.476 648.096 460.319 604.384 481.001C600.783 482.706 597.361 484.793 593.889 486.761C592.549 487.52 590.96 488.339 590.187 486.642C589.809 485.812 590.644 483.798 591.535 483.146C594.01 481.335 596.715 479.782 599.48 478.436C625.64 465.708 653.021 456.906 681.996 453.627C694.07 452.261 706.227 451.631 718.346 450.666Z" fill="black"/>
</g>
<g id="Mail 2">
<path id="Combined Shape_3" fill-rule="evenodd" clip-rule="evenodd" d="M418.402 215.841L373.632 308.464C364.546 306.158 355.466 304.123 346.426 302.097C327.058 297.756 307.868 293.455 289.17 286.61C312.103 267.06 397.432 220.201 418.402 215.841ZM421.324 220.589C421.737 219.799 422.201 218.914 422.736 217.879C433.789 256.996 444.576 295.173 455.465 333.71L457.685 341.568C458.249 343.565 457.253 345.676 455.348 346.495C454.425 346.893 453.482 347.287 452.528 347.655C446.349 350.039 440.161 352.398 433.973 354.757C420.993 359.705 408.014 364.652 395.127 369.83C384.235 374.206 373.429 378.794 362.623 383.381C355.715 386.314 348.808 389.247 341.878 392.124C339.09 393.281 336.179 394.148 333.273 395.014C332.521 395.238 331.769 395.462 331.02 395.691C328.419 396.485 326.39 395.729 325.188 393.151C324.65 391.998 324.078 390.858 323.507 389.718C322.366 387.441 321.225 385.165 320.354 382.789C309.848 354.152 299.447 325.475 289.047 296.798C288.849 296.254 288.599 295.633 288.334 294.978C287.803 293.661 287.214 292.202 286.883 290.933C287.809 290.933 289.121 291.378 289.557 291.537C305.165 297.245 321.313 300.906 337.459 304.566C341.672 305.521 345.885 306.476 350.088 307.468C356.801 309.051 363.528 310.586 370.281 311.986C375.148 312.996 376.085 312.51 378.533 308.056C380.37 304.715 382.07 301.295 383.737 297.864C390.814 283.292 397.883 268.715 404.951 254.138C409.772 244.197 414.592 234.257 419.415 224.318C419.972 223.171 420.563 222.042 421.324 220.589Z" fill="white"/>
<path id="Fill 5" fill-rule="evenodd" clip-rule="evenodd" d="M373.631 308.464C388.775 277.133 403.461 246.75 418.401 215.841C397.431 220.201 312.102 267.06 289.169 286.61C316.595 296.651 345.081 301.217 373.631 308.464ZM422.735 217.879C421.216 220.818 420.274 222.548 419.414 224.318C407.518 248.832 395.64 273.355 383.736 297.864C382.069 301.295 380.369 304.715 378.532 308.056C376.084 312.51 375.147 312.996 370.28 311.986C363.527 310.586 356.8 309.051 350.087 307.468C329.775 302.677 309.237 298.735 289.556 291.537C289.12 291.378 287.808 290.933 286.882 290.933C287.378 292.834 288.452 295.16 289.046 296.798C299.446 325.475 309.847 354.152 320.353 382.789C321.66 386.355 323.575 389.695 325.187 393.151C326.389 395.729 328.418 396.485 331.019 395.691C334.663 394.578 338.368 393.581 341.877 392.124C359.649 384.745 377.273 377.003 395.126 369.83C414.158 362.184 433.39 355.039 452.527 347.655C453.481 347.287 454.424 346.893 455.347 346.495C457.252 345.676 458.248 343.565 457.684 341.568C446.039 300.354 434.539 259.653 422.735 217.879ZM282.307 290.739C281.47 288.145 282.385 285.31 284.565 283.672C284.698 283.572 284.832 283.475 284.967 283.379C321.278 257.76 359.805 236.011 400.225 217.597C405.171 215.343 410.291 213.439 415.42 211.627C423.265 208.856 424.957 209.715 427.241 217.559C430.945 230.279 434.572 243.024 438.141 255.782C444.302 277.805 450.35 299.86 456.549 321.872C458.072 327.283 460.023 332.573 461.724 337.936C462.327 339.833 462.884 341.76 463.264 343.711C463.779 346.362 462.798 348.32 460.189 349.347C457.825 350.277 455.509 351.336 453.116 352.179C422.282 363.036 392.192 375.723 362.254 388.807C354.115 392.363 345.709 395.317 337.377 398.413C335.015 399.29 332.503 399.837 330.015 400.285C326.387 400.94 323.552 399.558 321.865 396.264C319.881 392.389 317.713 388.559 316.219 384.49C305.584 355.528 295.09 326.513 284.581 297.504C283.788 295.316 283.069 293.099 282.307 290.739Z" fill="black"/>
<path id="Fill 15" fill-rule="evenodd" clip-rule="evenodd" d="M174.346 448.817C160.748 448.322 147.551 445.77 134.346 443.281C122.17 440.986 110.04 438.64 97.4523 439.306C79.9163 440.233 63.4603 448.012 51.1793 460.564C38.9533 473.058 30.2783 487.692 26.3913 505.076C25.9173 507.196 25.7993 509.41 25.1623 511.471C25.1073 511.649 25.0043 511.811 24.8673 511.963C23.9073 513.039 22.0483 512.782 21.4113 511.488C21.3213 511.304 21.2643 511.119 21.2573 510.932C21.1823 508.96 21.3893 506.923 21.8303 504.993C27.2633 481.155 39.9613 461.921 59.5613 447.518C73.0803 437.584 88.7743 433.767 105.39 434.899C115.317 435.575 125.205 437.233 135.026 438.94C149.343 441.428 163.589 444.456 178.233 443.718C208.2 442.211 234.338 432.098 253.814 408.405C261.52 399.03 268.105 388.731 275.173 378.834C276.438 377.061 277.527 375.163 278.779 373.379C279.846 371.859 280.637 369.142 283.153 370.766C285.326 372.17 283.572 374.129 282.626 375.486C274.325 387.403 266.404 399.624 257.454 411.038C242.205 430.486 221.35 441.018 197.527 445.904C189.921 447.463 182.08 447.879 174.346 448.817Z" fill="black"/>
</g>
</g>
<g id="planes">
<g id="Plane 2">
<path id="Fill 1" fill-rule="evenodd" clip-rule="evenodd" d="M1112.46 864.169C1114.44 863.951 1116.26 863.856 1118.04 863.537C1150.04 857.823 1182.09 852.433 1214.46 849.258C1220.94 848.623 1227.35 847.441 1233.82 846.769C1193.58 846.024 1153.37 845.281 1112.46 844.524V864.169ZM1065.33 839.167C1134.54 840.487 1202.91 841.792 1271.29 843.096C1224.69 815.151 1178.1 787.209 1131.18 759.078C1124.04 767.722 1117.08 776.142 1109.86 784.878C1112.26 785.907 1113.91 786.651 1115.58 787.328C1131.06 793.589 1146.55 799.836 1162.03 806.092C1163.38 806.636 1164.87 807.006 1166 807.849C1166.01 807.855 1166.01 807.861 1166.02 807.867C1167.46 808.974 1166.99 811.248 1165.33 811.984C1165.11 812.084 1164.88 812.177 1164.66 812.261C1164.2 812.43 1163.59 812.185 1163.05 812.118C1141.42 809.44 1119.79 806.804 1098.18 804.031C1096.31 803.792 1094.37 803.74 1094.37 803.74C1094.37 803.74 1090.28 809.423 1088.61 811.568C1088.61 811.568 1080.02 821.616 1068.55 834.948C1067.29 836.406 1066.98 836.598 1065.33 839.167ZM1107.3 844.618C1092.35 843.541 1077.27 844.608 1061.45 843.245C1059.56 843.082 1058.44 841.072 1059.28 839.37C1059.64 838.654 1059.99 838.037 1060.43 837.495C1070.19 825.521 1080.09 813.661 1089.81 801.656C1091.9 799.069 1094.33 798.202 1097.44 798.607C1099.74 798.907 1102.04 799.239 1104.45 799.573C1104.45 795.385 1104.58 791.619 1104.41 787.867C1104.3 785.33 1105.11 783.396 1106.74 781.475C1113.44 773.573 1120 765.555 1126.63 757.594C1130.18 753.329 1130.22 753.304 1135.11 756.23C1163.01 772.937 1190.9 789.661 1218.79 806.384C1236.71 817.127 1254.63 827.86 1272.53 838.639C1274.76 839.983 1277.83 840.892 1276.8 844.617C1275.77 848.367 1272.69 847.268 1270.08 847.529C1259.6 848.58 1249.13 849.71 1238.66 850.891C1223.86 852.561 1209.02 853.977 1194.29 856.084C1171.64 859.323 1149.06 863.057 1126.46 866.584C1122.33 867.228 1118.22 868.022 1114.08 868.505C1109.56 869.03 1107.33 866.892 1107.3 862.285C1107.27 856.515 1107.3 850.743 1107.3 844.618Z" fill="#A1483A"/>
<path id="Combined Shape" fill-rule="evenodd" clip-rule="evenodd" d="M1155.02 840.878C1125.24 840.309 1095.36 839.739 1065.33 839.167C1066.68 837.072 1067.13 836.557 1067.93 835.649C1068.11 835.443 1068.31 835.217 1068.55 834.948C1080.02 821.616 1088.61 811.568 1088.61 811.568C1090.28 809.423 1094.38 803.74 1094.38 803.74C1094.38 803.74 1096.31 803.792 1098.18 804.031C1114.72 806.152 1131.26 808.194 1147.81 810.235C1152.89 810.862 1157.97 811.489 1163.05 812.118C1163.21 812.138 1163.37 812.173 1163.54 812.209C1163.94 812.294 1164.34 812.378 1164.66 812.26C1164.88 812.176 1165.11 812.084 1165.33 811.984C1166.99 811.248 1167.46 808.974 1166.02 807.867C1166.02 807.861 1166.01 807.855 1166 807.849C1165.18 807.236 1164.17 806.872 1163.16 806.511C1162.78 806.376 1162.4 806.24 1162.03 806.092C1156.11 803.698 1150.18 801.307 1144.26 798.914C1134.7 795.054 1125.14 791.193 1115.58 787.328C1114.48 786.882 1113.39 786.407 1112.08 785.841C1111.41 785.548 1110.68 785.229 1109.86 784.878C1117.08 776.142 1124.04 767.722 1131.18 759.078C1148.7 769.584 1166.18 780.063 1183.63 790.526C1212.9 808.079 1242.1 825.587 1271.3 843.096C1232.58 842.358 1193.88 841.619 1155.02 840.878ZM1114.34 863.984C1113.73 864.041 1113.1 864.098 1112.47 864.169V844.524C1130.01 844.848 1147.42 845.171 1164.76 845.492C1187.86 845.919 1210.84 846.343 1233.82 846.769C1230.7 847.093 1227.59 847.537 1224.49 847.979C1221.15 848.455 1217.81 848.929 1214.46 849.258C1182.09 852.433 1150.04 857.823 1118.04 863.537C1116.84 863.753 1115.62 863.866 1114.34 863.984Z" fill="white"/>
</g>
<g id="Plane 1">
<path id="Fill 7" fill-rule="evenodd" clip-rule="evenodd" d="M574.815 113.67C562.211 101.615 549.65 89.5135 536.941 77.5695C535.978 76.6635 533.986 76.3285 532.57 76.5075C519.065 78.2075 505.582 80.0735 492.094 81.8985C486.521 82.6525 480.962 83.5365 475.371 84.0925C475.243 84.1055 475.113 84.1045 474.983 84.0925C472.804 83.8965 471.852 80.9925 473.506 79.5615C473.598 79.4815 473.695 79.4095 473.798 79.3475C477.203 77.2785 480.791 75.5045 484.347 73.6915C494.681 68.4255 505.033 63.1945 516.135 57.5665C506.408 48.7625 497.057 40.2995 487.716 31.8445C446.642 59.5685 408.107 89.6185 369.077 120.032C438.279 117.892 506.543 115.781 574.815 113.67ZM363.726 126.001C360.567 126.046 359.094 122.053 361.59 120.118C361.609 120.103 361.628 120.089 361.647 120.074C366.544 116.308 371.401 112.491 376.277 108.697C411.845 81.0195 447.683 53.7065 484.841 28.1719C485.573 27.6699 486.312 27.1789 487.338 26.4859C489.264 27.9359 491.237 29.2065 492.962 30.7545C501.89 38.7645 510.666 46.9445 519.694 54.8375C522.327 57.1395 522.64 59.5765 521.999 62.6045C521.291 65.9495 520.805 69.9225 520.076 73.6285C526.681 73.2055 528.573 72.7345 532.581 71.7575C534.999 71.1675 537.018 71.2575 539.038 73.2115C553.407 87.1085 567.888 100.891 582.318 114.728L582.329 114.738C583.231 115.587 582.814 117.117 581.6 117.362C579.631 117.76 576.848 117.941 574.886 118.005C546.558 118.931 518.227 119.763 489.896 120.615C466.47 121.319 443.04 121.932 419.617 122.746C405.28 123.244 390.951 123.996 376.623 124.743C372.821 124.941 369.045 125.598 365.247 125.928C364.74 125.972 364.232 125.993 363.726 126.001Z" fill="#A1483A"/>
<path id="Path" fill-rule="evenodd" clip-rule="evenodd" d="M574.815 113.67C562.211 101.615 549.65 89.5135 536.941 77.5695C535.978 76.6635 533.986 76.3285 532.57 76.5075C519.065 78.2075 505.582 80.0735 492.094 81.8985C486.521 82.6525 480.962 83.5365 475.371 84.0925C475.243 84.1055 475.113 84.1045 474.983 84.0925C472.804 83.8965 471.852 80.9925 473.506 79.5615C473.598 79.4815 473.695 79.4095 473.798 79.3475C477.203 77.2785 480.791 75.5045 484.347 73.6915C494.681 68.4255 505.033 63.1945 516.135 57.5665C506.408 48.7625 497.057 40.2995 487.716 31.8445C446.642 59.5685 408.107 89.6185 369.077 120.032C438.279 117.892 506.543 115.781 574.815 113.67Z" fill="white"/>
</g>
</g>
<g id="talk">
<g id="Speech 2">
<path id="Fill 9" fill-rule="evenodd" clip-rule="evenodd" d="M247.278 741.267C247.616 738.995 248.148 736.75 248.468 734.476C250.34 721.166 252.414 707.881 253.93 694.532C254.511 689.42 256.773 686.414 261.133 683.997C273.04 677.4 284.894 670.68 296.52 663.602C312.636 653.788 328.616 643.742 344.468 633.502C350.576 629.557 355.948 624.556 360.137 618.504C370.032 604.207 368.739 586.53 347.486 578.964C339.669 576.181 331.525 575.623 323.303 576.006C305.776 576.823 289.429 582.262 273.474 589.026C251.819 598.205 231.789 610.364 212.257 623.322C197.587 633.053 183.178 643.183 168.73 653.246C159.141 659.925 153.54 669.123 151.857 680.744C149.726 695.452 156.669 707.498 170.693 712.504C174.226 713.766 178.102 714.421 181.859 714.621C188.622 714.982 195.261 713.8 201.667 711.538C206.805 709.726 211.953 707.928 217.026 705.945C219.514 704.972 221.141 705.272 222.647 707.446C224.01 709.415 225.94 712.411 227.348 714.349C233.906 723.384 240.622 732.303 247.278 741.267ZM218.886 710.077C213.697 711.961 208.951 713.754 204.158 715.407C194.937 718.584 185.506 720.158 175.761 718.547C160.122 715.962 148.571 704.796 147.373 689.76C146.256 675.745 149.806 662.723 161.531 653.823C192.936 629.986 225.263 607.498 260.737 589.962C275.768 582.532 291.398 576.672 307.909 573.431C319.959 571.066 332.052 570.492 344.126 573.305C350.774 574.854 356.87 577.583 361.948 582.264C368.389 588.202 371.233 595.496 370.303 604.284C369.446 612.392 366.171 619.513 360.472 625.078C354.529 630.881 348.176 636.427 341.342 641.121C316.631 658.097 290.317 672.456 264.281 687.246C260.616 689.329 258.726 691.613 258.208 695.862C256.408 710.64 254.261 725.377 252.159 740.116C251.792 742.694 252.291 746.175 249.003 746.999C246.051 747.74 244.701 744.71 243.23 742.772C236.088 733.382 229.067 723.896 222.013 714.437C221.045 713.14 220.125 711.808 218.886 710.077Z" fill="#BD8CE9"/>
<path id="Path_2" fill-rule="evenodd" clip-rule="evenodd" d="M247.278 741.268C247.617 738.996 248.148 736.75 248.469 734.476C250.34 721.166 252.414 707.881 253.931 694.532C254.511 689.42 256.773 686.414 261.133 683.997C273.041 677.4 284.894 670.68 296.52 663.602C312.637 653.788 328.617 643.742 344.468 633.502C350.577 629.557 355.948 624.557 360.138 618.505C370.033 604.208 368.74 586.53 347.486 578.964C339.67 576.181 331.526 575.623 323.303 576.006C305.776 576.823 289.43 582.262 273.474 589.026C251.819 598.205 231.79 610.365 212.258 623.323C197.587 633.054 183.179 643.184 168.731 653.247C159.141 659.926 153.541 669.123 151.857 680.744C149.726 695.452 156.669 707.499 170.693 712.505C174.226 713.767 178.103 714.422 181.86 714.622C188.622 714.983 195.261 713.8 201.667 711.538C206.806 709.726 211.954 707.928 217.026 705.945C219.514 704.972 221.141 705.272 222.648 707.446C224.01 709.415 225.941 712.411 227.348 714.349C233.907 723.384 240.622 732.304 247.278 741.268Z" fill="white"/>
<path id="Combined Shape_4" fill-rule="evenodd" clip-rule="evenodd" d="M390.464 572.151C389.849 572.598 389.053 572.796 388.335 572.547C387.264 572.173 386.715 571.088 387.194 569.997C387.613 569.044 388.383 568.191 389.148 567.453C394.116 562.665 399.118 557.913 404.133 553.176L404.227 553.087C404.854 552.494 405.546 551.838 406.319 551.626C407.046 551.428 408.267 551.573 408.671 552.062C409.096 552.579 409.001 553.735 408.779 554.51C408.628 555.037 408.14 555.488 407.68 555.913C407.589 555.998 407.498 556.082 407.412 556.165C402.166 561.186 396.911 566.201 391.64 571.197C391.255 571.562 390.83 571.884 390.464 572.151ZM391.414 612.542C391.601 610.591 393.996 609.531 395.523 610.758C395.532 610.764 395.539 610.77 395.546 610.776C401.569 615.736 407.536 620.761 413.474 625.823C414.127 626.38 414.674 627.229 414.912 628.046C415.078 628.613 414.822 629.552 414.402 629.97C414.036 630.334 413.298 630.376 412.668 630.412C412.604 630.416 412.541 630.419 412.48 630.423C412.171 630.444 411.793 630.185 411.525 629.96C405.134 624.59 398.752 619.211 392.383 613.817C391.976 613.472 391.375 612.958 391.41 612.572C391.411 612.566 391.411 612.56 391.412 612.554L391.414 612.542ZM419.215 591.646C419.692 591.647 420.162 591.492 420.543 591.205C420.6 591.161 420.659 591.117 420.719 591.073C421.362 590.592 422.089 590.049 422.178 589.415C422.443 587.525 420.759 587.363 419.362 587.229C419.309 587.224 419.257 587.219 419.205 587.214C418.65 587.16 418.089 587.184 417.528 587.208C417.186 587.223 416.845 587.238 416.504 587.235C414.636 587.216 412.767 587.195 410.898 587.173C407.725 587.136 404.551 587.099 401.377 587.079C401.008 587.076 400.635 587.064 400.26 587.051C398.992 587.008 397.71 586.965 396.553 587.312C396.233 587.408 395.955 587.647 395.697 587.954C394.817 589.005 395.034 590.671 396.259 591.284C396.439 591.375 396.622 591.435 396.807 591.445C399.694 591.621 402.592 591.627 405.49 591.633C406.196 591.634 406.903 591.636 407.609 591.64C410.336 591.654 413.062 591.651 415.959 591.648C417.019 591.647 418.101 591.646 419.215 591.646Z" fill="#BD8CE9"/>
</g>
<g id="Speech 1">
<path id="Path_3" fill-rule="evenodd" clip-rule="evenodd" d="M1232.87 286.845C1229.43 292.859 1226.05 298.862 1222.57 304.806C1221.38 306.835 1220.13 308.891 1218.57 310.626C1216.26 313.186 1213.92 313.021 1211.66 310.357C1210.73 309.26 1209.94 307.996 1209.3 306.705C1206.06 300.21 1202.68 293.775 1199.8 287.123C1198.45 284.004 1196.72 282.294 1193.41 281.336C1167.34 273.78 1142.54 263.095 1118.72 250.137C1109.6 245.181 1100.85 239.606 1093.2 232.553C1089.22 228.878 1085.31 224.951 1082.18 220.559C1071.42 205.475 1074.86 188.516 1090.63 178.851C1105.12 169.976 1121.07 167.256 1137.77 169.362C1169.66 173.381 1199.35 184.4 1227.97 198.557C1235.12 202.095 1242 206.18 1249.04 209.956C1255.82 213.597 1261.48 218.689 1267.28 223.651C1281.13 235.49 1281.62 262.312 1265.33 275.353C1256.93 282.073 1247.17 284.995 1236.76 286.373C1235.51 286.539 1234.26 286.678 1232.87 286.845Z" fill="white"/>
<path id="Fill 11" fill-rule="evenodd" clip-rule="evenodd" d="M1215.18 307.584C1216.37 306.002 1217.32 304.96 1218.01 303.766C1221.19 298.26 1224.46 292.797 1227.36 287.147C1229.11 283.742 1231.21 282.09 1235.3 281.853C1245.06 281.286 1254.12 278.304 1262.06 272.257C1276.62 261.159 1276.44 236.834 1264.18 227C1258.39 222.353 1252.68 217.449 1246.33 213.679C1217.89 196.795 1187.63 184.192 1155.33 176.812C1142.54 173.89 1129.63 171.838 1116.45 174.129C1106.85 175.798 1097.76 178.794 1089.91 184.763C1081.03 191.52 1078.1 201.116 1082.38 211.381C1084.16 215.642 1086.99 219.634 1090.02 223.162C1096.6 230.803 1104.62 236.925 1113.4 241.735C1125.96 248.62 1138.63 255.456 1151.75 261.172C1165.53 267.179 1179.84 272.016 1194.05 276.994C1198.86 278.679 1202.15 281.089 1204.06 285.984C1206.23 291.548 1209.15 296.826 1211.84 302.181C1212.71 303.917 1213.88 305.501 1215.18 307.584ZM1232.87 286.845C1229.43 292.859 1226.05 298.862 1222.57 304.806C1221.38 306.835 1220.13 308.891 1218.57 310.626C1216.26 313.186 1213.92 313.021 1211.66 310.357C1210.73 309.26 1209.94 307.996 1209.3 306.705C1206.06 300.21 1202.68 293.775 1199.8 287.123C1198.45 284.004 1196.72 282.294 1193.41 281.336C1167.34 273.78 1142.54 263.095 1118.72 250.137C1109.6 245.181 1100.85 239.606 1093.2 232.553C1089.22 228.878 1085.31 224.951 1082.18 220.559C1071.42 205.475 1074.86 188.516 1090.63 178.851C1105.12 169.976 1121.07 167.256 1137.77 169.362C1169.66 173.381 1199.35 184.4 1227.97 198.557C1235.12 202.095 1242 206.18 1249.04 209.956C1255.82 213.597 1261.48 218.689 1267.28 223.651C1281.13 235.49 1281.62 262.312 1265.33 275.353C1256.93 282.073 1247.17 284.995 1236.76 286.373C1235.51 286.539 1234.26 286.678 1232.87 286.845Z" fill="#BD8CE9"/>
<path id="Combined Shape_5" fill-rule="evenodd" clip-rule="evenodd" d="M1090.82 107.584C1090.06 108.415 1089.85 109.623 1090.15 110.711C1090.26 111.086 1090.34 111.417 1090.43 111.749C1091.09 114.454 1091.75 117.16 1092.41 119.866C1094.02 126.487 1095.63 133.108 1097.29 139.718C1097.77 141.641 1098.5 143.511 1099.24 145.354C1099.83 146.797 1100.93 148.089 1102.5 146.999C1103.19 146.522 1103.49 144.762 1103.24 143.766C1100.91 134.409 1098.48 125.079 1096.04 115.748C1095.64 114.217 1095.24 112.686 1094.84 111.155C1094.8 110.979 1094.76 110.797 1094.71 110.613C1094.55 109.885 1094.37 109.129 1093.93 108.628C1093.3 107.914 1092.17 107.072 1091.42 107.204C1091.2 107.242 1091.01 107.385 1090.82 107.584ZM1057.38 124.931C1055.97 122.485 1059.59 120.299 1061.14 122.659C1061.17 122.708 1061.21 122.759 1061.24 122.809L1061.3 122.901C1066.05 130.189 1070.78 137.5 1075.48 144.822C1075.69 145.153 1075.91 145.485 1076.12 145.817C1078.07 148.84 1080.01 151.867 1081.78 154.994C1082.28 155.887 1082.47 157.67 1081.94 158.286C1080.71 159.696 1079.3 158.822 1078.32 157.563C1077.44 156.42 1076.64 155.203 1075.86 153.982C1069.81 144.508 1063.76 135.031 1057.75 125.536C1057.62 125.337 1057.5 125.136 1057.38 124.931ZM1031.6 145.12C1032.39 144.578 1033.45 144.636 1034.28 145.122C1034.85 145.456 1035.39 145.783 1035.87 146.179C1045.23 153.892 1054.57 161.62 1063.88 169.39C1065.12 170.424 1066.3 171.613 1067.2 172.934C1067.58 173.486 1067.48 175.058 1067.07 175.307C1066.34 175.756 1065.19 175.677 1064.25 175.581C1063.94 175.551 1063.66 175.258 1063.38 174.966C1063.25 174.834 1063.12 174.701 1062.99 174.592C1060.72 172.704 1058.45 170.817 1056.18 168.93V168.929V168.927C1049.12 163.063 1042.07 157.199 1035.04 151.308C1033.67 150.157 1032.39 148.857 1031.25 147.477C1030.91 147.062 1030.93 146.006 1031.23 145.495C1031.31 145.348 1031.44 145.227 1031.6 145.12Z" fill="#BD8CE9"/>
</g>
</g>
<g id="Master/Character/Standing">
<g id="Master/Character/Standing_2">
<g id="Bottom/Standing">
<g id="Bottom/Standing/Crossed legs">
<path id="Fill" fill-rule="evenodd" clip-rule="evenodd" d="M563 914.199L579.455 943.219C579.455 943.219 593.939 960.173 616.437 960.173C638.935 960.173 661.279 960.886 666.402 953.053C671.524 945.22 654.936 934.709 650.048 934.709C645.161 934.709 623.818 923.065 621.965 920.133C620.112 917.201 615.437 897.188 615.437 897.188L634.765 866.167C634.765 866.167 688.803 870.819 697.564 856.335C706.326 841.851 720.442 723.844 720.442 723.844L726.147 709.501L759.506 847.016L774.844 854.339L771.362 881.443L768.364 946.561C768.364 946.561 775.36 960.23 810.343 958.229C845.327 956.227 890.964 958.229 904.516 935.958C917.789 917.201 812.342 901.19 812.342 901.19L814.608 862.163C814.608 862.163 869.313 862.217 885.642 836.195C885.642 834.76 863.633 751.281 863.633 751.281L819.191 600.789L799.47 547.209L807.518 519.507C807.518 519.507 817.998 463.114 815.732 450.332C813.467 437.55 813.169 404.804 810.343 399.116C807.518 393.427 698.482 395.983 698.482 395.983C698.482 395.983 678.251 435.031 676.881 450.332C675.512 465.634 675.512 505.076 676.881 515.877C672.957 528.95 639.45 665.914 639.45 665.914C639.45 665.914 583.33 828.957 577.668 835.154C572.006 841.351 592.83 847.016 592.83 847.016L573.567 884.178L564.186 901.19L563 914.199Z" fill="white"/>
<path id="Stroke" fill-rule="evenodd" clip-rule="evenodd" d="M900.036 937.563C896.046 943 890.449 946.255 884.163 947.722C875.952 949.639 867.559 950.76 859.43 952.19C857.1 947.236 857.713 944.238 860.574 941.466C861.945 940.138 864.025 939.849 865.76 939.112C877.894 933.947 889.713 931.844 902.825 929.19C903.59 932.98 901.702 935.291 900.036 937.563ZM854 953.682C853.324 953.973 851.367 954.301 849.941 954.493C837.706 956.133 825.417 956.512 812.847 955.94C811.503 952.105 810.359 948.839 809 944.962C824.249 943.685 839.136 942.436 854 941.19C854 941.19 849.961 943.146 854 953.682ZM803.882 938.589C796.805 928.643 786.524 924.505 775.054 922.365C774.295 922.224 774.438 922.213 773 921.818C773.523 916.615 773.124 911.585 773.666 906.19C775.351 907.197 776.678 907.879 777.885 908.729C786.005 914.443 794.894 917.251 804.934 916.268C806.956 916.07 809.454 916.092 811.063 917.086C821.615 923.605 833.372 925.024 845.359 925.67C846.53 925.734 847.707 925.7 848.881 925.682C860.891 925.489 861.803 925.033 869.826 915.019C879.367 917.328 889.273 919.124 899 924.862C891.681 926.683 885.353 928.268 879.02 929.831C870.498 931.935 862.076 934.746 853.427 935.953C840.092 937.816 826.601 938.577 813.175 939.799C811.424 939.96 809.644 940.321 807.925 940.141C806.511 939.992 804.587 939.581 803.882 938.589ZM782.358 954.526C773.852 952.604 770.372 947.483 771.092 938.734C771.41 934.868 771.846 931.01 772.223 927.191C789.657 927.081 804.142 939.999 808 955.997C799.092 956.355 790.641 956.396 782.358 954.526ZM808 899.706C807.806 902.889 807.607 906.16 807.361 910.19C801.866 907.669 799.361 904.492 800.139 901.749C800.85 899.24 802.971 898.612 808 899.706ZM773.021 889.017C773.268 880.297 774.157 871.545 774.663 862.19C785.927 867.89 796.521 873.844 810 873.757C809.245 880.654 808.554 886.975 807.871 893.221C795.073 893.694 787.724 900.251 800.967 911.19C796.684 909.855 790.519 909.573 787.171 908.225C784.848 907.288 782.802 905.677 780.606 904.414C774.634 900.978 772.778 897.559 773.021 889.017ZM813.365 903.19C818.022 904.598 822.728 906.022 828 907.617C826.223 911.128 824.666 914.199 823.152 917.19C811.984 913.661 810.274 910.08 813.365 903.19ZM846 910.276C844.01 913.784 842.343 916.722 840.376 920.19C836.462 919.555 832.563 918.925 828 918.185C829.979 914.439 831.542 911.481 833.28 908.19C837.455 908.875 841.371 909.517 846 910.276ZM850.422 911.19C855.293 912.06 859.488 912.809 864 913.615C860.113 922.566 852.73 921.323 845 920.857C847.042 917.216 848.609 914.422 850.422 911.19ZM757.306 893.195C762.423 893.523 766.675 896.567 768 901.154C761.414 901.465 757.255 899.813 755.224 896.031C754.49 894.663 755.66 893.09 757.306 893.195ZM712.83 763.249C708.128 793.326 702.455 823.216 695.948 852.956C695.316 855.842 693.853 857.305 691.609 858.654C681.529 864.709 670.411 866.067 658.948 866.186C642.578 866.355 627.378 861.643 612.644 855.165C603.362 851.084 594.274 846.56 585.152 842.128C583.098 841.13 581.263 839.68 579 838.227C579.835 835.905 580.509 833.908 581.266 831.945C593.534 800.089 606.049 768.325 618.03 736.362C634.702 691.889 646.725 646.071 657.04 599.755C662.127 576.915 668.022 554.254 673.574 531.518C673.985 529.827 674.731 526.773 675.522 524.19C676.251 526.268 676.692 528.121 676.927 529.07C683.504 555.57 689.843 582.13 696.703 608.556C699.288 618.515 699.324 628.635 700.295 638.7C702.62 662.784 704.535 686.91 706.986 710.98C708.646 727.276 710.946 743.507 712.921 759.772C713.06 760.913 713.007 762.112 712.83 763.249ZM619.704 884.369C618.853 881.578 616.172 880.1 614.188 879.891C611.855 879.645 609.159 880.392 607.015 881.473C605.019 882.478 603.542 884.485 601.686 886.19C593.867 882.675 587.214 872.849 584 867.704C584 867.704 586.225 863.28 587.346 860.19C603.782 867.038 603.782 867.038 629 869.565C625.932 874.317 622.592 879.895 619.704 884.369ZM618 917.539C615.188 919.002 612.558 920.368 609.055 922.19C608.268 920.255 606.944 918.239 606 913.729C609.589 913.153 612.512 912.682 615.576 912.19C616.429 914.073 617.117 915.593 618 917.539ZM633 931.402C625.004 933.395 619.017 931.605 613 926.07C616.011 924.519 618.465 923.254 620.534 922.19C624.685 925.257 628.388 927.994 633 931.402ZM606 889.094C607.795 885.911 609.666 883.999 613.25 884.206C618.16 886.896 615.386 889.654 613.422 893.19C610.912 891.804 608.636 890.549 606 889.094ZM615 907.321C611.986 907.882 604.945 909.19 604.945 909.19C602.21 900.332 602.894 896.665 603.79 895.159C604.196 894.481 604.992 894.111 605.776 894.204C613.035 895.062 613.521 901.208 615 907.321ZM656 940.979C654.579 940.979 653.151 940.89 651.737 940.992C643.021 941.62 634.293 942.162 625.594 942.98C612.339 944.225 594.416 940.172 585.727 924.326C583.835 920.877 582.428 916.761 582.22 912.875C581.722 903.582 579.324 894.962 575 886.374C577.095 882.602 579.31 878.615 581.767 874.19C584.764 877.859 587.071 881.193 589.899 884.003C592.765 886.851 596.925 890.05 600.457 892.913C599.183 894.35 599.208 899.087 599.782 902.662C600.82 909.124 601.691 915.795 604.051 921.826C608.794 933.937 621.124 940.181 633.507 936.383C635.602 935.74 637.935 934.888 637.935 934.888C639.868 935.545 650.545 938.187 656 940.979ZM663.802 945.56C664.711 952.717 662.504 955.448 656.975 956.475C643.587 958.961 630.118 958.204 616 957.527C617.871 951.388 621.059 948.301 626.562 947.435C639.38 945.415 649.965 944.674 663.802 945.56ZM591.176 952.224C586.236 949.113 581.463 943.291 577 936.279C578.064 933.34 579.181 930.25 580.65 926.19C588.601 939.669 600.259 945.918 615 948.036C613.202 951.229 611.715 954.753 610.34 957.19C605.364 956.779 598.223 956.662 591.176 952.224ZM574.138 930.19C563.384 915.409 561.469 904.753 571.909 891.19C577.689 904.264 578.708 916.956 574.138 930.19ZM571.191 862.727C570.948 862.292 570.97 861.724 571.075 861.116C571.277 859.925 572.411 859.082 573.679 859.201C574.273 859.258 574.81 859.377 575.174 859.68C577.381 861.523 579.82 863.504 578.732 867.19C575.411 866.606 572.686 865.4 571.191 862.727ZM884.851 913.927C873.535 911.08 862.013 909.064 850.589 906.642C839.55 904.302 828.53 901.88 817.499 899.507C815.989 899.182 814.031 898.831 813.286 897.917C813.286 897.917 812.93 895.247 813.094 893.616C814.07 883.956 815.233 874.316 816.375 864.223C819.431 864.223 821.928 864.29 824.42 864.212C836.533 863.837 848.542 862.736 860.084 858.678C868.633 855.671 876.419 851.545 882.717 844.706C887.314 839.713 888.401 834.247 886.823 827.939C884.791 819.803 882.929 811.619 880.663 803.548C870.33 766.728 860.082 729.881 849.408 693.159C841.075 664.499 832.515 635.895 823.372 607.487C818.177 591.343 811.78 575.575 805.568 559.78C803.365 554.175 802.961 549.185 804.296 543.07C808.413 524.213 811.501 505.125 814.791 486.092C817.227 472.008 818.378 457.81 817.125 443.512C816.239 433.398 815.193 423.297 814.22 413.189C813.663 407.396 813.11 401.602 812.495 395.19H812.432C810.607 395.189 809.043 396.388 808.429 398.109C808.345 398.347 808.252 398.584 808.151 398.826C808.108 398.928 808.056 399.03 808.009 399.134C808.024 399.129 808.038 399.126 808.053 399.122C808.797 405.901 809.539 411.843 810.085 417.802C811.154 429.467 812.64 441.128 812.941 452.818C813.167 461.544 812.231 470.372 811.046 479.049C809.041 493.743 806.438 508.355 804.059 522.997C803.906 523.936 803.607 527.197 803.122 528.79C802.028 527.426 799.659 523.511 799.028 522.501C792.731 512.412 787.823 503.027 781.679 492.848C780.393 490.716 779.789 488.16 778.943 485.774C776.869 479.923 774.837 474.057 772.635 467.758C776.143 467.043 779.318 466.424 782.48 465.744C784.383 465.336 786.356 465.042 788.116 464.28C788.299 464.201 788.461 464.073 788.608 463.912C789.548 462.883 789.183 461.2 787.972 460.513C787.688 460.35 787.4 460.194 787.106 460.049C786.808 459.902 786.339 460.065 785.957 460.131C780.974 460.99 776 461.897 771.009 462.706C768.31 463.143 767.459 464.969 767.588 467.309C767.66 468.628 768.275 469.934 768.739 471.213C785.049 516.142 802.052 560.832 817.465 606.066C829.288 640.762 839.364 676.069 849.735 711.246C858.892 742.309 867.473 773.544 876.109 804.757C878.501 813.399 880.084 822.261 882.234 830.973C883.167 834.756 882.315 837.783 879.887 840.727C874.467 847.3 867.277 851.048 859.516 853.909C850.101 857.378 840.271 858.97 830.316 859.249C814.708 859.687 799.097 859.165 783.924 855.017C777.571 853.281 771.477 850.579 765.303 848.219C762.156 847.015 760.558 844.693 759.873 841.253C751.137 797.409 739.997 754.138 728.711 710.904C714.37 655.972 699.914 601.07 685.676 546.113C683.232 536.681 681.076 527.108 679.752 517.467C676.966 497.195 674.716 476.846 677.877 456.349C679.7 444.52 682.651 433.036 687.621 422.12C689.302 418.425 697.258 401.568 698.876 398.11C698.882 398.11 698.887 398.11 698.892 398.109C698.673 397.502 698.397 396.91 698.085 396.328C697.492 395.217 695.903 395.197 695.246 396.268L695.23 396.295C686.246 410.841 675.478 440.061 673.132 456.839C671.091 471.438 671.354 486.056 672.905 500.665C673.59 507.119 673.482 513.366 671.837 519.78C665.098 546.052 658.14 572.29 652.343 598.777C640.76 651.693 625.835 703.571 606.416 754.132C596.201 780.726 585.781 807.244 575.474 833.805C573.22 839.614 573.218 839.694 578.459 843.262C581.132 845.084 583.996 846.624 586.893 848.363C585.096 852.355 582.948 857.375 581.218 861.223C580.029 857.432 578.435 856.508 576.736 855.318C574.308 853.618 571.649 853.456 569.036 855.042C566.588 856.529 564.941 859.766 566.024 862.639C566.933 865.052 568.687 867.29 570.518 869.162C571.94 870.617 574.058 871.39 576.247 872.691C574.92 875.448 573.797 878.115 572.394 880.625C569.823 885.224 567.122 889.752 564.412 894.27C558.56 904.025 558.673 913.839 563.899 923.798C569.475 934.425 576.679 943.856 584.805 952.617C588.375 956.468 592.736 958.774 597.963 959.607C616.155 962.506 634.426 962.788 652.744 961.333C655.627 961.104 658.541 960.447 661.293 959.539C666.483 957.827 668.797 953.571 669.858 948.563C670.854 943.859 667.428 941.405 664.367 939.078C662.07 937.333 659.434 935.921 656.763 934.815C653.173 933.329 649.361 932.391 645.718 931.021C625.649 923.48 623.724 921.867 617.822 901.688C617.712 901.314 617.446 900.939 617.473 900.581C617.586 899.084 617.425 897.433 618.005 896.124C622.532 885.916 629.615 877.33 634.79 868.818C644.779 869.416 653.694 870.327 662.615 870.391C673.046 870.467 683.096 868.357 692.427 863.267C697.092 860.722 699.694 857.68 700.916 851.945C708.36 816.991 714.383 781.793 720.102 746.533C721.597 737.317 723.468 724.81 725.042 715.607C726.203 718.267 726.822 722.022 727.234 723.654C732.287 743.712 737.509 763.73 742.281 783.855C747.1 804.169 751.517 824.58 755.966 844.981C756.558 847.698 757.547 849.562 760.163 850.738C763.681 852.321 767.045 854.248 770.815 856.204C770.12 868.162 769.426 880.103 768.698 892.652C765.989 891.151 764.231 889.897 762.276 889.169C760.309 888.436 758.154 887.889 756.072 887.854C750.478 887.759 747.923 891.531 749.996 896.738C751.895 901.506 755.8 904.017 760.479 905.425C762.846 906.138 765.295 906.573 767.744 907.142C767.744 909.969 767.838 912.491 767.727 915.006C767.325 923.975 766.85 932.943 766.411 941.909C766.051 949.258 769.565 954.469 776.072 957.104C780.497 958.895 785.423 960.182 790.162 960.318C805.356 960.758 820.58 961.193 835.772 960.592C851.185 959.983 857.319 959.003 868.82 957.117C876.137 955.916 884.952 952.936 891.782 949.849C898.097 946.994 903.335 942.888 906.608 936.651C909.762 930.639 907.377 923.334 901.262 920.404C895.957 917.862 890.509 915.351 884.851 913.927Z" fill="black"/>
</g>
</g>
<g id="Head">
<g id="Head/Straight Long">
<path id="Shape" fill-rule="evenodd" clip-rule="evenodd" d="M763.705 70.7034C779.186 75.068 790.55 83.7531 797.799 96.7589L785.19 100.252C792.366 108.97 796.479 118.567 797.529 129.043L799.502 136.058L797.799 139.704L807.772 153.322L793.561 154.603C792.536 156.496 791.308 158.286 789.878 159.971L804.321 201.539L793.323 207.987L770.021 208.726L755.211 207.987L751.214 191.171L752.65 206.681H751.898C751.11 214.301 745.86 220.19 739.5 220.19C733.193 220.19 727.978 214.399 727.123 206.871L727.251 206.681C717.21 221.732 705.068 229.258 690.825 229.258C676.582 229.258 665.746 227.798 658.317 224.877C656.971 185.211 660.756 153.555 669.671 129.91L670.251 128.38C678.919 105.622 686.386 91.2681 692.652 85.3175L705.906 74.7364C728.959 67.6832 748.225 66.3389 763.705 70.7034ZM722.442 157.19L726.217 196.04L726.052 191.54C725.388 174.537 724.456 163.329 723.255 157.915L722.442 157.19Z" fill="white"/>
<path id="Stroke_2" fill-rule="evenodd" clip-rule="evenodd" d="M681.084 182.513C681.162 182.114 681.241 181.711 681.298 181.307C681.703 178.455 677.351 177.802 676.881 180.645C676.838 180.907 676.801 181.172 676.763 181.436C676.754 181.502 676.745 181.568 676.735 181.633C676.096 186.07 675.334 190.491 674.572 194.912C672.772 205.348 670.973 215.785 670.796 226.437C670.794 226.606 670.767 226.803 670.736 227.025C670.685 227.402 670.624 227.849 670.658 228.335C670.233 228.226 669.777 228.11 669.306 227.99C667.602 227.556 665.689 227.068 664.215 226.637C660.819 225.643 659.05 223.443 659.299 219.792C659.339 219.209 659.324 218.622 659.309 218.034C659.3 217.711 659.292 217.388 659.292 217.065C659.352 190.444 662.219 173.094 667.342 147.002C670.656 130.124 676.369 114.075 685.632 99.4559C688.851 94.3749 692.298 89.4559 698.145 86.9289C699.107 86.5129 699.993 85.7259 700.686 84.9149C705.936 78.7729 712.995 75.6419 720.601 74.5949C729.011 73.4379 737.615 73.1079 746.113 73.3069C759.817 73.6269 772.571 77.6339 784.133 85.1519C787.917 87.6129 791.655 92.1453 794.727 96.1723C795.756 97.9598 792.365 99.1029 791.704 99.2089C789.957 99.49 788.209 99.771 786.461 100.052C786.566 99.9708 785.981 99.1656 785.615 98.7255C785.211 98.241 785.071 98.1991 786.407 100.053C786.348 100.035 786.247 99.9725 786.092 99.8505C785.213 99.1605 780.735 98.8425 780.253 99.8505C780.17 100.023 780.099 100.163 780.041 100.278C779.892 100.573 779.827 100.702 779.858 100.799C779.883 100.874 779.966 100.93 780.112 101.029C780.129 101.04 780.145 101.051 780.163 101.063C770.561 102.604 760.959 104.14 751.355 105.667C747.889 106.218 744.42 106.755 740.952 107.292C734.01 108.366 727.069 109.441 720.147 110.628C715.036 111.504 715.027 111.707 715.021 117.023C715.018 119.918 715.028 121.52 715.065 123.298C714.936 123.259 714.8 123.235 714.658 123.23C714.47 123.223 714.297 123.247 714.151 123.302C713.798 123.435 713.444 123.567 713.091 123.699C707.189 125.907 701.259 128.125 697.502 133.811C692.796 140.934 694.934 150.008 702.2 154.491C703.264 155.148 704.362 155.691 705.488 156.131C705.321 156.292 705.165 156.465 705.023 156.641C702.185 160.17 699.345 163.718 696.814 167.467C695.618 169.237 696.235 171.227 698.6 171.583C702.453 172.163 706.32 172.671 710.194 173.112C710.164 173.487 710.161 173.866 710.176 174.232C710.254 176.08 710.303 177.931 710.352 179.782C710.478 184.478 710.603 189.175 711.187 193.813C711.927 199.692 713.02 205.527 714.128 211.447C714.607 214.005 715.089 216.58 715.546 219.18C710.05 223.319 704.126 226.541 697.029 227.629C696.503 225.583 696.513 223.521 696.523 221.486C696.527 220.849 696.53 220.214 696.516 219.583C696.457 216.763 692.212 216.719 692.145 219.539C692.117 220.724 692.196 221.916 692.273 223.095C692.396 224.954 692.516 226.782 692.213 228.5C691.317 228.577 690.401 228.671 689.469 228.766C684.909 229.232 679.97 229.736 675.132 228.538C675.247 226.883 675.333 225.247 675.417 223.626C675.602 220.089 675.783 216.627 676.258 213.206C677.04 207.588 677.952 201.988 678.864 196.388C679.558 192.124 680.253 187.86 680.889 183.588C680.942 183.237 681.012 182.877 681.084 182.513ZM714.215 173.546C714.293 174.417 714.316 175.301 714.337 176.174L714.341 176.332C714.624 187.626 715.843 198.809 718.323 209.839C718.529 210.758 718.798 211.661 719.134 212.796C719.314 213.402 719.514 214.075 719.734 214.85C720.241 214.311 720.708 213.817 721.147 213.353C722.054 212.394 722.842 211.561 723.615 210.715C723.834 210.477 724.048 210.204 724.264 209.929C724.702 209.371 725.151 208.8 725.673 208.464C725.308 208.253 725.004 207.916 724.841 207.452C724.398 206.192 724.021 205.027 723.919 203.838C723.046 193.618 722.264 183.39 721.483 173.163V173.161L721.482 173.143C721.214 169.635 720.946 166.128 720.675 162.622C720.604 161.713 720.524 160.806 720.43 159.732L720.429 159.73V159.729C720.376 159.121 720.317 158.46 720.254 157.716C719.579 157.716 718.921 157.717 718.275 157.719C717.815 157.72 717.36 157.721 716.909 157.721C717.655 161.9 718.358 166.088 719.012 170.282C719.351 172.456 718.052 173.922 715.854 173.709C715.307 173.656 714.761 173.602 714.215 173.546ZM727.639 208.468C727.732 208.522 727.826 208.582 727.923 208.651C729.78 209.973 728.693 211.392 727.715 212.67C727.553 212.881 727.395 213.088 727.253 213.289C721.673 221.231 714.251 226.936 705.143 230.05C691.559 234.696 677.687 235.037 663.834 231.158C656.899 229.216 655.024 226.652 655.002 219.395C654.902 187.463 658.1 164.885 665.976 133.896C669.487 120.082 675.112 107.072 683.11 95.2009C686.347 90.3959 689.76 85.6729 695.478 83.4109C696.147 83.1459 696.745 82.7349 697.21 82.1859C704.57 73.5049 714.644 70.3699 725.3 69.2329C737.801 67.8999 750.371 68.0689 762.693 71.1579C775.239 74.3029 786.641 79.6349 795.756 89.1309C795.895 89.2756 796.035 89.4193 796.176 89.563C796.671 90.0704 797.167 90.5785 797.606 91.1309C800.887 95.2549 799.896 102.341 794.727 103.236C792.956 103.543 791.184 103.846 789.411 104.145C792.708 108.732 793.675 110.77 795.525 114.675L795.526 114.676C796.002 115.68 796.536 116.807 797.183 118.131C800.666 125.262 801.719 133.346 799.95 141.266C800.554 141.282 801.461 141.584 801.754 141.968C804.498 145.557 807.226 149.176 809.657 152.978C811.032 155.128 810.228 157.036 807.75 157.456C803.31 158.211 798.802 158.651 794.304 158.923C794.085 158.937 793.86 158.865 793.633 158.738C793.069 158.426 792.725 157.893 792.608 157.315C792.149 158.074 791.687 158.815 791.214 159.537C791.99 159.792 792.418 160.54 792.598 161.585C794.398 172.027 798.143 181.832 801.889 191.638C803.059 194.7 804.229 197.762 805.339 200.844C806.82 204.953 806.203 206.231 802.18 208.137C795.73 211.192 788.94 213.434 781.81 213.548C775.98 213.643 770.14 213.267 764.304 212.891H764.303H764.3C762.54 212.778 760.78 212.664 759.021 212.564C757.666 212.487 756.312 212.033 755.002 211.593L754.805 211.527C753.24 211.004 751.349 210.264 752.22 208.241C752.328 207.991 752.649 207.793 753.075 207.643C752.137 206.874 751.791 204.936 751.465 203.112L751.416 202.836C751.017 200.619 750.855 199.398 750.726 198.422C750.543 197.049 750.426 196.163 749.802 193.666L749.677 193.165L749.509 192.49L749.506 192.476L749.505 192.475C748.158 187.052 748.129 186.934 745.47 185.265C745.042 185.077 744.061 184.387 743.046 183.674C742.5 183.291 741.945 182.901 741.461 182.578C740.816 182.149 740.228 181.645 739.739 181.044C739.33 180.541 739.208 180.217 739.259 179.32C739.379 177.196 741.263 177.048 742.984 176.912C743.338 176.885 743.685 176.857 744.008 176.813C745.187 176.654 746.376 176.563 747.565 176.473H747.566C748.732 176.384 749.898 176.295 751.056 176.141C768.001 173.883 779.261 166.665 789.493 152.716C797.332 142.03 797.799 129.658 792.744 119.338C792.397 118.629 792.076 117.963 791.77 117.33L791.768 117.325C789.621 112.873 788.241 110.011 783.984 105.052C775.919 106.384 767.843 107.659 759.767 108.924C753.252 109.945 746.731 110.929 740.209 111.913C734.878 112.717 729.547 113.522 724.218 114.346C723.141 114.513 722.084 114.809 721.083 115.089C720.632 115.215 720.193 115.338 719.769 115.444C719.769 117.308 719.777 118.726 719.783 119.966C719.797 122.648 719.806 124.495 719.728 128.211C719.721 128.56 719.744 128.946 719.768 129.344C719.869 131.053 719.985 132.991 717.8 133.154C715.061 133.358 715.129 131.215 715.188 129.335C715.2 128.971 715.211 128.617 715.201 128.291L715.194 128.049C715.184 127.708 715.174 127.385 715.165 127.077C714.455 127.536 713.657 127.874 712.857 128.213C712.283 128.457 711.707 128.701 711.162 128.991C710.465 129.36 709.751 129.71 709.035 130.06H709.035C707.13 130.993 705.22 131.929 703.626 133.242C696.415 139.179 697.874 148.393 706.528 151.824C708.126 152.457 709.865 152.779 711.612 153.023C711.519 151.72 711.541 150.417 711.754 149.114C713.907 148.195 715.245 148.752 715.569 150.458C715.756 151.439 715.94 152.42 716.122 153.401C716.693 153.382 717.266 153.341 717.838 153.301H717.838H717.839H717.839H717.84C718.171 153.277 718.501 153.254 718.831 153.235C724.199 152.922 724.592 153.303 724.837 158.843C724.871 159.618 724.904 160.394 724.937 161.17C725.114 165.288 725.29 169.407 725.621 173.513C726.451 183.816 727.387 194.111 728.341 204.403C728.363 204.64 728.393 204.878 728.424 205.116C728.521 205.856 728.617 206.601 728.449 207.341C728.329 207.865 728.025 208.241 727.639 208.468ZM786.412 100.06C786.411 100.057 786.409 100.055 786.407 100.053C786.414 100.055 786.42 100.057 786.426 100.057C786.421 100.058 786.417 100.059 786.412 100.06ZM737.667 79.5902C746.223 80.4412 754.618 83.7162 762.853 87.4322C763.012 87.5042 763.15 87.6242 763.274 87.7772C764.331 89.0952 763.312 91.1082 761.625 91.2032C761.464 91.2132 761.305 91.2052 761.151 91.1772C759.891 90.9469 758.682 90.4332 757.474 89.9199C757.009 89.7222 756.544 89.5245 756.076 89.3432C749.677 86.8612 743.277 84.3912 736.315 83.9782C736.22 83.9725 736.12 83.969 736.018 83.9655C735.549 83.9492 735.043 83.9315 734.745 83.6882V83.6879C734.678 83.632 734.611 83.5761 734.546 83.5182C733.332 82.4362 733.497 80.3912 734.948 79.6572C734.957 79.6532 734.965 79.6492 734.973 79.6452C735.352 79.4572 735.842 79.4919 736.494 79.5382C736.837 79.5626 737.226 79.5902 737.667 79.5902ZM798.817 145.24C798.092 147.32 797.163 149.376 796.024 151.385C795.85 151.692 795.678 151.996 795.508 152.297L795.507 152.298V152.299C795.015 153.169 794.535 154.017 794.059 154.845C794.076 154.841 794.093 154.837 794.11 154.834C796.357 154.39 798.642 154.135 801.234 153.846V153.845C802.288 153.728 803.393 153.604 804.568 153.46C803.946 152.601 803.388 151.839 802.878 151.142L802.876 151.14C801.811 149.685 800.951 148.51 800.136 147.305C800.043 147.168 799.948 147.031 799.853 146.892C799.484 146.357 799.106 145.808 798.817 145.24ZM788.424 163.384C786.318 165.967 783.852 168.277 780.605 170.342C774.776 174.049 768.551 176.81 762.001 178.752C762.305 179.125 762.562 179.559 762.706 179.936C762.925 180.508 762.918 181.158 762.911 181.815V181.816C762.906 182.271 762.901 182.73 762.971 183.168C764.033 189.769 765.118 196.367 766.221 203.078L766.223 203.089L766.224 203.094L766.225 203.102C766.55 205.081 766.878 207.07 767.206 209.072H779.665C779.48 208.432 779.297 207.812 779.118 207.205V207.204V207.203L779.117 207.202C778.73 205.887 778.36 204.632 778.023 203.368C777.847 202.708 777.666 202.049 777.486 201.39C776.853 199.077 776.22 196.764 775.759 194.417C775.686 194.045 775.571 193.639 775.452 193.221C774.941 191.425 774.363 189.392 776.775 188.807C779.201 188.22 779.462 190.079 779.705 191.815C779.781 192.357 779.856 192.888 779.994 193.328C780.752 195.739 781.442 198.172 782.133 200.605V200.606V200.607C782.629 202.353 783.124 204.1 783.645 205.838C783.812 206.398 784.102 206.921 784.425 207.506C784.586 207.796 784.755 208.102 784.922 208.435C790.75 208.282 795.841 206.141 801.372 203.449C801.171 202.854 800.975 202.271 800.783 201.698L800.774 201.674L800.772 201.668L800.764 201.644C800.327 200.344 799.906 199.092 799.479 197.841C798.538 195.086 797.587 192.334 796.636 189.582C794.215 182.571 791.793 175.56 789.521 168.501C788.993 166.857 788.45 165.121 788.424 163.384ZM758.729 179.649C757.65 179.92 756.563 180.171 755.468 180.401C754.79 180.544 754.117 180.71 753.318 180.908C752.898 181.011 752.443 181.123 751.935 181.245C752.21 182.794 752.482 184.324 752.752 185.842C753.415 189.57 754.064 193.221 754.71 196.872C755.089 199.016 755.468 201.161 755.822 203.31C755.853 203.501 755.89 203.699 755.927 203.9C756.153 205.128 756.407 206.501 755.697 207.308C755.75 207.31 755.801 207.313 755.851 207.317C757.284 207.423 758.702 207.745 760.349 208.119L760.351 208.12H760.354C761.108 208.292 761.91 208.474 762.784 208.651C762.476 207.119 762.172 205.659 761.879 204.248C761.234 201.148 760.638 198.282 760.148 195.397C759.481 191.465 759.009 187.499 758.548 183.536C758.403 182.288 758.311 180.919 758.686 179.765C758.699 179.727 758.713 179.688 758.729 179.649ZM702.108 167.402C704.715 167.747 706.885 168.034 708.979 168.31L713.607 168.922C713.986 165.614 713.302 162.373 712.625 159.165L712.625 159.164C712.516 158.652 712.409 158.141 712.305 157.63C711.148 157.543 710.01 157.385 708.894 157.147C708.901 157.922 708.65 158.858 708.281 159.408C707.094 161.179 705.754 162.846 704.196 164.783C703.54 165.599 702.846 166.463 702.108 167.402ZM727.062 88.8925C728.399 89.5875 728.401 91.5415 727.045 92.1975C726.577 92.4245 726.16 92.5655 725.746 92.5595C723.261 92.5195 720.736 92.2405 718.328 91.6495C717.988 91.5665 717.687 91.3225 717.404 91.0065C716.478 89.9705 716.657 88.2575 717.916 87.6685C718.067 87.5985 718.217 87.5605 718.363 87.5705C719.005 87.6125 719.656 87.6239 720.316 87.6355C722.513 87.674 724.794 87.714 727.062 88.8925Z" fill="black"/>
</g>
</g>
<g id="Body">
<g id="Body/Namaste">
<path id="Fill_2" fill-rule="evenodd" clip-rule="evenodd" d="M592.563 287.272L578.214 278.055C578.214 278.055 645.242 210.045 705.82 207.486C766.398 204.927 807.003 224.509 807.003 224.509L849.839 247.231L888.657 274.631L887.085 287.272L908.396 314.066L927.402 343.077C927.402 343.077 929 350.213 929 353.573C929 356.932 919.502 374.403 853.416 359.961C787.331 345.518 843.301 365.715 843.301 365.715L847.592 372.223C847.592 372.223 845.447 386.239 845.447 389.119C845.447 391.998 804.675 399.522 804.675 399.522C804.675 399.522 690.996 408.858 654.536 399.522C645.419 397.187 654.536 365.715 654.536 365.715L647.329 363.559C647.329 363.559 596.739 382.142 571.367 378.558C545.996 374.973 559.953 339.476 559.953 339.476L599.546 289.218L592.563 287.272Z" fill="white"/>
<path id="Stroke_3" fill-rule="evenodd" clip-rule="evenodd" d="M653.878 394.763C657.472 395.387 658.717 396.834 662.085 397.133C669.139 397.758 676.223 398.033 683.283 398.595C693.783 399.431 704.264 401.004 714.77 401.167C735.282 401.483 755.806 401.202 776.258 399.111C795.962 397.096 815.622 394.887 834.623 388.888C835.384 388.648 843.206 385.589 843.206 385.589C843.206 385.589 841.788 374.341 843.206 373.859C841.48 373.11 838.069 370.842 837.326 370.511C818.257 362.03 807.214 357.29 788.216 348.652C783.092 346.321 770.422 340.213 765.679 338.64C761.615 337.68 756.386 336.889 752.308 335.995C747.025 334.838 743.099 331.862 740.258 327.351C737.216 322.518 735.388 317.229 734.382 311.627C733.788 308.327 733.053 305.053 732.444 301.755C730.801 307.301 728.789 312.75 727.329 318.343C725.248 326.311 721.622 333.518 715.143 338.509C707.105 344.699 698.768 350.687 689.906 355.579C677.87 362.224 665.216 367.749 652.608 373.859L653.878 394.763ZM760.795 295.261C761.013 297.219 762.589 300.215 759.402 300.656C756.372 301.075 756.695 297.768 756.395 295.81C755.463 289.712 754.951 283.547 753.911 277.471C753.367 274.292 752.452 271.043 751.001 268.184C748.839 263.925 745.85 264.229 743.449 268.41C745.146 271.1 747.488 273.487 748.274 276.308C750.506 284.326 752.105 292.52 753.945 300.646C754.024 300.996 754.053 301.421 754.005 301.708C753.772 303.074 753.061 303.449 752.416 303.591C751.591 303.773 750.608 303.293 750.236 302.537C749.612 301.27 749.386 299.798 749.07 298.393C747.674 292.201 746.437 285.971 744.86 279.828C744.22 277.332 743.299 274.691 740.628 273.498C739.217 279.03 737.862 284.285 736.55 289.551C736.334 290.419 736.1 291.37 736.236 292.226C737.506 300.282 738.472 308.413 740.28 316.351C742.294 325.194 747.702 330.458 757.133 332.576C770.207 335.512 782.97 339.837 795.86 343.586C804.921 346.221 813.878 349.283 823.049 351.443C835.563 354.391 848.203 356.84 860.851 359.17C872.441 361.307 883.972 364.33 895.892 363.677C902.93 363.293 910.061 362.877 916.919 361.403C925.215 359.619 928.332 353.496 924.915 345.718C921.797 338.614 918.186 331.545 913.656 325.283C903.957 311.879 892.938 299.535 880.586 288.453C878.869 286.913 877.142 285.384 875.218 283.668C859.161 291.52 843.09 298.561 829.428 311.255C843.972 314.864 857.947 317.508 871.579 321.157C873.795 321.751 873.466 325.086 871.172 325.138C871.156 325.138 871.141 325.139 871.124 325.139C869.703 325.157 868.26 324.798 866.852 324.486C853.914 321.626 841.063 318.282 828.027 315.982C811.732 313.106 795.254 311.267 778.872 308.885C777.713 308.715 776.547 308.606 775.382 308.485C772.448 308.182 770.885 307.054 770.119 303.847C768.267 296.094 765.841 288.475 763.483 280.853C762.703 278.33 761.509 275.894 758.239 274.196C759.157 281.666 760.038 288.457 760.795 295.261ZM593.114 300.698C582.4 311.159 570.855 326.358 562.74 338.878C559.833 343.363 557.798 348.6 556.299 353.763C554.215 360.948 557.163 369.637 562.785 372.578C566.856 374.708 571.629 376.608 576.103 376.641C588.246 376.731 600.423 376.091 612.198 372.392C625.881 368.092 639.92 364.741 653.249 359.553C671.679 352.378 689.48 343.606 707.772 336.057C716.062 332.636 720.158 326.507 722.64 318.525C725.972 307.803 729.575 297.163 732.785 286.406C734.4 280.994 736.577 275.502 734.588 269.497C731.953 268.265 729.281 273.269 726.85 278.552C723.439 285.964 720.516 293.6 717.33 301.118C716.629 302.772 715.835 304.429 714.791 305.873C714.431 306.372 713.01 306.577 712.385 306.274C711.806 305.993 711.429 304.873 711.362 304.089C711.308 303.45 711.854 302.765 712.12 302.095C717.13 289.525 720.783 276.296 730.228 265.886C726.973 264.286 725.88 264.06 723.862 266.336C721.248 269.283 718.768 272.539 717.064 276.065C713.671 283.084 710.807 290.362 707.817 297.571C707.37 298.649 706.983 299.714 706.193 300.422C704.983 301.507 702.898 300.6 702.991 298.978C702.997 298.884 703.011 298.793 703.038 298.705C706.577 286.686 711.827 275.408 717.957 264.444C713.859 263.062 704.07 273.551 702.642 282.752C701.277 291.545 699.882 300.335 698.631 309.144C697.801 314.991 697.864 315.092 692.085 315.455C684.475 315.933 676.8 315.868 669.26 316.858C653.611 318.912 638.031 321.497 622.427 323.892C621.146 324.088 619.859 324.491 618.567 324.464C616.766 324.426 615.475 322.667 615.861 320.907C615.91 320.687 615.965 320.469 616.029 320.257C616.568 318.472 618.398 317.582 620.11 318.32C621.19 318.786 622.187 319.172 623.117 319.05C628.082 318.397 632.983 317.252 638.239 316.231C635.446 308.374 630.295 303.179 623.566 299.575C617.497 296.326 611.203 293.448 601.915 290.882C597.18 295.805 597.984 294.838 593.114 300.698ZM738.175 266.151C738.967 265.52 740.828 265.845 741.064 265.581C744.088 260.497 750.938 260.393 755.003 265.763C755.796 266.872 757.136 269.155 757.136 269.155C763.29 269.983 766.059 274.22 767.636 279.099C770.244 287.172 772.597 295.327 775.146 303.734C775.504 303.837 776.181 304.117 776.884 304.216C791.453 306.257 806.035 308.215 820.587 310.366C821.866 310.555 824.033 310.743 824.033 310.743C824.431 310.054 825.471 308.911 826.283 308.106C831.716 302.722 837.607 297.956 844.517 294.513C854.424 289.575 864.221 284.417 874.154 279.537C877.004 278.138 881.929 277.16 885.63 275.865C882.557 272.845 878.437 270.265 875.623 268.058C853.937 251.056 830.431 237.083 804.989 226.466C796.621 222.975 788.084 219.883 779.569 216.76C778.523 216.377 775.637 215.486 775.637 215.486C775.637 215.486 774.239 216.12 772.989 217.016C765.527 222.364 756.982 225.372 747.938 226.79C737.108 228.49 726.632 226.692 716.296 223.36C710.532 221.502 704.641 219.687 700.794 214.834C699.808 213.59 698.063 211.353 698.063 211.353C698.063 211.353 694.605 211.761 692.75 211.914C680.589 212.92 669.386 217.201 658.572 222.385C630.349 235.917 605.351 254.291 581.658 274.546C580.777 275.299 578.901 277.117 577.837 278.4C584.984 280.339 592.822 281.45 599.472 283.136C618.672 288.006 635.017 295.956 643.137 314.502C659.637 313.068 677.377 311.85 693.988 310.406C694.223 308.496 694.433 306.721 694.661 304.948C695.379 299.363 696.144 293.782 696.816 288.19C698.146 277.1 703.201 268.518 712.604 262.093C716.03 259.751 720.224 260.129 723.181 262.132C723.181 262.132 725.062 260.504 729.82 261.39C732.619 262.086 733.309 264.014 733.73 264.355C733.73 264.355 737.244 264.378 738.175 266.151ZM764.172 216.2C761.077 214.673 758.66 213.514 756.275 212.291C754.986 211.63 752.884 211.017 751.561 209.953C750.877 209.403 749.674 208.801 749.897 207.653C750.078 206.179 752.108 206.053 752.798 206.15C758.327 206.93 764.339 207.676 770.308 208.993C794.22 216.14 817.049 225.996 838.909 237.999C857.599 248.261 874.467 261.206 891.094 274.463C894.627 277.279 895.387 281.125 893.581 284.731C892.395 287.1 889.589 290.057 889.589 290.057C889.589 290.057 894.464 295.629 896.719 298.04C903.786 305.594 910.582 313.486 916.692 321.822C921.274 328.072 924.946 335.069 928.416 342.036C934.876 355.006 926.946 364.478 915.915 366.468C902.323 368.921 888.807 368.756 875.28 366.377C868.125 365.12 861.019 363.576 853.882 362.207C852.331 361.909 850.743 361.805 848.619 361.544C849.142 364.021 849.549 383.598 849.955 385.521C850.962 390.283 850.391 388.866 845.751 390.586C823.054 399.004 799.364 402.212 775.441 404.322C748.254 406.72 721.037 407.286 693.81 405.354C680.571 404.415 667.373 402.876 654.158 401.6C653.229 401.51 652.305 401.373 651.394 401.171C647.928 400.399 647.108 384.07 647.264 380.41C647.453 375.932 648.275 371.481 648.907 366.332C646.295 367.026 644.578 367.434 642.89 367.938C634.887 370.326 626.827 372.549 618.907 375.189C605.482 379.664 591.656 381.081 577.62 381.327C571.624 381.432 566.095 379.86 560.985 376.904C553.411 372.525 549.626 362.165 551.84 352.519C553.282 346.237 555.73 340.335 559.63 335.25C567.254 325.314 575.159 315.595 582.987 305.818C584.795 303.56 586.76 301.428 588.934 298.915C586.782 297.5 584.848 296.233 582.919 294.957C578.584 292.091 575.07 288.558 573.179 283.559C571.803 279.925 572.147 276.825 575.292 274.28C586.026 265.594 596.495 256.555 607.544 248.292C624.162 235.863 641.847 225.118 660.632 216.162C673.499 210.027 686.963 207.155 701.093 206.455C708.332 206.095 715.532 204.967 722.764 204.376C723.159 204.343 723.563 204.421 723.972 204.556C725.345 205.007 725.893 206.708 725.067 207.894C724.802 208.277 724.502 208.605 724.139 208.824C719.985 211.318 715.002 212.827 707.871 214.546C732.052 224.242 746.1 226.468 764.172 216.2Z" fill="black"/>
</g>
</g>
<g id="Face">
<g id="Face/Smile">
<path id="Stroke_4" fill-rule="evenodd" clip-rule="evenodd" d="M772.669 138.638L772.669 138.639L772.669 138.641C772.984 139.941 773.303 141.26 773.621 142.604C772.894 142.675 772.21 142.729 771.559 142.781C770.001 142.904 768.629 143.012 767.297 143.304C766.655 143.445 765.821 144.508 765.803 145.168C765.787 145.79 766.634 146.843 767.271 146.996C769.192 147.454 771.19 147.695 773.169 147.789C777.784 148.009 779.135 146.479 778.171 141.982C777.262 137.745 776.198 133.539 775.134 129.335L774.869 128.286C774.802 128.02 774.742 127.735 774.681 127.442C774.318 125.705 773.907 123.733 771.581 124.285C769.285 124.829 769.811 126.699 770.271 128.33V128.33C770.368 128.676 770.463 129.012 770.527 129.322C771.161 132.408 771.902 135.471 772.669 138.638ZM754.236 154.367C755.525 158.607 762.304 163.282 768.173 163.374C772.105 163.262 775.794 160.432 778.961 156.776C779.423 156.244 779.591 154.651 779.256 154.398C778.527 153.851 777.197 153.41 776.455 153.728C775.605 154.091 774.877 154.733 774.147 155.378C773.773 155.707 773.399 156.038 773.007 156.332C768.182 159.958 764.794 159.729 760.54 155.42C760.107 154.981 759.736 154.475 759.365 153.971V153.971C758.867 153.294 758.371 152.619 757.734 152.117C757.03 151.563 755.538 151.214 754.904 151.601C754.313 151.962 753.984 153.538 754.236 154.367ZM749.603 141.044C748.55 137.601 750.285 133.227 753.072 132.304C755.207 131.595 757.264 133.049 758.151 135.89C759.269 139.475 757.454 143.505 754.37 144.286C752.207 144.833 750.383 143.593 749.603 141.044ZM788.156 143.789C790.676 144.04 792.888 141.592 793.049 138.372C793.201 135.353 791.048 132.568 788.547 132.548C786.233 132.529 784.577 134.744 784.445 138.033C784.314 141.305 785.761 143.549 788.156 143.789Z" fill="black"/>
</g>
</g>
</g>
</g>
</g>
</g>
<defs>
<filter id="filter0_d_2_3" x="17.2422" y="26.4859" width="1264.37" height="943.705" filterUnits="userSpaceOnUse" color-interpolation-filters="sRGB">
<feFlood flood-opacity="0" result="BackgroundImageFix"/>
<feColorMatrix in="SourceAlpha" type="matrix" values="0 0 0 0 0 0 0 0 0 0 0 0 0 0 0 0 0 0 127 0" result="hardAlpha"/>
<feOffset dy="4"/>
<feGaussianBlur stdDeviation="2"/>
<feComposite in2="hardAlpha" operator="out"/>
<feColorMatrix type="matrix" values="0 0 0 0 0 0 0 0 0 0 0 0 0 0 0 0 0 0 0.25 0"/>
<feBlend mode="normal" in2="BackgroundImageFix" result="effect1_dropShadow_2_3"/>
<feBlend mode="normal" in="SourceGraphic" in2="effect1_dropShadow_2_3" result="shape"/>
</filter>
</defs>
</svg>
