<svg viewBox="33.64516129032256 180.1875 660.8870967741937 612.6375" fill="none" xmlns="http://www.w3.org/2000/svg" xmlns:xlink="http://www.w3.org/1999/xlink" overflow="visible" width="660.8870967741937px" height="612.6375px"><g id="Master/Character/Sitting On Chair"><g id="Head" transform="translate(66 125) scale(1 1)"><g id="Head/Straight Long"><path id="Shape" fill-rule="evenodd" clip-rule="evenodd" d="M145.705 64.5129C161.186 68.8775 172.55 77.5626 179.799 90.5684L167.19 94.0616C174.366 102.78 178.479 112.377 179.529 122.853L181.502 129.868L179.799 133.514L189.772 147.132L175.561 148.413C174.536 150.306 173.308 152.096 171.878 153.781L186.321 195.349L175.323 201.797L152.021 202.536L137.211 201.797L133.214 184.981L134.65 200.491L133.898 200.491C133.11 208.111 127.86 214 121.5 214C115.193 214 109.978 208.209 109.123 200.681L109.251 200.491C99.2098 215.542 87.0677 223.068 72.825 223.068C58.5823 223.068 47.7462 221.608 40.3166 218.687C38.9706 179.021 42.7555 147.365 51.6712 123.72L52.2509 122.19C60.9193 99.432 68.3862 85.0776 74.6515 79.127L87.9059 68.5459C110.959 61.4927 130.225 60.1484 145.705 64.5129ZM104.442 151L108.217 189.85L108.052 185.35C107.388 168.347 106.456 157.139 105.255 151.725L104.442 151Z" fill="white"/><path id="Stroke" fill-rule="evenodd" clip-rule="evenodd" d="M63.0836 176.323C63.1617 175.924 63.2408 175.521 63.2983 175.117C63.7033 172.265 59.3513 171.612 58.8813 174.455C58.8381 174.717 58.8006 174.982 58.7633 175.246C58.754 175.312 58.7447 175.378 58.7353 175.443C58.0964 179.88 57.3341 184.301 56.5719 188.722C54.7723 199.158 52.9726 209.595 52.7963 220.247C52.7937 220.416 52.7666 220.613 52.7363 220.835C52.6847 221.212 52.6236 221.659 52.6583 222.145C52.2326 222.036 51.7773 221.92 51.306 221.8C49.6017 221.366 47.6888 220.878 46.2153 220.447C42.8193 219.453 41.0503 217.253 41.2993 213.602C41.3393 213.019 41.3239 212.432 41.3085 211.844C41.3 211.521 41.2916 211.198 41.2923 210.875C41.3523 184.254 44.2193 166.904 49.3423 140.812C52.6563 123.934 58.3693 107.885 67.6323 93.2654C70.8513 88.1844 74.2983 83.2654 80.1453 80.7384C81.1073 80.3224 81.9933 79.5354 82.6863 78.7244C87.9363 72.5824 94.9953 69.4514 102.601 68.4044C111.011 67.2474 119.615 66.9174 128.113 67.1164C141.817 67.4364 154.571 71.4434 166.133 78.9614C169.917 81.4224 173.655 85.9548 176.727 89.9818C177.756 91.7693 174.365 92.9124 173.704 93.0184C171.957 93.2995 170.209 93.5805 168.461 93.8614C168.566 93.7803 167.981 92.9751 167.615 92.535C167.211 92.0505 167.071 92.0086 168.407 93.8627C168.348 93.845 168.247 93.782 168.092 93.66C167.213 92.97 162.735 92.652 162.253 93.66C162.17 93.8328 162.099 93.9726 162.041 94.0873C161.892 94.3828 161.827 94.5117 161.858 94.6086C161.883 94.6836 161.966 94.7395 162.112 94.8386C162.129 94.8494 162.145 94.8608 162.163 94.8728C152.561 96.4136 142.959 97.9493 133.355 99.4764C129.889 100.028 126.42 100.565 122.952 101.102C116.01 102.176 109.069 103.251 102.147 104.438C97.0363 105.314 97.0273 105.517 97.0213 110.833C97.0179 113.728 97.0277 115.33 97.0646 117.108C96.9363 117.069 96.8002 117.045 96.6576 117.04C96.4696 117.033 96.2966 117.057 96.1506 117.112C95.7978 117.245 95.4444 117.377 95.0909 117.509C89.1885 119.717 83.2586 121.935 79.5016 127.621C74.7956 134.744 76.9336 143.818 84.1996 148.301C85.2641 148.958 86.3617 149.501 87.4881 149.941C87.321 150.102 87.1648 150.275 87.0228 150.451C84.1848 153.98 81.3448 157.528 78.8138 161.277C77.6178 163.047 78.2348 165.037 80.5998 165.393C84.4534 165.973 88.3201 166.481 92.1938 166.922C92.1639 167.297 92.1611 167.676 92.1763 168.042C92.2537 169.89 92.3031 171.741 92.3524 173.592C92.4776 178.288 92.6027 182.985 93.1873 187.623C93.9274 193.502 95.0196 199.337 96.1278 205.257C96.6067 207.815 97.0885 210.39 97.5463 212.99C92.0503 217.129 86.1263 220.351 79.0293 221.439C78.5031 219.393 78.5133 217.331 78.5233 215.296C78.5265 214.659 78.5296 214.024 78.5163 213.393C78.4573 210.573 74.2123 210.529 74.1453 213.349C74.1169 214.534 74.1955 215.726 74.2732 216.905C74.3956 218.764 74.5161 220.592 74.2133 222.31C73.3172 222.387 72.4011 222.481 71.4692 222.576C66.9091 223.042 61.9697 223.546 57.1323 222.348C57.2473 220.693 57.3327 219.057 57.4174 217.436C57.6022 213.899 57.783 210.437 58.2583 207.016C59.0395 201.398 59.9516 195.798 60.8637 190.198C61.5581 185.934 62.2526 181.67 62.8893 177.398C62.9418 177.047 63.0123 176.687 63.0836 176.323ZM96.2145 167.356C96.2934 168.227 96.3155 169.111 96.3373 169.984L96.3413 170.142C96.6243 181.436 97.8433 192.619 100.323 203.649C100.529 204.568 100.798 205.471 101.134 206.606C101.314 207.212 101.514 207.885 101.734 208.66C102.241 208.121 102.708 207.627 103.147 207.163C104.054 206.204 104.842 205.371 105.615 204.525C105.834 204.287 106.048 204.014 106.264 203.739C106.702 203.181 107.151 202.61 107.673 202.274C107.308 202.063 107.004 201.726 106.841 201.262C106.398 200.002 106.021 198.837 105.919 197.648C105.046 187.428 104.264 177.2 103.483 166.973L103.483 166.971L103.482 166.953C103.214 163.445 102.946 159.938 102.675 156.432C102.604 155.523 102.524 154.616 102.43 153.542L102.429 153.54L102.429 153.539C102.376 152.931 102.317 152.27 102.254 151.526C101.579 151.526 100.921 151.527 100.275 151.529C99.8146 151.53 99.36 151.531 98.9093 151.531C99.6553 155.71 100.358 159.898 101.012 164.092C101.351 166.266 100.052 167.732 97.8538 167.519C97.3073 167.466 96.7608 167.412 96.2145 167.356ZM109.639 202.278C109.732 202.332 109.826 202.392 109.923 202.461C111.78 203.783 110.693 205.202 109.715 206.48C109.553 206.691 109.395 206.898 109.253 207.099C103.673 215.041 96.2513 220.746 87.1433 223.86C73.5593 228.506 59.6873 228.847 45.8343 224.968C38.8993 223.026 37.0243 220.462 37.0023 213.205C36.9023 181.273 40.1003 158.695 47.9763 127.706C51.4873 113.892 57.1123 100.882 65.1103 89.0104C68.3473 84.2054 71.7603 79.4824 77.4783 77.2204C78.1473 76.9554 78.7453 76.5444 79.2103 75.9954C86.5703 67.3144 96.6443 64.1794 107.3 63.0424C119.801 61.7094 132.371 61.8784 144.693 64.9674C157.239 68.1124 168.641 73.4444 177.756 82.9404C177.895 83.0851 178.035 83.2288 178.176 83.3725C178.671 83.8799 179.167 84.388 179.606 84.9404C182.887 89.0644 181.896 96.1504 176.727 97.0454C174.956 97.3523 173.184 97.6552 171.411 97.9548C174.708 102.542 175.675 104.58 177.525 108.485L177.526 108.486C178.002 109.49 178.536 110.617 179.183 111.941C182.666 119.072 183.719 127.156 181.95 135.076C182.554 135.092 183.461 135.394 183.754 135.778C186.498 139.367 189.226 142.986 191.657 146.788C193.032 148.938 192.228 150.846 189.75 151.266C185.31 152.021 180.802 152.461 176.304 152.733C176.085 152.747 175.86 152.675 175.633 152.548C175.069 152.236 174.725 151.703 174.608 151.125C174.149 151.884 173.687 152.625 173.214 153.347C173.99 153.602 174.418 154.35 174.598 155.395C176.398 165.837 180.143 175.642 183.889 185.448L183.889 185.448C185.059 188.51 186.229 191.572 187.339 194.654C188.82 198.763 188.203 200.041 184.18 201.947C177.73 205.002 170.94 207.244 163.81 207.358C157.98 207.453 152.14 207.077 146.304 206.701H146.304H146.303H146.303H146.303H146.303H146.303L146.3 206.701C144.54 206.588 142.78 206.474 141.021 206.374C139.666 206.297 138.312 205.843 137.002 205.403L136.805 205.337C135.24 204.814 133.349 204.074 134.22 202.051C134.328 201.801 134.649 201.603 135.075 201.453C134.137 200.684 133.791 198.746 133.465 196.922L133.416 196.646C133.017 194.429 132.855 193.208 132.726 192.232L132.726 192.232C132.543 190.859 132.426 189.973 131.802 187.476L131.677 186.975L131.509 186.3L131.506 186.286L131.505 186.285C130.158 180.862 130.129 180.744 127.47 179.075C127.042 178.887 126.061 178.197 125.046 177.484C124.5 177.101 123.945 176.711 123.461 176.388C122.816 175.959 122.228 175.455 121.739 174.854C121.33 174.351 121.208 174.027 121.259 173.13C121.379 171.006 123.263 170.858 124.984 170.722C125.338 170.695 125.685 170.667 126.008 170.623C127.187 170.464 128.376 170.373 129.565 170.283L129.565 170.283L129.565 170.283L129.565 170.283L129.565 170.283L129.566 170.283L129.566 170.283C130.732 170.194 131.898 170.105 133.056 169.951C150.001 167.693 161.261 160.475 171.493 146.526C179.332 135.84 179.799 123.468 174.744 113.148C174.397 112.439 174.076 111.773 173.77 111.14L173.768 111.135C171.621 106.683 170.241 103.821 165.984 98.8614C157.919 100.194 149.843 101.469 141.767 102.734C135.252 103.755 128.731 104.739 122.209 105.723C116.878 106.527 111.547 107.332 106.218 108.156C105.141 108.323 104.084 108.619 103.083 108.899C102.632 109.025 102.193 109.148 101.769 109.254C101.769 111.118 101.777 112.536 101.783 113.776C101.797 116.458 101.806 118.305 101.728 122.021C101.721 122.37 101.744 122.756 101.768 123.154C101.869 124.863 101.985 126.801 99.8003 126.964C97.0614 127.168 97.129 125.025 97.1882 123.145C97.1997 122.781 97.2108 122.427 97.2013 122.101L97.1941 121.859C97.1839 121.518 97.1743 121.195 97.1653 120.887C96.4545 121.346 95.6571 121.684 94.8572 122.023L94.8572 122.023C94.2829 122.267 93.7073 122.511 93.1616 122.801C92.465 123.17 91.7505 123.52 91.0353 123.87L91.0353 123.87L91.0352 123.87C89.1304 124.803 87.2199 125.739 85.6256 127.052C78.4146 132.989 79.8736 142.203 88.5276 145.634C90.1257 146.267 91.8646 146.589 93.6123 146.833C93.5186 145.53 93.5412 144.227 93.7538 142.924C95.9068 142.005 97.2448 142.562 97.5688 144.268C97.7556 145.249 97.9402 146.23 98.1224 147.211C98.6932 147.192 99.2662 147.151 99.8378 147.111L99.8382 147.111L99.8386 147.111L99.839 147.111L99.8395 147.111C100.171 147.087 100.501 147.064 100.831 147.045C106.199 146.732 106.592 147.113 106.837 152.653C106.871 153.428 106.904 154.204 106.937 154.98C107.114 159.098 107.29 163.217 107.621 167.323C108.451 177.626 109.387 187.921 110.341 198.213C110.363 198.45 110.393 198.688 110.424 198.926L110.424 198.926C110.521 199.666 110.617 200.411 110.449 201.151C110.329 201.675 110.025 202.051 109.639 202.278ZM168.412 93.8692C168.411 93.867 168.409 93.8649 168.407 93.8627C168.414 93.8647 168.42 93.8661 168.426 93.867C168.421 93.8677 168.417 93.8685 168.412 93.8692ZM119.667 73.3997C128.223 74.2507 136.618 77.5257 144.853 81.2417C145.012 81.3137 145.15 81.4337 145.274 81.5867C146.331 82.9047 145.312 84.9177 143.625 85.0127C143.464 85.0227 143.305 85.0147 143.151 84.9867C141.891 84.7564 140.682 84.2427 139.474 83.7294L139.474 83.7294L139.474 83.7294C139.009 83.5317 138.544 83.334 138.076 83.1527C131.677 80.6707 125.277 78.2007 118.315 77.7877C118.22 77.782 118.12 77.7785 118.018 77.775C117.549 77.7587 117.043 77.741 116.745 77.4977L116.745 77.4974C116.678 77.4415 116.611 77.3856 116.546 77.3277C115.332 76.2457 115.497 74.2007 116.948 73.4667C116.957 73.4627 116.965 73.4587 116.973 73.4547C117.352 73.2667 117.842 73.3014 118.494 73.3477C118.837 73.3721 119.226 73.3997 119.667 73.3997ZM180.817 139.05C180.092 141.13 179.163 143.186 178.024 145.195C177.85 145.502 177.678 145.806 177.508 146.107L177.507 146.108L177.507 146.109L177.507 146.109C177.015 146.979 176.535 147.827 176.059 148.655C176.076 148.651 176.093 148.647 176.11 148.644C178.357 148.2 180.642 147.945 183.234 147.656L183.234 147.655L183.234 147.655C184.288 147.538 185.393 147.414 186.568 147.27C185.946 146.411 185.388 145.649 184.878 144.952L184.878 144.952L184.876 144.95C183.811 143.495 182.951 142.32 182.136 141.115C182.043 140.978 181.948 140.841 181.853 140.702C181.484 140.167 181.106 139.618 180.817 139.05ZM170.424 157.194C168.318 159.777 165.852 162.087 162.605 164.152C156.776 167.859 150.551 170.62 144.001 172.562C144.305 172.935 144.562 173.369 144.706 173.746C144.925 174.318 144.918 174.968 144.911 175.625V175.625V175.625V175.625V175.625V175.626V175.626C144.906 176.081 144.901 176.54 144.971 176.978C146.033 183.579 147.118 190.177 148.221 196.888L148.223 196.899L148.224 196.904L148.225 196.912C148.55 198.891 148.878 200.88 149.206 202.882H161.665C161.48 202.242 161.297 201.622 161.118 201.015L161.118 201.014L161.118 201.013L161.117 201.012C160.73 199.697 160.36 198.442 160.023 197.178C159.847 196.518 159.666 195.859 159.486 195.2C158.853 192.887 158.22 190.574 157.759 188.227C157.686 187.855 157.571 187.449 157.452 187.031C156.941 185.235 156.363 183.202 158.775 182.617C161.201 182.03 161.462 183.889 161.705 185.625C161.781 186.167 161.856 186.698 161.994 187.138C162.752 189.549 163.442 191.982 164.133 194.415L164.133 194.416L164.133 194.416L164.133 194.417L164.133 194.417L164.133 194.417L164.133 194.417C164.629 196.163 165.124 197.91 165.645 199.648C165.812 200.208 166.102 200.731 166.425 201.316C166.586 201.606 166.755 201.912 166.922 202.245C172.75 202.092 177.841 199.951 183.372 197.259C183.171 196.664 182.975 196.081 182.783 195.508L182.774 195.484L182.772 195.478L182.764 195.454C182.327 194.154 181.906 192.902 181.479 191.651C180.538 188.896 179.587 186.144 178.636 183.392C176.215 176.381 173.793 169.37 171.521 162.311C170.993 160.667 170.45 158.931 170.424 157.194ZM140.729 173.459C139.65 173.73 138.563 173.981 137.468 174.211C136.79 174.354 136.117 174.52 135.318 174.718L135.318 174.718C134.898 174.821 134.443 174.933 133.935 175.055C134.21 176.604 134.482 178.134 134.752 179.652C135.415 183.38 136.064 187.031 136.71 190.682C137.089 192.826 137.468 194.971 137.822 197.12C137.853 197.311 137.89 197.509 137.927 197.71C138.153 198.938 138.407 200.311 137.697 201.118C137.75 201.12 137.801 201.123 137.851 201.127C139.284 201.233 140.702 201.555 142.349 201.929L142.351 201.93L142.354 201.93C143.108 202.102 143.91 202.284 144.784 202.461C144.476 200.929 144.172 199.469 143.879 198.058C143.234 194.958 142.638 192.092 142.148 189.207C141.481 185.275 141.009 181.309 140.548 177.346C140.403 176.098 140.311 174.729 140.686 173.575C140.699 173.537 140.713 173.498 140.729 173.459ZM84.1078 161.212C86.7153 161.557 88.885 161.844 90.9793 162.12L95.6068 162.732C95.9862 159.424 95.3021 156.183 94.6247 152.975L94.6245 152.974C94.5164 152.462 94.4086 151.951 94.3052 151.44C93.1482 151.353 92.0099 151.195 90.8938 150.957C90.9011 151.732 90.6498 152.668 90.2808 153.218C89.0944 154.989 87.754 156.656 86.1962 158.593C85.5402 159.409 84.8457 160.273 84.1078 161.212ZM109.062 82.702C110.399 83.397 110.401 85.351 109.045 86.007C108.577 86.234 108.16 86.375 107.746 86.369C105.261 86.329 102.736 86.05 100.328 85.459C99.9882 85.376 99.6872 85.132 99.4042 84.816C98.4782 83.78 98.6572 82.067 99.9162 81.478C100.067 81.408 100.217 81.37 100.363 81.38C101.005 81.422 101.656 81.4334 102.316 81.445C104.513 81.4835 106.794 81.5235 109.062 82.702Z" fill="black"/></g></g><g id="Bottom/Sitting On Chair" transform="translate(89 467) scale(1 1)"><g id="Bottom/Sitting On Chair/Pants"><path id="Fill" fill-rule="evenodd" clip-rule="evenodd" d="M36.6731 55.1542L151.662 39.3782C151.662 39.3782 306.414 -1.13249e-05 320.454 -1.13249e-05C334.494 -1.13249e-05 414.786 -11.6364 423.109 27.185C430.579 53.3721 394.256 113.963 394.256 113.963L479.245 190.625L483.788 186.971L498.314 194.008L505.013 201.158L501.636 208.691L529.854 221.118C529.854 221.118 555.579 181.649 575.447 183.325C586.258 185 595.315 214.509 595.315 214.509L526.755 280.988L476.551 239.113L471.094 241.525L353.594 175.933L326.8 213.74L328.917 219.496L317.617 247.09L306.969 249.267L302.377 256.687L298 270.415C298 270.415 362.113 273.719 374.117 280.988C386.121 288.257 378.743 301.633 378.743 301.633L361 322.684L236.892 311.641C236.892 311.641 250.796 255.066 259.204 247.09C267.613 239.113 263.171 241.525 263.171 241.525L244.266 236.729L241.915 231.828L255.31 203.194H263.171L298 147.572H290.508L234.612 115.237C234.612 115.237 113.199 167.884 66.5254 127.567C47.1102 115.237 36.6731 55.1542 36.6731 55.1542Z" fill="white"/><path id="Stroke" fill-rule="evenodd" clip-rule="evenodd" d="M308.979 274.262C308.979 274.262 312.231 274.215 314.468 274.623C313.172 275.602 312.074 276.728 310.997 277.831C309.071 279.805 307.217 281.704 304.437 282.558C303.564 282.826 302.07 282.855 302.432 282.016C304.036 278.3 306.822 275.305 308.979 274.262ZM536.265 220.795C536.845 223.7 537.464 226.799 536.799 229.93C536.583 230.945 535.218 231.148 534.656 230.273C532.711 227.245 531.59 224.594 531.841 222.638C531.841 222.638 533.685 219.82 535.808 218.354C535.937 219.149 536.099 219.964 536.265 220.795ZM322.609 274.942C322.609 274.942 323.984 274.813 328.889 275.321C327.711 276.383 326.607 277.469 325.509 278.548C323.198 280.82 320.92 283.061 318.059 284.975C316.635 285.928 314.9 284.633 315.157 283.63C316.482 278.462 320.489 275.462 322.609 274.942ZM539.826 212.225C539.826 212.225 542 208.618 544.216 206.95C546.19 212.414 546.797 216.268 545.444 220.64C543.899 223.167 539.398 214.98 539.826 212.225ZM549.572 200.321C549.943 199.206 551.244 197.621 553.841 195.72C554.993 199.804 556.051 204.362 555.74 208.9C555.673 209.886 554.566 210.441 553.719 209.935C551.77 208.767 551.406 207.51 550.857 205.617C550.744 205.225 550.622 204.806 550.477 204.354C550.208 203.518 549.572 200.321 549.572 200.321ZM334.853 275.87C334.853 275.87 344.711 276.941 345.732 276.69C344.423 277.823 343.129 279.031 341.82 280.253C338.415 283.43 334.913 286.699 330.799 288.987C330.03 289.415 329.049 288.933 328.972 288.056C328.592 283.745 330.132 280.098 334.853 275.87ZM590.779 212.225C591.198 212.723 591.809 214.681 591.809 214.681C586.505 219.384 576.073 229.587 564.983 240.433C547.536 257.497 528.461 276.154 525.161 277.494L523.601 275.953C532.202 267.634 546.453 254.184 560.258 241.155C572.008 230.065 583.435 219.281 590.779 212.225ZM313.054 307.934C329.377 310.138 348.26 312.817 364.569 315.131L362.695 316.769C350.444 315.301 337.815 313.629 325.036 311.937C296.723 308.19 267.674 304.344 240.38 302.4L240.918 299.052C240.918 299.052 242.412 299.261 243.978 299.425C251.009 300.162 258.041 300.901 265.056 301.778L266.472 301.955C282.006 303.896 297.54 305.837 313.054 307.934ZM239.394 307.44C239.463 306.943 239.531 306.449 239.563 306.107C285.78 309.945 316.475 313.589 349.554 317.516C353.329 317.964 357.136 318.416 361 318.872L358.871 320.433C352.091 320.767 340.673 319.616 331.447 318.686C328.088 318.347 325.021 318.038 322.573 317.84C316.79 317.373 311.024 316.712 305.257 316.05C301.638 315.635 298.018 315.22 294.394 314.853C290.417 314.451 286.436 314.092 282.455 313.734C277.208 313.261 271.961 312.788 266.725 312.216C260.276 311.512 253.95 310.699 247.58 309.881C244.807 309.525 242.025 309.168 239.221 308.818C239.252 308.466 239.324 307.951 239.394 307.44ZM586.176 205.981C583.1 208.68 579.569 211.776 576.086 214.509C568.348 207.858 565.42 199.642 565.327 190.149C565.317 189.078 565.327 187.661 565.327 187.661C565.837 187.04 567.356 186.59 568.375 186.312C573.795 184.838 578.394 186.288 582.341 190.089C585.727 193.349 587.366 197.608 588.527 201.996C588.652 202.47 588.833 203.222 588.634 203.841C588.634 203.841 588.174 204.231 587.687 204.657C587.198 205.085 586.693 205.527 586.176 205.981ZM353.287 309.693C351.675 309.429 350.011 309.155 348.274 308.883C348.902 303.783 351.537 299.969 354.273 296.212C357.866 291.277 362.414 287.087 367.734 284.094C367.773 284.071 367.812 284.05 367.852 284.027C368.734 283.534 370.662 282.508 370.662 282.508C372.828 282.239 374.646 283.641 376.516 285.084C376.797 285.3 377.079 285.517 377.363 285.73C380.174 287.836 381.088 290.484 379.993 293.843C377.926 300.186 374.143 305.491 369.581 310.19C369.077 310.711 368.718 310.993 367.437 311.641C367.437 311.641 365.456 311.449 364.648 311.36C360.952 310.953 357.277 310.349 353.287 309.693ZM468.068 238.187C460.877 235.196 454.325 231.032 447.216 226.463C447.793 225.796 448.29 225.206 448.741 224.673C449.585 223.672 450.265 222.866 450.996 222.111C460.843 211.95 470.692 201.791 480.583 191.673C484.687 187.475 485.32 187.347 490.186 190.881C492.736 192.733 495.135 194.794 497.533 196.855C498.436 197.631 499.34 198.407 500.251 199.172C501.935 200.584 502.082 202.184 500.698 203.917C500.528 204.131 500.379 204.362 500.231 204.593C500.085 204.82 499.938 205.047 499.772 205.258C497.702 207.887 495.634 210.517 493.567 213.148C487.565 220.786 481.562 228.423 475.496 236.009C472.723 239.477 471.902 239.782 468.068 238.187ZM572.81 216.978C553.522 234.331 537.17 249.798 516.299 270.415L514.717 269.095C503.371 259.632 492.32 250.415 480.7 240.725C485.131 236.307 490.285 232.3 495.452 228.282C500.644 224.245 505.851 220.197 510.351 215.711C512.406 216.561 514.255 217.307 516.03 218.023C519.892 219.582 523.399 220.997 527.891 223.027C527.891 223.027 528.305 225.021 528.86 226.291C529.877 228.617 530.681 230.215 531.722 232.239C532.333 233.43 533.226 234.475 534.36 235.186C535.234 235.734 536.251 236.12 537.086 235.732C537.242 235.66 537.399 235.59 537.554 235.521C538.688 235.014 539.753 234.539 540.057 233.358C540.554 231.429 540.717 229.415 540.889 227.286C540.962 226.381 541.037 225.456 541.14 224.507C541.439 224.577 541.712 224.635 541.967 224.689C542.471 224.796 542.904 224.888 543.323 225.025C547.142 226.275 549.169 225.241 549.897 221.319C550.159 219.907 550.184 217.661 550.206 215.587C550.22 214.329 550.233 213.133 550.298 212.225C557.067 217.777 560.048 215.14 559.656 207.925C559.421 203.598 558.624 199.274 557.75 195.018C557.582 194.199 557.563 193.05 557.705 192.494C557.705 192.494 559.088 191.1 561.078 190.625C562.03 200.598 564.928 209.746 572.81 216.978ZM313.445 246.611C312.595 247.023 311.64 247.174 310.704 247.045C310.017 246.951 309.359 246.862 308.724 246.776C306.538 246.481 304.619 246.222 302.711 245.895C300.659 245.544 298.607 245.193 296.555 244.843C284.114 242.717 271.673 240.591 259.254 238.345C256.706 237.883 254.198 237.205 251.689 236.526C250.165 236.114 248.64 235.701 247.106 235.337C244.67 234.759 243.831 233.462 244.473 230.978C246.726 222.261 250.889 214.416 255.344 206.689C256.371 204.906 257.878 204.935 259.585 205.245C268.826 206.928 278.068 208.607 287.309 210.286C298.963 212.403 310.616 214.52 322.268 216.645C323.034 216.785 323.784 217.017 324.533 217.249C324.828 217.34 325.122 217.432 325.417 217.517C327.843 218.22 328.746 219.881 327.641 222.087C323.822 229.709 319.956 237.312 315.836 244.772C315.365 245.625 314.345 246.174 313.445 246.611ZM270.408 101.852C294.194 91.5544 317.681 81.3865 342.15 73.157C338.794 77.3298 335.388 81.4636 331.983 85.5972C316.694 104.157 301.407 122.715 290.544 144.802C272.849 135.717 256.227 126.159 238.865 115.309C249.509 110.9 259.987 106.363 270.408 101.852ZM292.865 250.866C295.753 250.87 298.666 250.873 301.607 250.873C300.623 254.876 298.983 259.604 297.589 263.621C296.175 267.695 295.015 271.038 295.051 272.153C295.091 273.4 299.015 273.399 301.429 273.399C302.365 273.398 303.074 273.398 303.242 273.471C302.859 274.063 302.451 274.674 302.033 275.3C300.133 278.149 298.026 281.307 297.059 284.366C296.696 285.517 296.52 286.979 297.315 288C297.845 288.681 298.74 288.998 299.604 289.019C301.699 289.069 303.757 287.816 305.582 286.706C305.894 286.516 306.199 286.33 306.496 286.156C308.565 284.944 310.74 283.628 312.373 281.845C311.059 283.281 310.688 286.079 310.964 287.936C311.561 291.935 316.376 291.144 318.785 289.371C320.251 288.292 321.655 287.129 323.244 285.813C323.989 285.196 324.774 284.545 325.626 283.854C325.501 284.614 325.378 285.277 325.266 285.877C325.054 287.019 324.884 287.934 324.827 288.855C324.581 292.843 326.897 294.76 330.629 293.357C332.793 292.544 334.84 291.187 336.656 289.725C340.192 286.878 343.753 283.999 346.882 280.728C348.334 279.21 349.464 277.669 349.853 277.136C349.853 277.136 354.195 277.81 356.633 278.251C357.997 278.497 359.349 278.846 360.945 279.258C362.017 279.534 363.199 279.839 364.569 280.161C363.346 281.039 362.175 281.821 361.064 282.563C358.717 284.131 356.637 285.521 354.898 287.253C352.114 290.023 349.591 293.258 347.747 296.713C345.981 300.022 343.741 306.107 343.829 308.109C327.647 306.03 311.413 303.945 295.105 301.85C277.47 299.585 259.75 297.309 241.915 295.018C242.044 294.418 242.156 293.846 242.264 293.294C242.484 292.171 242.688 291.133 242.981 290.12C246.634 277.505 252.006 265.587 257.892 253.894C258.01 253.659 258.16 253.323 258.32 252.967C258.641 252.25 258.999 251.451 259.204 251.224C259.204 251.224 260.768 251.011 261.277 251.003C271.697 250.842 282.12 250.854 292.865 250.866ZM466.118 181.269L476.551 190.414L443.133 224.713C431.011 217.552 418.748 210.712 406.496 203.879C389.577 194.442 372.679 185.017 356.202 174.774C361.778 166.433 367.3 158.172 372.805 149.937C379.897 139.328 386.961 128.762 394.074 118.12C418.029 139.117 441.814 159.965 466.118 181.269ZM520.931 271.219C521.118 271.029 521.283 270.861 521.384 270.749C521.384 270.749 580.494 214.509 589.091 206.95L589.935 209.851L525.147 270.145C523.899 271.361 521.408 273.882 521.408 273.882L519.824 272.461C519.957 272.208 520.5 271.656 520.931 271.219ZM350.768 70.881C352.119 68.284 349.561 65.374 346.822 66.413C346.591 66.5012 346.362 66.5935 346.133 66.6856C345.925 66.769 345.718 66.8522 345.511 66.932C342.119 68.2397 338.717 69.525 335.315 70.8103C327.674 73.6974 320.033 76.5846 312.497 79.726C295.297 86.896 278.133 94.1538 260.969 101.412C247.861 106.955 234.752 112.498 221.627 118.002C199.842 127.138 177.896 135.737 154.404 139.709C138.053 142.474 121.745 145.193 105.146 142.394C79.909 138.14 60.258 126.268 50.074 101.6C45.754 91.136 42.765 80.309 40.847 69.179C40.4323 66.7714 40.0864 64.3518 39.7405 61.9323C39.3666 59.317 38.9927 56.7018 38.532 54.102C38.5 53.922 38.42 53.752 38.306 53.587C37.534 52.467 35.721 52.606 35.136 53.834C35.051 54.013 35 54.191 35 54.37C35.0015 56.029 35.2495 57.6886 35.4972 59.346C35.5725 59.8496 35.6477 60.3529 35.716 60.856C37.925 77.136 41.589 93.018 48.779 107.91C52.942 116.533 58.501 124.037 66.151 129.978C83.518 143.466 103.475 148.488 124.979 147.25C149.948 145.811 174.259 140.652 197.672 131.708C208.357 127.626 218.973 123.354 229.507 118.902C231.239 118.171 234.063 117.301 234.063 117.301C234.063 117.301 237.033 118.686 238.555 119.584C250.432 126.594 262.406 133.44 274.379 140.285C277.703 142.185 281.026 144.085 284.348 145.989C286.483 147.213 288.642 148.396 290.818 149.588C291.81 150.132 292.806 150.677 293.804 151.229C290.328 156.638 286.874 162.012 283.431 167.37C276.172 178.664 268.962 189.883 261.697 201.189C261.536 201.198 261.358 201.222 261.168 201.247C260.718 201.307 260.208 201.375 259.737 201.267C255.729 200.341 253.187 201.913 251.503 205.572C250.38 208.013 249.177 210.422 247.974 212.829C245.928 216.925 243.883 221.018 242.236 225.268C238.322 235.364 239.65 237.468 249.95 240.16C251.907 240.672 253.859 241.207 255.915 241.771C256.906 242.043 257.922 242.321 258.975 242.607C257.956 244.739 256.966 246.805 255.997 248.826C253.922 253.156 251.946 257.28 249.989 261.414C243.281 275.585 238.213 290.312 235.049 305.679C233.982 310.865 234.927 312.353 240.118 312.977C250.937 314.276 261.767 315.49 272.605 316.619C273.926 316.756 275.246 316.894 276.567 317.032C291.504 318.588 306.442 320.144 321.4 321.491C333.335 322.565 345.3 323.342 357.265 324.033C359.301 324.151 362.112 323.856 363.354 322.577C363.998 321.913 364.645 321.251 365.292 320.589C370.986 314.761 376.701 308.912 380.727 301.681C387.242 289.974 384.697 283.27 372.045 278.604C362.249 274.992 352.093 272.977 341.742 272.32L340.222 272.224C328.604 271.486 317.056 270.752 305.411 270.296C304.883 270.275 304.341 270.292 303.771 270.309C302.711 270.342 301.557 270.377 300.222 270.178C301.339 266.593 302.455 263.02 303.514 259.628C304.488 256.509 305.414 253.542 306.25 250.86C306.367 250.486 308.729 250.757 310.07 250.911C310.488 250.959 310.807 250.996 310.927 250.998C312.573 251.022 314.285 250.853 315.768 250.082C317.889 248.978 319.376 247.004 320.436 244.91C321.92 241.977 323.47 239.076 325.02 236.176C326.638 233.151 328.255 230.125 329.797 227.061C332.168 222.35 333.814 217.543 328.599 213.802C337.102 201.689 345.306 190.002 353.598 178.19C354.274 178.543 354.888 178.857 355.46 179.15C356.571 179.718 357.521 180.204 358.448 180.732C369.472 187.016 380.494 193.301 391.517 199.587C413.789 212.288 436.061 224.989 458.343 237.672C460.863 239.106 463.439 240.553 466.163 241.48C468.497 242.274 471.152 242.869 473.535 242.56C474.728 242.406 475.44 241.171 475.44 241.171C475.44 241.171 478.11 243.627 478.888 244.28C482.862 247.622 486.863 250.932 490.865 254.242C493.307 256.261 495.748 258.28 498.183 260.307C500.746 262.44 503.298 264.586 505.85 266.732C511.226 271.252 516.601 275.771 522.072 280.174C525.687 283.083 526.657 282.996 530.026 279.776C536.722 273.374 543.314 266.855 549.785 260.227C551.495 258.475 553.201 256.718 554.907 254.961C566.878 242.632 578.847 230.304 592.407 219.654C594.478 218.028 595.649 216.177 595.23 213.628C593.842 205.175 592.088 196.781 587.006 189.639C582.347 183.09 574.947 180.32 567.341 182.807C563.134 184.182 558.867 186.365 555.553 189.249C550.845 193.347 546.711 198.141 542.617 202.902C541.191 204.56 539.929 206.255 538.678 207.937C536.797 210.463 534.94 212.957 532.587 215.248C530.406 217.372 529.038 218.232 529.038 218.232C527.668 218.221 525.946 217.519 523.407 216.469C523.407 216.469 514.743 212.744 507.722 209.049C507.108 208.726 506.534 208.47 505.971 208.219C505.195 207.873 504.438 207.536 503.626 207.044C503.752 206.706 503.807 206.546 503.84 206.447C503.892 206.295 503.894 206.288 504.034 206.002C506.653 200.668 506.553 199.672 502.121 195.672C499.158 192.997 496.033 190.491 492.882 188.036C488.577 184.683 484.064 182.722 478.973 187.213C471.887 181.033 464.788 174.893 457.695 168.759C436.961 150.828 416.288 132.95 396.21 114.273C396.618 113.514 396.995 112.817 397.352 112.156C397.934 111.078 398.463 110.1 398.986 109.12C400.465 106.346 401.964 103.582 403.464 100.818C406.903 94.4786 410.342 88.1396 413.533 81.678C418.691 71.237 422.828 60.368 425.329 48.941C428.619 33.903 425.693 20.711 413.403 10.61C410.214 7.99002 406.514 5.84902 402.772 4.07302C392.3 -0.897985 381.112 -3.24398 369.582 -3.74998C336.826 -5.18698 304.709 -0.259985 272.878 6.69701C258.12 9.92306 243.479 13.6965 228.841 17.469C225.906 18.2255 222.971 18.982 220.035 19.734C201.832 24.3971 183.66 29.1819 165.488 33.9667C161.198 35.0964 156.908 36.226 152.617 37.354C152.314 37.4338 151.971 37.4932 151.617 37.5544C150.095 37.8179 148.388 38.1132 148.928 40.214C149.466 42.3101 151.067 41.7566 152.527 41.2518C152.874 41.1317 153.214 41.0143 153.529 40.936C160.509 39.2062 167.504 37.5262 174.499 35.8463C190.625 31.9731 206.751 28.0998 222.706 23.615C259.826 13.179 297.127 3.91602 335.687 0.769015C350.728 -0.457985 365.784 -1.17399 380.784 1.35802C389.442 2.81902 397.752 5.35502 405.424 9.70102C418.736 17.239 424.725 29.448 422.141 44.472C421.192 49.991 419.734 55.477 417.951 60.791C412.086 78.288 403.314 94.412 393.887 110.183C379.002 135.085 362.389 158.82 345.822 182.49C338.736 192.615 331.658 202.727 324.727 212.914C316.141 211.376 307.62 209.85 299.087 208.321C288.211 206.373 277.315 204.422 266.239 202.438C266.649 201.669 267.005 200.973 267.334 200.329C267.967 199.09 268.5 198.046 269.126 197.062C271.312 193.63 273.472 190.18 275.633 186.729C280.9 178.316 286.167 169.903 291.815 161.753C312.008 132.614 331.503 103.033 349.781 72.655C350.13 72.075 350.455 71.481 350.768 70.881ZM508.902 241.062C508.942 244.219 511.306 247.152 513.833 247.176C516.249 247.201 518.629 244.088 518.609 240.93C518.59 237.959 516.497 235.8 513.567 235.734C510.701 235.668 508.861 237.769 508.902 241.062ZM512.99 231.871C518.891 231.933 522.142 235.147 522.151 240.928C522.16 246.723 518.51 251.228 513.846 251.179C509.042 251.129 504.808 246.04 505.021 240.569C505.253 234.658 507.855 231.817 512.99 231.871ZM263.179 277.078C263.015 281.152 265.291 283.998 268.929 284.267C273.911 284.637 279.089 280.368 279.668 275.415C280.128 271.486 277.457 267.809 273.934 267.518C269.115 267.12 263.374 272.224 263.179 277.078ZM283.251 274.597C283.237 282.226 276.341 288.695 268.714 288.234C261.749 287.813 257.259 280.296 260.038 273.319C262.396 267.399 267.119 264.204 273.346 263.602C279.166 263.041 283.264 267.797 283.251 274.597Z" fill="black"/></g></g><g id="Body" transform="translate(-101 239) scale(1 1)"><g id="Body/Magnifying Glass"><path id="Fill" fill-rule="evenodd" clip-rule="evenodd" d="M450.179 155.579C450.218 155.666 450.246 155.758 450.266 155.853L450.179 155.579ZM434.161 159.905C428.34 152.478 424.317 140.212 429.558 142.024C433.27 143.307 446.202 158.12 446.138 158.012C441.63 150.38 438.246 142.945 435.662 134.295C434.9 131.736 435.076 129.392 436.572 128.07C437.741 127.035 439.794 126.832 439.794 126.832C438.58 121.348 438.718 117.428 445.351 119.921C444.302 116.744 444.141 113.89 447.29 112.537C450.372 111.213 452.954 112.39 455.217 114.516C461.75 120.653 466.733 128.095 471.44 135.659C473.367 138.756 475.558 141.589 475.923 145.325C476.239 148.567 475.528 151.813 474.768 154.946C469.093 178.358 463.534 201.807 457.285 225.068C454.616 235 450.752 244.674 446.726 254.168C439.802 270.493 421.013 277.456 404.843 270.239C395.752 266.182 388.333 259.791 380.903 253.398C379.586 252.264 378.233 251.174 376.093 249.397C376.093 252.497 376.003 254.609 376.111 256.711C376.387 262.157 373.114 265.372 373.114 271.78C373.114 278.189 362.169 278.004 355.817 280.139C326.856 289.875 291.481 289.952 260.799 288.474C242.285 287.582 224.827 281.342 209.674 270.239C208.526 269.397 207.257 268.613 205.703 267.706C204.908 269.092 204.318 271.843 203.729 273.081C193.903 293.726 185.345 314.858 178.793 336.797C177.656 340.608 178.263 343.156 180.753 346.09C185.2 351.335 189.364 356.842 193.333 362.459C194.97 364.777 196.19 367.564 196.904 370.318C198.076 374.846 194.589 377.793 190.187 376.156C188.528 375.539 187.031 374.403 185.577 373.344C184.282 372.399 183.147 371.234 181.255 369.56C182.242 374.053 183.162 377.673 183.798 381.341C184.197 383.643 184.478 386.045 184.271 388.353C183.803 393.605 178.975 393.574 175.991 392.21C174.854 391.691 174.027 390.653 173.029 389.852C168.619 394.194 166.567 395.819 159.848 391.316C157.488 393.452 154.579 394.295 151.986 391.665C149.981 389.632 150.449 390.518 147.031 383.98C147.059 383.976 146.425 384.785 146.3 384.874C144.463 386.187 143.025 388.612 140.231 387.457C137.402 386.286 137.072 383.498 137.023 381.032C136.944 377.064 137.045 373.03 137.678 369.122C139.443 358.218 141.225 347.3 143.557 336.509C146.158 324.484 149.448 312.609 152.31 300.638C158.43 275.039 167.833 249.346 178.793 225.068C177.833 223.791 176.804 222.752 175.991 221.406C173.224 216.819 170.308 212.611 173.385 207.586C176.13 203.103 178.612 198.462 181.316 193.955C193.258 174.055 205.23 154.174 217.206 134.295C223.122 124.476 229.96 115.361 237.829 106.998C247.312 96.9234 254.461 91.8406 267.284 87.4679C272.153 85.8072 270.683 81.5128 273.871 85.9493C275.725 88.5306 303.379 88.583 303.811 87.4679C304.814 84.8806 303.914 84.6931 306.499 84.361C310.739 83.8164 314.558 86.1533 318.069 88.1711C330.258 95.1779 341.429 103.525 351.011 113.832C367.368 131.424 381.697 150.573 394.05 171.165C396.745 175.655 398.654 180.608 401.138 185.234C403.292 189.246 403.885 193 400.234 196.541C404.938 202.357 411.272 210.253 416.267 216.431C417.001 214.785 417.372 211.796 417.821 210.566C420.683 202.741 421.941 194.438 424.807 186.613C424.942 186.243 425.064 185.855 425.198 185.475L434.161 159.905Z" fill="white"/><path id="Stroke" fill-rule="evenodd" clip-rule="evenodd" d="M509.593 27.4055C514.782 35.0511 516.652 43.6284 516.566 54.4996C516.145 68.5045 510.605 82.1236 499.409 93.3277C494.575 98.1655 488.879 101.644 482.306 103.625C469.923 107.358 457.588 103.185 449.989 92.6909C445.148 86.0069 442.769 78.3962 442.435 70.2867C441.718 52.8733 447.487 37.8309 459.921 25.5003C464.096 21.3601 469.025 18.2975 474.555 16.2374C487.849 11.2845 501.618 15.6536 509.593 27.4055ZM448.343 108.161C449.249 108.92 450.195 109.712 451.179 110.574C451.074 110.847 450.969 111.12 450.864 111.392C449.902 111.311 448.887 111.469 447.811 111.932C444.658 113.287 443.923 115.888 444.973 119.072C438.329 116.574 437.724 120.527 438.939 126.023C438.939 126.023 436.909 125.661 435.736 126.699C434.238 128.022 434.026 131.12 434.791 133.684C435.771 136.967 437.063 140.084 438.536 143.104C438.219 143.915 437.902 144.727 437.585 145.538C435.781 143.052 433.702 140.829 430.655 139.688C427.118 138.364 424.167 140.656 424.824 144.281C425.822 149.789 428.901 154.223 432.64 158.177C429.299 166.714 425.952 175.249 422.598 183.78C421.566 186.407 420.661 188.82 423.03 191.299C423.124 191.398 423.219 191.493 423.315 191.586C422.495 193.844 421.677 196.103 420.86 198.361L420.855 198.374L420.853 198.381C419.485 202.16 418.117 205.938 416.737 209.712C416.44 210.527 416.072 211.317 415.645 212.235L415.645 212.235C415.427 212.705 415.193 213.208 414.944 213.766C411.902 210.003 409.029 206.448 406.184 202.929L400.677 196.116C404.332 192.568 403.74 188.805 401.582 184.785C400.534 182.832 399.588 180.821 398.642 178.811L398.642 178.81C397.342 176.049 396.044 173.289 394.483 170.684C382.109 150.048 367.755 130.86 351.37 113.228C341.772 102.9 330.583 94.5346 318.374 87.5127L318.068 87.3369C314.631 85.3572 310.803 83.1525 306.678 83.6826C304.088 84.0154 303.38 84.2043 302.375 86.7962C301.942 87.9127 300.526 90.5336 299.908 91.5601C296.245 97.6495 289.925 97.4427 284.927 94.1601C282.296 92.4318 280.025 89.894 278.166 87.3071L278.006 87.0833C274.961 82.8425 274.592 82.3276 269.796 83.9635C256.952 88.3456 247.496 96.2839 237.999 106.38C230.116 114.762 223.267 123.896 217.342 133.735C205.345 153.658 193.352 173.582 181.39 193.524C180.149 195.594 178.955 197.691 177.761 199.789L177.76 199.79L177.76 199.79C176.348 202.27 174.935 204.751 173.446 207.184C170.364 212.222 171.557 216.907 174.329 221.503C174.887 222.429 175.565 223.283 176.247 224.141C176.558 224.533 176.869 224.926 177.171 225.326C166.193 249.658 158.466 274.782 152.336 300.438C151.237 305.037 150.074 309.623 148.912 314.208C147.044 321.582 145.175 328.956 143.569 336.386C141.231 347.2 139.449 358.141 137.679 369.069C137.045 372.985 136.944 377.028 137.023 381.004C137.072 383.476 137.402 386.27 140.237 387.444C142.378 388.329 143.724 387.114 145.063 385.905C145.474 385.534 145.884 385.163 146.316 384.855C146.437 384.768 147.039 384.002 147.049 383.962L147.088 384.036C149.383 388.429 149.909 389.435 150.637 390.265C150.853 390.512 151.087 390.743 151.391 391.043C151.57 391.219 151.773 391.42 152.012 391.662C154.61 394.297 157.522 393.452 159.887 391.31C166.617 395.824 168.672 394.194 173.09 389.844C173.419 390.108 173.729 390.398 174.038 390.687C174.668 391.275 175.292 391.858 176.056 392.207C179.047 393.574 183.881 393.605 184.351 388.341C184.558 386.028 184.277 383.62 183.877 381.314C183.437 378.78 182.863 376.268 182.225 373.478L182.225 373.477C181.938 372.22 181.637 370.907 181.33 369.508C181.964 370.07 182.513 370.574 183.012 371.032C184.003 371.942 184.796 372.67 185.66 373.3C185.751 373.366 185.843 373.433 185.935 373.5L185.96 373.519L185.96 373.519C187.323 374.515 188.729 375.543 190.277 376.119C194.685 377.759 198.179 374.805 197.005 370.267C196.291 367.508 195.068 364.716 193.427 362.392C189.452 356.762 185.282 351.243 180.826 345.988C178.333 343.046 177.724 340.493 178.864 336.674C185.426 314.687 193.998 293.512 203.841 272.821C204.237 271.988 204.712 271.195 205.223 270.342L205.223 270.342C205.474 269.924 205.732 269.492 205.994 269.034C206.513 269.337 207.005 269.608 207.473 269.866L207.474 269.866L207.474 269.866C208.41 270.382 209.251 270.845 210.018 271.406C225.196 282.533 242.463 287.353 261.008 288.247L263.065 288.346C293.072 289.797 322.206 291.206 351.37 283.96C359.696 281.891 368.982 279.439 375.183 276.869C378.872 275.34 377.816 267.208 377.019 261.076L377.019 261.075C376.786 259.278 376.575 257.653 376.512 256.416C376.442 255.022 376.457 253.625 376.475 251.939V251.939C376.485 251.076 376.495 250.137 376.495 249.085C377.241 249.705 377.891 250.241 378.478 250.725L378.478 250.725C379.578 251.632 380.453 252.354 381.313 253.094L381.355 253.131L381.355 253.131C388.784 259.527 396.203 265.914 405.294 269.973C421.491 277.206 440.31 270.228 447.247 253.867C451.28 244.354 455.149 234.658 457.822 224.705C463.165 204.812 468.003 184.783 472.84 164.756L472.841 164.755L472.848 164.723C473.677 161.292 474.506 157.861 475.337 154.431C476.096 151.293 476.809 148.038 476.492 144.79C476.184 141.62 474.562 139.099 472.901 136.516C472.6 136.049 472.298 135.579 472.002 135.103C468.733 129.845 465.329 124.646 461.367 119.901C461.693 119.121 462.026 118.342 462.36 117.561C462.656 116.869 462.953 116.174 463.246 115.475C463.837 115.548 464.357 115.611 464.833 115.67C465.607 115.764 466.266 115.845 466.925 115.928C480.199 117.595 492.137 114.193 502.912 106.425C524.206 91.0726 534.839 62.0373 527.877 36.7824C523.217 19.8848 512.97 7.73107 495.359 3.35299C481.884 0.00245198 469.26 3.01913 458.012 10.8047C439.032 23.943 429.649 42.4999 429.024 65.3909C428.626 79.9505 433.139 92.9448 443.327 103.642C444.826 105.215 446.503 106.619 448.343 108.161ZM456.938 131.098C457.8 128.905 458.662 126.712 459.524 124.519C463.895 129.987 467.598 135.935 471.002 142.073C471.898 143.691 472.035 145.914 471.965 147.837C471.879 150.171 471.318 152.512 470.76 154.801C469.115 161.543 467.447 168.279 465.779 175.015C462.692 187.484 459.605 199.953 456.663 212.457C453.655 225.238 449.223 237.515 444.291 249.621C437.108 267.246 420.292 273.329 403.731 264.284C393.755 258.835 385.241 251.44 377.616 243.064L377.503 242.939C377.059 242.453 376.151 241.457 375.876 241.03C375.876 241.03 375.395 239.387 375.183 238.076C373.807 229.581 372.635 221.048 371.611 212.502C371.592 212.343 371.557 212.132 371.518 211.899C371.417 211.291 371.29 210.53 371.354 210.125C371.354 210.125 372.677 209.219 373.141 208.912C377.691 205.895 382.588 202.861 387.282 199.953L387.283 199.953C389.59 198.524 391.848 197.125 393.992 195.773C394.264 196.114 394.378 196.256 394.435 196.327L394.436 196.328C394.458 196.355 394.471 196.371 394.482 196.385C394.499 196.406 394.51 196.42 394.537 196.455C396.934 199.56 399.55 202.496 402.165 205.433L402.165 205.433C407.393 211.302 412.62 217.171 416.11 224.386C416.811 225.835 417.822 227.52 419.842 226.399C421.612 225.417 420.822 223.776 420.053 222.595C418.238 218.442 418.238 218.442 419.836 214.306C422.343 207.472 424.77 200.609 427.194 193.745C429.985 194.289 432.687 192.778 434.04 189.348C438.236 178.705 442.421 168.058 446.603 157.41C446.622 157.441 446.641 157.473 446.659 157.504C446.812 157.765 447.166 157.907 447.605 157.998C449.043 158.296 450.481 157.099 450.181 155.663C450.162 155.567 450.132 155.476 450.094 155.388C449.642 154.365 449.118 153.375 448.574 152.393C449.181 150.846 449.789 149.3 450.396 147.753C450.735 146.89 451.074 146.027 451.413 145.164C451.882 145.779 452.35 146.394 452.819 147.009C453.049 147.31 453.252 147.642 453.455 147.972C453.836 148.593 454.214 149.21 454.757 149.611C454.971 149.769 455.219 149.882 455.487 149.969C456.666 150.351 457.972 149.637 458.219 148.422C458.284 148.104 458.296 147.804 458.207 147.537C457.793 146.298 456.944 145.176 456.127 144.097C456.063 144.012 456 143.929 455.937 143.845C455.061 142.685 454.178 141.531 453.292 140.378C453.841 138.98 454.39 137.582 454.94 136.184C456.228 138.161 457.527 140.131 458.837 142.093C458.946 142.256 459.056 142.429 459.168 142.606L459.169 142.607C460.055 144.004 461.107 145.663 462.982 144.558C464.9 143.429 463.933 141.947 463.055 140.602C462.899 140.363 462.746 140.129 462.613 139.902C462.335 139.429 462.028 138.975 461.72 138.521C461.518 138.222 461.315 137.924 461.122 137.62C460.232 136.225 459.338 134.834 458.443 133.442L458.435 133.43L458.434 133.429C457.935 132.652 457.436 131.876 456.938 131.098ZM446.272 123.308C446.242 123.276 446.211 123.245 446.18 123.213C444.506 121.497 441.456 120.408 441.583 122.538C441.733 125.065 443.192 127.02 444.265 128.445L445.838 124.419C445.983 124.049 446.128 123.678 446.272 123.308ZM442.35 133.345C442.081 132.997 441.811 132.648 441.541 132.3C441.088 131.715 440.464 131.26 439.338 131.042C439.02 130.981 438.679 131.135 438.526 131.419C437.73 132.892 439.295 135.753 440.554 137.941C441.153 136.409 441.752 134.877 442.35 133.345ZM147.049 383.962C147.049 383.96 147.049 383.96 147.048 383.96L147.049 383.962ZM434.345 153.823C434.821 152.606 435.297 151.389 435.773 150.172C435.505 149.896 435.246 149.605 434.989 149.316L434.988 149.315C434.817 149.122 434.646 148.93 434.474 148.744C433.753 147.964 432.927 146.944 432.115 145.94L432.114 145.939L432.114 145.939L432.114 145.939C431.43 145.094 430.756 144.261 430.163 143.594C428.98 142.763 428.073 143.252 428.014 143.952C427.935 144.918 428.885 146.939 429.434 147.739C429.704 148.132 429.899 148.428 430.071 148.687L430.199 148.88C431.388 150.682 432.794 152.323 434.345 153.823ZM143.728 369.696C143.616 369.683 143.432 366.911 143.249 364.139C143.066 361.367 142.883 358.595 142.77 358.581C142.609 358.562 142.218 364.029 142.051 366.371C142.008 366.974 141.98 367.37 141.974 367.411C140.826 375.746 140.226 382.48 141.266 382.48C145.272 381.794 144.66 377.518 144.098 373.593C143.897 372.189 143.703 370.831 143.728 369.696ZM192.226 372.13C192.303 372.039 192.377 371.946 192.449 371.851C193.047 371.06 193.126 369.996 192.634 369.136C191.258 366.733 189.837 364.528 188.167 362.263C184.078 356.714 179.7 351.37 175.306 346.053C173.387 343.731 172.779 341.42 173.746 338.515C174.796 335.361 175.79 332.188 176.784 329.015C178.069 324.915 179.354 320.815 180.758 316.756C187.835 296.31 197.042 276.772 206.249 257.234L206.249 257.234C206.715 256.244 207.182 255.255 207.648 254.265C209.156 251.062 210.566 247.813 212.045 244.406L212.046 244.403C212.748 242.786 213.466 241.133 214.217 239.432C203.654 233.893 193.461 228.548 183.041 223.084C182.753 223.71 182.503 224.255 182.277 224.749C181.846 225.687 181.502 226.436 181.156 227.184C166.282 259.265 158.318 293.453 150.357 327.629C150.084 328.8 149.811 329.971 149.538 331.142C146.88 342.543 146.588 354.216 147.554 365.826C147.978 370.93 149.332 375.986 150.668 380.979C150.784 381.41 150.899 381.841 151.013 382.271C151.377 383.638 152.201 384.882 153.221 386.424L153.349 386.617C154.055 387.685 155.724 387.085 155.583 385.812C155.249 382.976 154.893 380.142 154.536 377.308C154.123 374.028 153.71 370.748 153.333 367.463C152.981 364.399 152.747 361.316 152.608 358.235C152.567 357.309 152.691 356.397 153.464 355.795C154.389 355.075 155.762 355.592 156.116 356.709C156.492 357.897 156.878 359.116 157.043 360.364C157.394 363.009 157.686 365.663 157.978 368.316C158.422 372.339 158.865 376.361 159.511 380.352C160.017 383.479 161.248 386.244 163.595 388.376C165.404 390.017 168.316 388.696 168.428 386.256C168.533 383.985 168.197 381.799 167.866 379.646L167.815 379.316C167.155 374.997 166.396 370.692 165.636 366.388C165.169 363.736 164.701 361.084 164.257 358.429C164.236 358.304 164.214 358.178 164.192 358.051C163.967 356.738 163.732 355.36 163.992 354.119C164.085 353.676 164.375 353.275 164.732 352.888C165.482 352.076 166.797 352.077 167.535 352.899C167.768 353.16 167.944 353.43 167.999 353.724C168.312 355.383 168.499 357.065 168.686 358.747C168.841 360.135 168.995 361.523 169.22 362.898C169.323 363.526 169.424 364.155 169.525 364.783L169.525 364.785C170.604 371.501 171.685 378.234 175.215 384.247C175.35 384.476 175.48 384.713 175.612 384.953C176.126 385.891 176.666 386.874 177.588 387.587C178.613 388.377 180.099 387.569 180.035 386.276C179.959 384.742 179.888 383.308 179.566 381.934C178.663 378.078 177.692 374.237 176.721 370.397L176.72 370.395C175.868 367.025 175.015 363.655 174.209 360.273C173.881 358.895 173.752 357.469 173.628 356.095L173.616 355.958C173.513 354.815 174.483 353.821 175.621 353.974C177 354.161 177.693 355.255 178.399 356.379C178.849 357.096 179.295 357.817 179.741 358.538L179.743 358.541L179.743 358.541C181.207 360.909 182.672 363.278 184.312 365.516C186.381 368.34 188.744 370.978 192.226 372.13ZM216.692 270.577C228.906 278.636 242.478 282.376 256.765 283.592C256.082 282.976 255.346 281.828 255.524 281.152C255.756 280.271 255.959 279.38 256.163 278.49L256.163 278.489L256.163 278.489C256.919 275.176 257.677 271.86 259.924 269.027C261.35 267.231 262.576 265.063 263.161 262.87C263.998 259.726 262.113 257.833 258.923 258.5C257.61 258.775 256.348 259.285 255.084 259.796L255.084 259.796L255.084 259.796L255.083 259.796L255.083 259.796C253.985 260.24 252.887 260.684 251.752 260.975C250.792 261.221 249.015 260.854 248.646 260.191C248.171 259.337 248.433 257.744 248.95 256.772C249.395 255.934 250.564 255.228 251.546 254.972C254.874 254.105 258.232 253.245 261.633 252.806C264.397 252.449 266.571 253.673 267.448 256.6C267.908 258.139 268.406 259.667 268.928 261.265L268.928 261.266C269.165 261.992 269.406 262.733 269.651 263.496C269.422 264.015 269.202 264.535 268.983 265.053L268.983 265.054C268.504 266.183 268.03 267.303 267.484 268.386C266.113 271.097 264.713 273.8 263.202 276.436C261.956 278.611 260.619 280.749 259.132 282.762C258.864 283.126 258.202 283.494 257.658 283.665C258.596 283.738 259.536 283.8 260.479 283.852C276.874 284.755 298.676 285.705 315.029 283.852C337.517 281.303 366.108 276.711 370.913 269.537C372.488 267.186 372.721 259.796 372.19 255.027C371.827 251.769 371.52 248.504 371.212 245.238C370.702 239.829 370.192 234.42 369.432 229.046C367.678 216.652 364.831 204.495 361.596 192.372C361.503 192.027 361.411 191.682 361.319 191.338C361.247 191.072 361.176 190.806 361.104 190.54C361.068 190.552 361.031 190.564 360.995 190.576C360.953 190.59 360.91 190.604 360.868 190.617C356.793 191.921 352.951 191.613 349.615 188.73C347.959 187.3 346.71 185.779 347.04 183.136C347.417 180.101 345.836 178.576 342.873 179.349C341.528 179.7 340.129 179.883 338.726 180.065C335.331 180.508 331.917 180.952 329.215 183.797C328.352 184.706 326.914 185.103 325.517 185.489C325.08 185.61 324.646 185.729 324.235 185.863C321.495 186.758 318.735 187.612 315.943 188.324C310.396 189.74 305.392 188.39 301.326 184.518C297.115 180.509 295.249 175.399 296.738 169.641C298.525 162.733 302.398 157.156 308.437 153.136C310.065 152.051 311.719 150.763 312.825 149.19C315.161 145.867 314.474 142.518 311.151 140.372C310.505 139.955 309.163 140.295 308.274 140.633C306.372 141.356 304.503 142.167 302.635 142.978L302.634 142.978L302.633 142.979L302.633 142.979L302.633 142.979L302.633 142.979L302.633 142.979L302.632 142.979L302.631 142.98L302.63 142.98L302.63 142.98L302.629 142.98C301.882 143.305 301.135 143.629 300.385 143.948C299.729 144.227 299.074 144.513 298.42 144.799L298.42 144.799L298.42 144.799L298.42 144.799L298.42 144.799L298.42 144.799L298.42 144.799L298.42 144.799L298.419 144.799C296.921 145.455 295.423 146.11 293.893 146.678C292.719 147.114 291.549 147.585 290.379 148.058C287.171 149.351 283.957 150.648 280.623 151.22C277.132 151.819 273.274 150.952 269.717 150.133C268.534 149.861 267.436 147.844 266.9 146.402C265.441 142.473 265.887 138.565 267.755 134.8C270.576 129.112 274.81 124.439 279.975 121.121C288.762 115.473 297.797 110.086 308.052 107.3C308.726 107.117 309.399 106.757 309.949 106.322C313.246 103.723 317.164 103.045 321.169 102.626C321.836 102.556 322.505 102.506 323.174 102.457H323.175H323.175C323.955 102.399 324.735 102.341 325.511 102.251C326.454 102.141 327.39 101.988 328.328 101.835C328.742 101.767 329.156 101.699 329.57 101.635C329.148 101.942 328.74 102.292 328.331 102.642C327.452 103.395 326.573 104.149 325.556 104.475C311.85 108.878 299.058 115.258 286.531 122.224C285.725 122.672 285.041 123.35 284.363 124.023L284.362 124.024L284.362 124.024L284.362 124.024C284.132 124.252 283.902 124.48 283.669 124.698C283.352 124.993 283.057 125.358 282.763 125.721C282.197 126.42 281.637 127.112 280.941 127.284C276.391 128.408 274.879 131.919 273.375 135.412L273.375 135.413L273.375 135.413C272.983 136.323 272.592 137.231 272.148 138.095C270.95 140.426 270.424 142.945 272.747 145.096C275.469 147.616 278.779 148.301 281.696 146.81C283.484 145.898 285.256 144.948 287.027 143.998C290.526 142.121 294.025 140.245 297.65 138.655C301.101 137.142 304.912 136.298 308.647 135.618C314.17 134.614 318.426 136.695 320.651 140.976C322.323 144.197 321.85 146.761 319.374 149.372C318.334 150.47 317.415 151.684 316.496 152.897L316.495 152.898C316.123 153.39 315.75 153.882 315.37 154.366C315.15 154.647 314.951 154.98 314.753 155.313L314.753 155.313L314.753 155.313C314.35 155.99 313.95 156.663 313.376 156.875C309.704 158.229 308.126 161.264 306.562 164.273L306.562 164.273C305.97 165.41 305.381 166.544 304.681 167.581C302.18 171.292 302.054 175.748 304.591 179.423C306.975 182.878 311.03 183.218 314.984 182.528C316.942 182.186 318.899 181.672 320.762 180.98C323.073 180.12 325.368 179.217 327.663 178.314L327.664 178.314L327.664 178.314L327.664 178.314L327.665 178.314L327.665 178.313L327.665 178.313L327.665 178.313L327.665 178.313L327.666 178.313C331.272 176.894 334.877 175.476 338.542 174.227C341.591 173.188 344.873 172.603 348.089 172.36C349.801 172.231 351.209 172.796 350.442 175.771C349.125 180.875 353.793 185.782 359.064 186.057C359.311 185.981 359.559 185.907 359.808 185.834C356.681 174.72 353.076 163.83 347.816 153.485C347.663 153.183 347.497 152.882 347.331 152.579L347.331 152.579L347.33 152.578C346.784 151.585 346.232 150.579 346.087 149.527C346.067 149.376 346.067 149.221 346.083 149.064C346.273 147.279 348.332 146.172 349.848 147.138C350.017 147.245 350.154 147.372 350.247 147.524C351.418 149.445 352.321 151.533 353.222 153.615L353.222 153.615C353.404 154.035 353.586 154.454 353.769 154.872C358.011 164.525 361.243 174.508 364.152 184.599C365.397 184.226 366.626 183.817 367.814 183.312C372.044 181.512 376.218 179.583 380.393 177.654L380.394 177.653L380.398 177.652L380.399 177.651L380.4 177.651L380.401 177.65L380.401 177.65L380.402 177.65L380.403 177.649L380.404 177.649C382.323 176.762 384.242 175.875 386.166 175.001C386.359 174.913 386.558 174.818 386.759 174.721C388.266 173.995 389.966 173.176 391.116 174.795C392.703 177.031 390.472 178.657 388.946 179.627C381.883 184.116 374.43 187.744 366.008 189.012C365.816 189.041 365.624 189.076 365.433 189.117C366.19 191.823 366.931 194.535 367.669 197.248C367.984 198.403 368.415 199.527 368.797 200.522C368.96 200.947 369.115 201.349 369.247 201.72C378.57 192.987 383.273 190.185 397.352 185.7C396.638 184.329 395.948 182.893 395.246 181.433C393.673 178.159 392.04 174.761 389.934 171.688C380.599 158.065 371.177 144.48 361.239 131.294C349.664 115.936 335.679 103.006 319.259 92.8504C316.728 91.285 313.136 89.4355 308.888 88.4083C308.468 89.2078 308.112 90.081 307.826 90.7818L307.826 90.782C307.654 91.2053 307.507 91.5656 307.387 91.8087C300.246 106.281 282.528 104.116 274.423 91.2511C273.975 90.5397 273.456 89.872 272.966 89.2402L272.966 89.24L272.965 89.2394C272.745 88.9553 272.53 88.6786 272.33 88.4083C261.636 90.6203 249.949 100.386 242.208 108.338C234.184 116.58 227.306 125.698 221.384 135.542C207.901 157.95 194.427 180.364 180.98 202.793C179.86 204.663 178.819 206.58 177.679 208.681L177.679 208.682C177.12 209.711 176.537 210.785 175.909 211.919C187.19 212.493 195.405 217.089 202.619 221.124C203.828 221.8 205.009 222.461 206.171 223.084C206.96 223.508 207.714 223.908 208.438 224.293C215.295 227.939 219.518 230.184 226.356 236.884C226.443 236.665 226.532 236.452 226.619 236.242L226.619 236.242C226.8 235.809 226.975 235.391 227.116 234.961C230.487 224.705 233.855 214.447 237.223 204.189C239.571 197.038 241.919 189.886 244.269 182.735C244.514 181.99 244.792 181.258 245.082 180.53L245.13 180.408C245.708 178.959 246.34 177.373 248.42 178.189C250.202 178.887 249.718 180.294 249.265 181.61C249.232 181.707 249.198 181.803 249.166 181.898C248.531 183.791 247.898 185.684 247.291 187.586C246.168 191.108 245.044 194.629 243.92 198.151L243.918 198.156C239.251 212.778 234.584 227.4 229.95 242.032C228.737 245.86 226.84 247.372 222.285 247.471C220.827 247.502 219.366 247.399 217.867 247.292C217.174 247.243 216.473 247.193 215.76 247.156L213.352 252.432L213.298 252.549C211.565 256.347 209.829 260.149 207.982 264.198C209.015 264.959 209.995 265.699 210.945 266.418L210.945 266.418C212.919 267.91 214.765 269.305 216.692 270.577ZM275.397 199.24C274.91 198.777 274.423 198.314 273.97 197.836C275.06 206.667 275.576 215.419 273.468 224.267C272.469 228.459 273.147 232.705 276.347 236.487C279.343 240.028 280.187 240.978 284.234 239.106C288.828 236.981 293.48 234.783 296.041 229.924C296.522 229.012 297.384 228.184 298.265 227.622C302.55 224.889 306.861 222.192 311.241 219.614C315.228 217.264 319.576 215.884 324.237 216.224C329.363 216.599 332.042 221.025 330.349 225.896C330.227 226.247 330.087 226.601 329.946 226.956L329.946 226.957L329.946 226.958C329.54 227.985 329.129 229.023 329.13 230.052C329.137 234.304 326.634 237.138 323.948 239.85C321.14 242.685 318.24 245.442 315.229 248.062C306.448 255.701 305.077 265.54 306.74 276.268C306.875 277.141 307.767 278.412 308.484 278.546C309.317 278.702 310.622 278.042 311.24 277.321C312.992 275.28 312.434 272.975 311.652 270.633C311.63 270.568 311.608 270.502 311.585 270.435L311.51 270.215C311.034 268.817 310.421 267.019 310.991 266.193C312.323 264.258 313.415 262.133 314.507 260.006C317.104 254.951 319.705 249.888 325.549 247.367C325.697 247.304 325.823 247.177 325.941 247.058L325.942 247.058L325.973 247.026C333.547 239.466 337.997 230.865 335.496 219.738C334.119 213.613 329.819 209.97 323.694 210.17C315.187 210.448 307.931 213.832 301.399 219.059C300.786 219.549 300.146 220.006 299.506 220.463C298.672 221.058 297.839 221.652 297.068 222.319C296.373 222.92 295.727 223.579 295.081 224.238L295.081 224.239L295.081 224.239L295.081 224.239L295.081 224.239L295.08 224.239C294.235 225.102 293.391 225.963 292.442 226.689C289.176 229.185 285.828 231.595 282.338 233.755C281.755 234.116 279.453 233.176 279.357 232.601C279.221 231.791 278.997 231.003 278.772 230.214C278.188 228.16 277.603 226.103 278.563 223.659C280.313 219.208 282.142 214.339 278.441 209.726C278.165 209.381 278.094 208.599 278.289 208.193C280.339 203.934 277.869 201.588 275.397 199.24ZM273.97 197.833L273.967 197.834C267.701 193.258 260.829 192.401 255.842 195.653C255.506 195.872 255.305 196.297 255.103 196.722C255.01 196.92 254.916 197.117 254.808 197.295C254.95 197.373 255.09 197.467 255.23 197.56L255.23 197.56L255.23 197.561L255.23 197.561C255.54 197.769 255.85 197.977 256.18 198.014C257.063 198.114 258.012 198.17 258.858 197.952C262.615 196.982 266.238 196.683 269.954 198.421C270.655 198.749 271.645 198.46 272.635 198.172L272.635 198.171C273.088 198.039 273.542 197.907 273.967 197.834L273.97 197.835V197.834V197.833ZM224.528 196.285C218.525 201.205 211.753 203.796 203.919 203.345C203.588 203.324 203.256 203.292 202.924 203.26L202.924 203.26C202.165 203.186 201.406 203.112 200.661 203.181C199.975 203.244 199.303 203.46 198.631 203.677L198.631 203.677L198.631 203.677C198.337 203.772 198.042 203.867 197.747 203.948C197.833 204.207 197.901 204.481 197.969 204.755C198.122 205.368 198.275 205.982 198.634 206.433L198.66 206.467C199.389 207.388 200.39 208.653 201.331 208.703C202.184 208.749 203.048 208.814 203.916 208.88L203.918 208.88L203.918 208.88L203.919 208.88L203.919 208.88L203.92 208.88L203.92 208.88L203.92 208.88C207.248 209.132 210.637 209.389 213.685 208.535C222.119 206.173 229.175 201.723 232.34 192.681C233.783 188.556 233.046 183.181 229.611 180.303C229.092 179.869 228.54 179.474 227.988 179.08C227.356 178.629 226.725 178.179 226.145 177.669C224.58 176.294 223.564 174.967 224.796 172.517C225.397 171.323 225.502 169.885 225.609 168.441C225.664 167.687 225.72 166.931 225.846 166.206C226.026 165.174 225.837 164.91 225.007 165.641C224.299 166.265 223.576 166.875 222.853 167.486L222.853 167.486L222.853 167.486L222.852 167.487C220.944 169.098 219.034 170.71 217.405 172.567C215.345 174.913 215.893 177.22 218.525 179.045C219.417 179.663 220.413 180.128 221.41 180.594L221.411 180.594L221.411 180.595C222.063 180.899 222.717 181.205 223.343 181.553C229.544 185.006 230.05 191.759 224.528 196.285ZM244.831 150.655L244.831 150.654L244.831 150.654L244.831 150.654C245.175 149.466 245.529 148.24 245.962 147.003C245.401 146.255 244.739 145.372 244.077 144.49C243.865 144.724 243.617 144.948 243.37 145.172C242.834 145.657 242.299 146.141 242.125 146.732C240.735 151.48 237.636 154.873 233.896 157.861C231.506 159.771 229.189 161.775 226.908 163.813C226.671 164.025 226.608 164.431 226.544 164.837C226.515 165.024 226.486 165.21 226.44 165.378C226.874 165.494 227.271 165.778 227.669 166.063C228.546 166.691 229.426 167.321 230.719 166.146C231.278 165.638 231.956 165.262 232.635 164.886L232.635 164.885C233.156 164.597 233.678 164.307 234.15 163.956C234.914 163.389 235.725 162.853 236.538 162.315C238.611 160.943 240.693 159.566 242.008 157.667C243.374 155.695 244.077 153.265 244.831 150.655ZM233.655 268.445C233.036 268.194 232.39 267.955 231.732 267.711L231.732 267.711C230.143 267.123 228.483 266.509 226.962 265.648C225.498 264.818 223.207 262.451 223.368 262.219C224.439 260.681 225.497 261.354 226.555 262.028C227.014 262.32 227.472 262.612 227.932 262.724C231.191 263.521 234.317 263.817 237.518 262.49C238.806 261.958 240.707 261.279 241.152 263.228C241.367 264.171 240.198 265.899 239.191 266.539C238.187 267.177 236.985 267.504 235.624 267.874C235 268.044 234.343 268.223 233.655 268.445ZM191.946 204.194L191.946 204.194C191.38 204.717 190.986 205.081 190.522 205.228C188.551 205.854 184.241 204.036 183.626 202.035C183.29 200.94 183.953 199.384 184.559 198.246C184.75 197.888 186.463 197.87 187.067 198.288C188.479 199.267 189.794 200.384 191.25 201.621C191.839 202.121 192.45 202.64 193.1 203.177C192.634 203.559 192.263 203.901 191.946 204.194ZM231.386 139.295L231.235 139.158C230.418 139.353 229.615 139.543 228.822 139.731L228.811 139.733C226.18 140.356 223.663 140.951 221.163 141.608C220.906 141.676 220.722 142.016 220.537 142.357C220.45 142.516 220.364 142.675 220.271 142.806C220.358 142.857 220.448 142.926 220.537 142.995L220.538 142.995C220.73 143.144 220.923 143.292 221.088 143.266C224.596 142.714 228.1 142.14 231.588 141.48C231.858 141.43 232.079 141.12 232.3 140.81L232.3 140.81C232.403 140.666 232.505 140.522 232.613 140.404C232.216 140.045 231.819 139.686 231.407 139.314L231.386 139.295Z" fill="black"/><path id="Fill 2" fill-rule="evenodd" clip-rule="evenodd" d="M437 131.728C437 131.728 442.746 152.216 450.602 157.519C458.457 162.821 472.162 160.047 472.162 160.047L474 141.796L453.043 114.315C453.043 114.315 450.093 113.685 449.236 114.315C448.007 115.219 447.933 118.106 447.058 118.607C444.83 119.881 441.737 120.782 441.737 120.782L437 131.728Z" fill="white"/><path id="Stroke 2" fill-rule="evenodd" clip-rule="evenodd" d="M447.239 156.982C447.392 157.241 447.744 157.382 448.181 157.474C449.611 157.771 451.041 156.577 450.743 155.147C450.723 155.051 450.695 154.959 450.658 154.872C449.638 152.562 448.255 150.417 447.084 148.171C445.078 144.322 443.162 141.768 441.362 137.824C440.084 135.608 438.313 132.528 439.146 130.982C439.299 130.698 439.638 130.544 439.955 130.606C441.076 130.823 441.695 131.277 442.147 131.86C445.913 136.727 449.641 141.623 453.369 146.521C454.025 147.384 454.468 148.501 455.296 149.114C455.509 149.273 455.756 149.385 456.022 149.471C457.196 149.851 458.497 149.139 458.741 147.93C458.805 147.613 458.818 147.313 458.729 147.047C458.287 145.716 457.338 144.52 456.47 143.368C452.768 138.453 448.927 133.639 445.327 128.649C444.279 127.198 442.361 125.045 442.188 122.131C442.062 120.007 445.098 121.093 446.763 122.803C448.614 124.703 448.849 125.379 450.194 127.5C453.196 132.239 456.245 136.952 459.355 141.621C460.315 143.06 461.378 145.319 463.48 144.078C465.727 142.752 463.995 140.941 463.112 139.436C462.655 138.656 462.115 137.926 461.628 137.162C458.323 131.972 454.953 126.821 451.757 121.564C450.95 120.235 449.946 118.807 450.147 117.126C450.277 116.049 451.497 115.484 452.386 116.105C453.239 116.701 454.046 117.364 454.771 118.111C461.545 125.076 466.787 133.158 471.46 141.601C472.352 143.214 472.489 145.429 472.419 147.347C472.332 149.673 471.775 152.006 471.22 154.287C469.83 159.993 468.423 165.695 467.015 171.396C468.481 171.602 469.945 171.804 471.409 172C472.865 165.972 474.315 159.945 475.773 153.918C476.53 150.79 477.239 147.546 476.923 144.309C476.56 140.577 474.376 137.747 472.456 134.654C467.766 127.097 462.798 119.664 456.287 113.535C454.03 111.411 451.457 110.236 448.386 111.558C445.247 112.91 444.516 115.502 445.561 118.676C438.951 116.185 438.348 120.125 439.557 125.604C439.557 125.604 437.536 125.243 436.37 126.276C434.88 127.596 434.668 130.684 435.431 133.239C438.004 141.88 442.744 149.358 447.239 156.982" fill="black"/><path id="Path 4" fill-rule="evenodd" clip-rule="evenodd" d="M508 47.323C508 60.2455 506.561 77.9609 481 96C502.297 74.4895 497.251 51.4355 497.251 39.2246C497.251 27.0136 508 34.4005 508 47.323Z" fill="white"/></g></g><g id="Face" transform="translate(195 236) scale(1 1)"><g id="Face/Pleased"><path id="Stroke" fill-rule="evenodd" clip-rule="evenodd" d="M35.4866 14.8885C36.9436 12.6355 38.2716 12.2575 40.4296 13.9855C44.6016 17.3275 44.9366 17.1125 48.8136 13.2605C49.5526 12.5265 51.0986 11.7685 51.8656 12.0665C53.7236 12.7885 52.9736 14.3975 52.3126 15.7225C50.3496 19.6615 45.9636 21.5925 41.8076 20.2415C40.9053 19.9485 39.8645 19.4017 38.7817 18.8328L38.7817 18.8328C38.2421 18.5492 37.692 18.2603 37.1436 17.9945C37.7049 19.7228 37.4042 20.9233 37.096 22.1537L37.0786 22.2235C35.8346 27.2055 29.9976 29.3515 25.8846 26.2795C25.2076 25.7725 24.5756 24.4985 24.8186 23.6325C25.1286 22.5285 25.7836 22.4145 26.5806 22.4845C27.3127 22.5482 27.9072 22.695 28.4477 22.8286L28.4477 22.8286C28.6543 22.8796 28.853 22.9287 29.0486 22.9705C30.5936 23.3015 32.3706 23.1855 32.4876 21.4455C32.5766 20.1355 32.6986 18.3105 31.6416 17.5985C30.9401 17.1257 29.621 17.0569 28.3499 16.9907C27.4973 16.9462 26.6662 16.9029 26.0576 16.7395C26.0216 16.7295 25.9856 16.7185 25.9486 16.7065C24.3666 16.1875 23.8726 14.0095 25.1636 12.9575C25.2506 12.8865 25.3416 12.8255 25.4396 12.7755C27.7566 11.5925 32.9626 12.3615 35.4866 14.8885ZM8.97966 21.9144C5.62865 21.8944 3.07466 20.3084 1.07666 17.7624C0.158655 16.5934 -0.732345 15.0524 0.935655 14.0304C1.56965 13.6419 2.88581 14.1868 3.88993 14.6025C3.97388 14.6372 4.05565 14.6711 4.13466 14.7034C4.49283 14.8504 4.76999 15.1771 5.05174 15.5093C5.25692 15.7513 5.46453 15.996 5.70766 16.1764C8.13566 17.9764 10.2687 17.9764 12.6457 16.1424C13.0044 15.865 13.3234 15.5269 13.6408 15.1904L13.6408 15.1904C14.0798 14.7251 14.5157 14.2631 15.0497 13.9694C15.7017 13.6114 17.0657 13.6084 17.3927 13.8574C18.2627 14.5184 18.2627 16.0124 17.8747 16.6634C15.9057 19.9684 13.0497 22.0384 8.97966 21.9144ZM19.179 37.3615C20.823 38.0515 22.672 38.2095 24.386 37.7215C24.848 37.5895 25.293 37.4005 25.709 37.1055C26.718 36.3905 28.029 34.9185 27.877 33.9985C27.5844 32.2152 25.9977 32.6037 24.6211 32.9408C24.5341 32.9621 24.4479 32.9832 24.363 33.0035C19.821 34.0925 18.87 33.6605 16.736 29.6055C16.561 29.2735 16.4173 28.9155 16.2741 28.5588C16.0089 27.898 15.7455 27.2418 15.289 26.7645C14.81 26.2635 13.689 26.0895 12.946 26.2355C12.482 26.3265 11.935 27.2535 11.859 27.8595C11.401 31.4875 15.124 35.6605 19.179 37.3615Z" fill="black"/></g></g></g></svg>